<svg viewBox="0 0 400 320" fill="none" xmlns="http://www.w3.org/2000/svg">
<g clip-path="url(#clip0_61_1823)">
<path d="M79.9245 228.953C79.6026 228.412 78.21 228.991 77.954 228.5C77.6989 228.01 78.9928 227.264 79.732 225.559C79.8653 225.251 80.7054 223.314 80.0835 222.716C78.9047 221.583 73.5105 226.259 71.6228 224.729C71.2085 224.393 70.9191 223.723 69.6652 222.634C69.1664 222.201 68.8648 222.006 68.5729 222.078C68.1587 222.182 68.1259 222.735 67.6818 223.822C67.0157 225.454 66.6217 225.355 66.2336 226.657C65.9455 227.623 66.0113 228.184 65.6723 228.294C65.1926 228.449 64.751 227.424 64.1431 227.516C63.5227 227.609 63.1476 228.802 63.0291 229.696C62.8068 231.372 63.4237 232.478 63.7657 233.642C64.1373 234.906 64.3578 236.828 63.4997 239.55L55.006 263.431C56.8812 258.53 62.3106 245.097 64.592 240.105C65.2506 238.664 65.9778 237.203 67.471 236.626C68.9085 236.07 70.8828 236.402 73.3998 235.797C73.6938 235.726 74.5095 235.519 74.6122 235.04C74.6971 234.644 74.2172 234.423 74.291 234.053C74.3899 233.555 75.3334 233.549 76.4929 232.976C77.3105 232.571 77.8199 232.09 78.2579 231.676C78.39 231.551 80.353 229.674 79.9245 228.953Z" fill="#F2F2F2"/>
<path d="M46.5081 241.525C46.1488 241.526 46.0323 242.375 45.7166 242.359C45.4021 242.342 45.4084 241.493 44.7831 240.639C44.6704 240.485 43.9599 239.515 43.4864 239.647C42.5889 239.897 43.3325 243.889 42.0352 244.372C41.7505 244.478 41.3372 244.426 40.4401 244.726C40.0832 244.845 39.9 244.937 39.8516 245.101C39.7828 245.333 40.0454 245.509 40.4522 246.04C41.0623 246.837 40.9002 247.002 41.4283 247.567C41.8204 247.987 42.1156 248.117 42.0716 248.315C42.0094 248.594 41.378 248.515 41.2477 248.839C41.1147 249.17 41.5933 249.698 41.9985 250.014C42.7589 250.607 43.4809 250.624 44.1517 250.792C44.8806 250.974 45.8897 251.421 46.9806 252.627L56.2753 263.677C54.4062 261.345 49.366 254.81 47.5691 252.252C47.0504 251.514 46.5413 250.736 46.6884 249.838C46.8301 248.974 47.5628 248.102 47.9914 246.695C48.0415 246.53 48.175 246.071 47.9691 245.883C47.7989 245.727 47.5518 245.898 47.3907 245.755C47.1747 245.563 47.4439 245.099 47.4963 244.366C47.5332 243.849 47.4436 243.46 47.3665 243.126C47.3432 243.026 46.9864 241.523 46.5081 241.525Z" fill="#F2F2F2"/>
<path d="M53.6758 243.131L53.4594 241.202L53.5583 241.056C54.0159 240.38 54.2492 239.72 54.252 239.093C54.2524 238.994 54.2478 238.894 54.2431 238.793C54.2245 238.39 54.2011 237.89 54.4624 237.307C54.6089 236.983 55.0203 236.23 55.6389 236.323C55.8055 236.347 55.9315 236.423 56.0271 236.512C56.0411 236.49 56.0556 236.468 56.0709 236.443C56.2636 236.15 56.4162 236.024 56.5631 235.903C56.676 235.81 56.7927 235.714 56.9755 235.487C57.0558 235.388 57.1183 235.3 57.171 235.226C57.331 235.004 57.54 234.739 57.9086 234.743C58.3023 234.762 58.5085 235.087 58.6452 235.302C58.8892 235.686 58.9998 235.962 59.073 236.145C59.0996 236.213 59.1299 236.288 59.1453 236.311C59.2722 236.497 60.3037 236.323 60.6923 236.26C61.5652 236.115 62.3205 235.989 62.6317 236.538C62.8547 236.931 62.6891 237.451 62.1246 238.124C61.9487 238.334 61.7616 238.493 61.5955 238.618C61.7331 238.699 61.8563 238.825 61.9062 239.023C62.0238 239.49 61.6212 239.958 60.7101 240.416C60.4838 240.531 60.1791 240.684 59.7523 240.757C59.5512 240.792 59.3702 240.8 59.2153 240.805C59.212 240.894 59.1911 240.991 59.1365 241.091C58.9765 241.384 58.6434 241.524 58.1414 241.49C57.589 241.461 57.1342 241.356 56.7329 241.264C56.3826 241.184 56.0807 241.116 55.8437 241.132C55.4043 241.167 55.0656 241.518 54.6681 241.973L53.6758 243.131Z" fill="#F2F2F2"/>
<path d="M54.68 231.649L52.8657 232.347L52.699 232.289C51.9276 232.019 51.2286 231.961 50.6205 232.117C50.5238 232.142 50.4284 232.172 50.3312 232.202C49.946 232.322 49.4673 232.471 48.836 232.367C48.4839 232.308 47.6503 232.102 47.5836 231.481C47.5639 231.314 47.606 231.173 47.6684 231.058C47.6432 231.051 47.6178 231.042 47.5905 231.034C47.2573 230.922 47.0968 230.807 46.9422 230.695C46.8233 230.61 46.7007 230.522 46.4341 230.403C46.3172 230.351 46.2165 230.313 46.1318 230.28C45.8755 230.182 45.5653 230.048 45.4763 229.691C45.3945 229.306 45.6572 229.025 45.831 228.838C46.141 228.505 46.381 228.329 46.5402 228.211C46.5984 228.169 46.6638 228.12 46.6825 228.099C46.8308 227.93 46.4004 226.978 46.2405 226.619C45.8783 225.813 45.5648 225.116 46.0184 224.677C46.3427 224.362 46.8883 224.39 47.684 224.764C47.9317 224.88 48.1335 225.021 48.2966 225.149C48.3411 224.996 48.4317 224.845 48.6104 224.747C49.0336 224.515 49.5897 224.784 50.2649 225.548C50.4333 225.737 50.6586 225.992 50.8381 226.386C50.9225 226.571 50.9766 226.744 51.0204 226.892C51.1078 226.873 51.207 226.868 51.3174 226.896C51.6423 226.976 51.8622 227.262 51.957 227.755C52.0692 228.295 52.0826 228.761 52.095 229.172C52.1062 229.53 52.1169 229.839 52.1924 230.064C52.3381 230.479 52.7643 230.717 53.3064 230.985L54.68 231.649Z" fill="#F2F2F2"/>
<path d="M53.6758 225.969L53.4594 224.04L53.5583 223.894C54.0159 223.218 54.2492 222.558 54.252 221.931C54.2524 221.832 54.2478 221.732 54.2431 221.631C54.2245 221.228 54.2011 220.728 54.4624 220.145C54.6089 219.82 55.0203 219.068 55.6389 219.161C55.8055 219.184 55.9315 219.261 56.0271 219.35C56.0411 219.328 56.0556 219.306 56.0709 219.281C56.2636 218.988 56.4162 218.862 56.5631 218.741C56.676 218.648 56.7927 218.552 56.9755 218.325C57.0558 218.225 57.1183 218.138 57.171 218.064C57.331 217.842 57.54 217.576 57.9086 217.581C58.3023 217.6 58.5085 217.925 58.6452 218.14C58.8892 218.523 58.9998 218.8 59.073 218.983C59.0996 219.05 59.1299 219.126 59.1453 219.149C59.2722 219.335 60.3037 219.161 60.6923 219.098C61.5652 218.953 62.3205 218.827 62.6317 219.376C62.8547 219.769 62.6891 220.289 62.1246 220.962C61.9487 221.171 61.7616 221.331 61.5955 221.455C61.7331 221.537 61.8563 221.663 61.9062 221.86C62.0238 222.328 61.6212 222.796 60.7101 223.254C60.4838 223.369 60.1791 223.522 59.7523 223.595C59.5512 223.63 59.3702 223.638 59.2153 223.643C59.212 223.732 59.1911 223.829 59.1365 223.928C58.9765 224.222 58.6434 224.361 58.1414 224.328C57.589 224.299 57.1342 224.194 56.7329 224.102C56.3826 224.022 56.0807 223.954 55.8437 223.969C55.4043 224.005 55.0656 224.356 54.6681 224.811L53.6758 225.969Z" fill="#F2F2F2"/>
<path d="M55.653 263.399L55.248 263.145L54.7759 263.199C54.7684 263.156 54.7428 263.055 54.7041 262.898C54.4927 262.036 53.8485 259.412 53.311 255.279C52.9359 252.395 52.7237 249.429 52.6798 246.464C52.636 243.493 52.7768 241.245 52.8898 239.438C52.9751 238.074 53.0787 236.776 53.1804 235.512C53.451 232.134 53.7062 228.943 53.5163 225.41C53.4743 224.622 53.3861 222.98 52.4251 221.233C51.8676 220.22 51.0997 219.321 50.1424 218.561L50.7377 217.814C51.7944 218.654 52.6439 219.651 53.263 220.775C54.3285 222.712 54.4246 224.501 54.4708 225.36C54.6639 228.955 54.406 232.177 54.1326 235.587C54.0318 236.847 53.9282 238.14 53.8433 239.497C53.7314 241.288 53.5919 243.517 53.6353 246.449C53.6782 249.379 53.8881 252.308 54.2581 255.156C54.789 259.237 55.4239 261.821 55.6324 262.671C55.7435 263.124 55.7668 263.219 55.653 263.399Z" fill="#F2F2F2"/>
<path d="M48.3901 220.076C48.3509 220.076 48.3113 220.075 48.2711 220.073C47.4575 220.029 46.7041 219.543 46.0314 218.628C45.716 218.198 45.5546 217.708 45.2327 216.729C45.1828 216.578 44.9402 215.813 44.7928 214.76C44.6962 214.072 44.7083 213.784 44.845 213.53C44.9966 213.247 45.242 213.049 45.5182 212.916C45.5061 212.825 45.5159 212.731 45.5555 212.635C45.7183 212.237 46.1513 212.289 46.3855 212.315C46.504 212.33 46.6518 212.349 46.8114 212.341C47.0624 212.329 47.1972 212.254 47.4016 212.142C47.597 212.035 47.8401 211.902 48.2007 211.829C48.9117 211.681 49.5074 211.882 49.7038 211.948C50.7372 212.291 51.2466 213.093 51.8363 214.021C51.9539 214.208 52.3574 214.885 52.6238 215.815C52.816 216.485 52.789 216.783 52.7311 217.005C52.6136 217.46 52.336 217.721 51.6311 218.296C50.8949 218.898 50.5254 219.2 50.2082 219.384C49.4697 219.809 49.0059 220.076 48.3901 220.076Z" fill="#F2F2F2"/>
<path d="M352.079 229.564C351.757 229.022 350.365 229.602 350.109 229.11C349.853 228.62 351.147 227.874 351.887 226.169C352.02 225.862 352.86 223.924 352.238 223.326C351.059 222.193 345.665 226.87 343.777 225.339C343.363 225.004 343.074 224.333 341.82 223.245C341.321 222.811 341.019 222.616 340.728 222.689C340.313 222.792 340.28 223.345 339.836 224.433C339.17 226.064 338.776 225.966 338.388 227.267C338.1 228.233 338.166 228.795 337.827 228.904C337.347 229.059 336.906 228.034 336.298 228.126C335.677 228.22 335.302 229.413 335.184 230.306C334.961 231.983 335.578 233.089 335.92 234.252C336.292 235.516 336.512 237.438 335.654 240.16L327.161 264.041C329.036 259.141 334.465 245.708 336.747 240.716C337.405 239.275 338.132 237.813 339.626 237.236C341.063 236.681 343.037 237.012 345.554 236.407C345.848 236.337 346.664 236.129 346.767 235.651C346.852 235.255 346.372 235.034 346.446 234.663C346.544 234.166 347.488 234.16 348.648 233.586C349.465 233.181 349.975 232.7 350.413 232.287C350.545 232.162 352.508 230.285 352.079 229.564Z" fill="#F2F2F2"/>
<path d="M318.663 242.135C318.303 242.136 318.187 242.986 317.871 242.969C317.557 242.953 317.563 242.104 316.938 241.25C316.825 241.096 316.114 240.125 315.641 240.257C314.744 240.508 315.487 244.499 314.19 244.982C313.905 245.088 313.492 245.036 312.595 245.336C312.238 245.456 312.055 245.547 312.006 245.711C311.937 245.944 312.2 246.119 312.607 246.651C313.217 247.448 313.055 247.612 313.583 248.178C313.975 248.598 314.27 248.728 314.226 248.925C314.164 249.205 313.533 249.125 313.402 249.45C313.269 249.781 313.748 250.309 314.153 250.624C314.913 251.217 315.636 251.234 316.306 251.402C317.035 251.585 318.044 252.031 319.135 253.237L328.43 264.287C326.561 261.955 321.521 255.42 319.724 252.862C319.205 252.124 318.696 251.346 318.843 250.448C318.985 249.584 319.717 248.713 320.146 247.305C320.196 247.141 320.33 246.682 320.124 246.493C319.954 246.337 319.706 246.509 319.545 246.366C319.329 246.174 319.599 245.71 319.651 244.976C319.688 244.459 319.598 244.071 319.521 243.737C319.498 243.636 319.141 242.133 318.663 242.135Z" fill="#F2F2F2"/>
<path d="M325.83 243.741L325.614 241.813L325.713 241.666C326.171 240.99 326.404 240.33 326.407 239.704C326.407 239.604 326.402 239.504 326.398 239.403C326.379 239.001 326.356 238.501 326.617 237.918C326.763 237.593 327.175 236.841 327.794 236.934C327.96 236.957 328.086 237.033 328.182 237.123C328.196 237.1 328.21 237.078 328.226 237.054C328.418 236.76 328.571 236.635 328.718 236.514C328.831 236.421 328.947 236.325 329.13 236.098C329.21 235.998 329.273 235.91 329.326 235.837C329.486 235.614 329.695 235.349 330.063 235.354C330.457 235.372 330.663 235.697 330.8 235.912C331.044 236.296 331.154 236.572 331.228 236.756C331.254 236.823 331.285 236.898 331.3 236.922C331.427 237.108 332.458 236.934 332.847 236.87C333.72 236.725 334.475 236.599 334.786 237.149C335.009 237.542 334.844 238.061 334.279 238.734C334.103 238.944 333.916 239.103 333.75 239.228C333.888 239.31 334.011 239.436 334.061 239.633C334.178 240.1 333.776 240.569 332.865 241.027C332.638 241.141 332.334 241.294 331.907 241.368C331.706 241.402 331.525 241.41 331.37 241.415C331.367 241.504 331.346 241.601 331.291 241.701C331.131 241.994 330.798 242.134 330.296 242.1C329.744 242.072 329.289 241.966 328.888 241.874C328.537 241.794 328.235 241.726 327.998 241.742C327.559 241.777 327.22 242.128 326.823 242.584L325.83 243.741Z" fill="#F2F2F2"/>
<path d="M326.835 232.26L325.02 232.958L324.854 232.899C324.082 232.629 323.383 232.571 322.775 232.728C322.678 232.752 322.583 232.782 322.486 232.812C322.101 232.932 321.622 233.082 320.991 232.977C320.639 232.919 319.805 232.712 319.738 232.091C319.719 231.925 319.761 231.784 319.823 231.669C319.798 231.661 319.772 231.653 319.745 231.644C319.412 231.532 319.251 231.417 319.097 231.306C318.978 231.22 318.855 231.132 318.589 231.013C318.472 230.961 318.371 230.923 318.286 230.891C318.03 230.793 317.72 230.658 317.631 230.301C317.549 229.917 317.812 229.635 317.986 229.449C318.296 229.116 318.536 228.939 318.695 228.822C318.753 228.779 318.818 228.731 318.837 228.71C318.985 228.54 318.555 227.589 318.395 227.23C318.033 226.424 317.719 225.727 318.173 225.287C318.497 224.972 319.043 225 319.839 225.374C320.086 225.491 320.288 225.631 320.451 225.76C320.496 225.606 320.586 225.455 320.765 225.357C321.188 225.125 321.744 225.395 322.419 226.158C322.588 226.347 322.813 226.603 322.993 226.996C323.077 227.182 323.131 227.354 323.175 227.502C323.262 227.483 323.362 227.479 323.472 227.506C323.797 227.586 324.017 227.872 324.112 228.365C324.224 228.906 324.237 229.372 324.25 229.782C324.261 230.141 324.272 230.449 324.347 230.674C324.493 231.089 324.919 231.327 325.461 231.595L326.835 232.26Z" fill="#F2F2F2"/>
<path d="M325.83 226.579L325.614 224.651L325.713 224.504C326.171 223.828 326.404 223.168 326.407 222.542C326.407 222.442 326.402 222.342 326.398 222.241C326.379 221.839 326.356 221.339 326.617 220.756C326.763 220.431 327.175 219.678 327.794 219.772C327.96 219.795 328.086 219.871 328.182 219.961C328.196 219.938 328.21 219.916 328.226 219.892C328.418 219.598 328.571 219.473 328.718 219.352C328.831 219.259 328.947 219.163 329.13 218.935C329.21 218.836 329.273 218.748 329.326 218.675C329.486 218.452 329.695 218.187 330.063 218.191C330.457 218.21 330.663 218.535 330.8 218.75C331.044 219.134 331.154 219.41 331.228 219.594C331.254 219.661 331.285 219.736 331.3 219.759C331.427 219.946 332.458 219.772 332.847 219.708C333.72 219.563 334.475 219.437 334.786 219.987C335.009 220.38 334.844 220.899 334.279 221.572C334.103 221.782 333.916 221.941 333.75 222.066C333.888 222.148 334.011 222.273 334.061 222.471C334.178 222.938 333.776 223.407 332.865 223.865C332.638 223.979 332.334 224.132 331.907 224.205C331.706 224.24 331.525 224.248 331.37 224.253C331.367 224.342 331.346 224.439 331.291 224.539C331.131 224.832 330.798 224.972 330.296 224.938C329.744 224.909 329.289 224.804 328.888 224.712C328.537 224.632 328.235 224.564 327.998 224.58C327.559 224.615 327.22 224.966 326.823 225.422L325.83 226.579Z" fill="#F2F2F2"/>
<path d="M327.808 264.009L327.403 263.756L326.931 263.81C326.923 263.766 326.897 263.665 326.859 263.508C326.647 262.646 326.003 260.022 325.466 255.89C325.091 253.005 324.878 250.04 324.834 247.074C324.791 244.104 324.931 241.855 325.044 240.048C325.13 238.685 325.233 237.387 325.335 236.122C325.606 232.744 325.861 229.553 325.671 226.021C325.629 225.232 325.541 223.591 324.58 221.844C324.022 220.831 323.254 219.931 322.297 219.172L322.892 218.425C323.949 219.265 324.798 220.261 325.418 221.386C326.483 223.322 326.579 225.111 326.625 225.97C326.819 229.565 326.561 232.787 326.287 236.198C326.186 237.458 326.083 238.75 325.998 240.107C325.886 241.898 325.746 244.127 325.79 247.059C325.833 249.989 326.043 252.919 326.413 255.767C326.944 259.847 327.578 262.432 327.787 263.281C327.898 263.734 327.921 263.829 327.808 264.009Z" fill="#F2F2F2"/>
<path d="M320.545 220.687C320.506 220.687 320.466 220.686 320.426 220.683C319.612 220.639 318.859 220.153 318.186 219.239C317.871 218.809 317.709 218.318 317.387 217.339C317.337 217.188 317.095 216.423 316.947 215.37C316.851 214.682 316.863 214.394 317 214.14C317.151 213.857 317.397 213.66 317.673 213.526C317.661 213.435 317.67 213.341 317.71 213.245C317.873 212.848 318.306 212.9 318.54 212.925C318.659 212.94 318.806 212.959 318.966 212.951C319.217 212.939 319.352 212.864 319.556 212.753C319.752 212.646 319.995 212.512 320.355 212.439C321.066 212.291 321.662 212.492 321.858 212.558C322.892 212.902 323.401 213.703 323.991 214.632C324.108 214.818 324.512 215.496 324.778 216.425C324.971 217.095 324.944 217.393 324.886 217.615C324.768 218.07 324.491 218.331 323.786 218.906C323.049 219.509 322.68 219.81 322.363 219.994C321.624 220.419 321.161 220.687 320.545 220.687Z" fill="#F2F2F2"/>
<path d="M356.578 263.145C356.578 263.429 356.348 263.658 356.064 263.658H0V262.633H356.064C356.348 262.633 356.578 262.862 356.578 263.145Z" fill="#E6E6E6"/>
<path d="M302.927 263.106C302.927 286.364 305.373 303.387 279.992 305.218C252.738 307.184 257.058 286.364 257.058 263.106C257.058 239.849 253.388 216.723 279.992 220.995C292.498 223.003 302.927 239.849 302.927 263.106Z" fill="#3F3D56"/>
<path d="M264.397 292.401C266.423 292.401 268.066 279.285 268.066 263.106C268.066 246.926 266.423 233.811 264.397 233.811C262.37 233.811 260.727 246.926 260.727 263.106C260.727 279.285 262.37 292.401 264.397 292.401Z" fill="#E6E6E6"/>
<path d="M119.23 225.653C119.23 246.177 121.389 261.2 98.991 262.816C74.9398 264.551 78.7519 246.177 78.7519 225.653C78.7519 205.128 75.5136 184.72 98.991 188.49C110.027 190.262 119.23 205.128 119.23 225.653Z" fill="#3F3D56"/>
<path d="M85.2284 251.505C87.0169 251.505 88.4667 239.931 88.4667 225.653C88.4667 211.375 87.0169 199.801 85.2284 199.801C83.44 199.801 81.9902 211.375 81.9902 225.653C81.9902 239.931 83.44 251.505 85.2284 251.505Z" fill="#E6E6E6"/>
<path d="M154.006 262.801C154.006 286.058 156.452 303.081 131.072 304.912C103.818 306.878 108.137 286.058 108.137 262.801C108.137 239.543 104.468 216.417 131.072 220.689C143.577 222.697 154.006 239.543 154.006 262.801Z" fill="#3F3D56"/>
<path d="M115.476 292.096C117.503 292.096 119.146 278.98 119.146 262.801C119.146 246.622 117.503 233.506 115.476 233.506C113.45 233.506 111.807 246.622 111.807 262.801C111.807 278.98 113.45 292.096 115.476 292.096Z" fill="#E6E6E6"/>
<path d="M81.5334 176.442V190.878L77.5581 197.498L78.7813 220.689L79.7709 221.3L79.0871 197.803C86.055 195.214 88.3335 199.982 87.6492 209.399L86.4261 225.267L105.997 237.473L108.443 212.45L117.617 208.178L127.708 250.595H296.779C303.749 250.595 309.318 244.807 309.036 237.858L306.902 185.291L301.145 179.546L295.812 117.987C294.482 102.636 281.437 90.9513 266 91.2833L160.237 93.5579C154.499 93.6813 148.83 94.8341 143.502 96.9611L117.923 107.171L101.412 123.647L98.9635 163.32L92.7208 162.778C88.2302 162.389 84.1347 165.35 83.1075 169.73L81.5334 176.442Z" fill="#E6E6E6"/>
<path d="M136.27 233.506C139.648 233.506 142.386 230.774 142.386 227.403C142.386 224.032 139.648 221.3 136.27 221.3C132.892 221.3 130.154 224.032 130.154 227.403C130.154 230.774 132.892 233.506 136.27 233.506Z" fill="#3F3D56"/>
<path d="M150.337 233.379C153.714 233.379 156.452 230.647 156.452 227.276C156.452 223.905 153.714 221.173 150.337 221.173C146.959 221.173 144.221 223.905 144.221 227.276C144.221 230.647 146.959 233.379 150.337 233.379Z" fill="#3F3D56"/>
<path d="M287.331 233.379C290.709 233.379 293.447 230.647 293.447 227.276C293.447 223.905 290.709 221.173 287.331 221.173C283.954 221.173 281.215 223.905 281.215 227.276C281.215 230.647 283.954 233.379 287.331 233.379Z" fill="#3F3D56"/>
<path d="M301.398 233.506C304.775 233.506 307.513 230.774 307.513 227.403C307.513 224.032 304.775 221.3 301.398 221.3C298.02 221.3 295.282 224.032 295.282 227.403C295.282 230.774 298.02 233.506 301.398 233.506Z" fill="#3F3D56"/>
<path d="M291.854 170.077H148.074C146.975 170.077 145.952 169.64 145.193 168.846C144.435 168.052 144.045 167.011 144.097 165.916L146.198 121.592C146.297 119.496 148.022 117.833 150.124 117.807L285.886 116.063C287.89 116.044 289.629 117.527 289.886 119.53L295.803 165.598C295.948 166.73 295.598 167.871 294.843 168.728C294.087 169.585 292.998 170.077 291.854 170.077Z" fill="white"/>
<path d="M127.999 167.898H118.67C117.564 167.898 116.498 167.433 115.747 166.622C114.996 165.81 114.614 164.714 114.701 163.612L117.387 129.605C117.534 127.738 118.934 126.249 120.792 125.984L130.433 124.61C131.64 124.438 132.842 124.818 133.729 125.654C134.616 126.49 135.066 127.665 134.963 128.878L131.967 164.259C131.791 166.333 130.085 167.898 127.999 167.898Z" fill="white"/>
<path d="M106.546 167.033C106.449 167.033 106.352 167.029 106.255 167.023L105.16 166.944C104.078 166.867 103.097 166.369 102.398 165.541C101.699 164.712 101.374 163.663 101.482 162.586L104.495 132.514C104.674 130.733 106.033 129.285 107.803 128.99C109.008 128.788 110.219 129.143 111.126 129.961C112.032 130.778 112.508 131.944 112.43 133.16L110.512 163.311C110.444 164.376 109.963 165.35 109.158 166.052C108.426 166.69 107.508 167.033 106.546 167.033Z" fill="white"/>
<path d="M91.3763 228.387L89.7898 193.835C89.7898 193.835 86.1203 188.953 83.674 190.173C81.2276 191.394 77.5942 198.182 77.5942 198.182C77.5942 198.182 84.685 197.718 84.4853 205.237C84.2855 212.755 85.7001 224.918 85.7001 224.918L91.3763 228.387Z" fill="#CCCCCC"/>
<path d="M106.146 237.415L106.914 211.638L114.694 202.469C114.694 202.469 125.091 200.227 124.87 211.984C124.65 223.741 128.014 250.9 128.014 250.9L120.411 246.135C120.411 246.135 118.534 217.027 113.03 213.976C107.526 210.924 109.36 213.365 109.36 213.365L106.146 237.415Z" fill="#CCCCCC"/>
<path d="M98.0438 171.334L92.0162 167.897H92.6743C93.6145 167.897 94.3767 167.137 94.3767 166.198V151.287C94.3767 150.348 93.6145 149.588 92.6743 149.588H86.2936C85.3535 149.588 84.5913 150.348 84.5913 151.287V166.198C84.5913 167.137 85.3535 167.897 86.2936 167.897H89.551L97.4369 172.394L98.0438 171.334Z" fill="#3F3D56"/>
<path d="M106.187 193.678L101.485 192.329C100.349 192.003 99.1631 192.657 98.8364 193.791C98.5097 194.925 99.1659 196.108 100.302 196.434L105.004 197.784C106.14 198.11 107.326 197.455 107.653 196.321C107.98 195.187 107.323 194.004 106.187 193.678Z" fill="#3F3D56"/>
<path d="M297.746 150.351L277.64 149.485C276.459 149.434 275.461 150.348 275.41 151.527C275.359 152.705 276.275 153.702 277.456 153.753L297.561 154.619C298.742 154.67 299.741 153.756 299.792 152.577C299.843 151.398 298.927 150.402 297.746 150.351Z" fill="#3F3D56"/>
<path d="M316.705 190.631L296.6 189.765C295.418 189.714 294.42 190.628 294.369 191.807C294.318 192.986 295.234 193.982 296.415 194.033L316.52 194.899C317.702 194.95 318.7 194.036 318.751 192.857C318.802 191.679 317.886 190.682 316.705 190.631Z" fill="#3F3D56"/>
<path d="M234.735 237.168C260.405 237.168 281.215 216.401 281.215 190.784C281.215 165.167 260.405 144.4 234.735 144.4C209.065 144.4 188.255 165.167 188.255 190.784C188.255 216.401 209.065 237.168 234.735 237.168Z" fill="#3F3D56"/>
<path d="M234.735 218.248C249.935 218.248 262.256 205.952 262.256 190.784C262.256 175.616 249.935 163.32 234.735 163.32C219.535 163.32 207.214 175.616 207.214 190.784C207.214 205.952 219.535 218.248 234.735 218.248Z" fill="#E6E6E6"/>
<path d="M296.316 98.6678C296.55 101.375 298.14 103.45 299.866 103.301C301.593 103.152 302.803 100.837 302.568 98.1281C302.49 97.0448 302.152 95.9962 301.584 95.0699L300.448 83.6104L295.07 84.2571L296.761 95.4855C296.36 96.4956 296.208 97.5868 296.316 98.6678Z" fill="#FFB6B6"/>
<path d="M280.753 32.3309C280.753 32.3309 286.686 30.6631 288.967 33.4869C291.247 36.3107 299.755 64.0413 299.755 64.0413L302.396 93.8865L293.973 91.3428L290.695 67.8059L285.191 55.5996L280.753 32.3309Z" fill="#FA6F68"/>
<path d="M278.816 14.3779H260.732V31.4902H278.816V14.3779Z" fill="#2F2E41"/>
<path d="M269.583 23.0964C274.452 23.0964 278.4 19.1571 278.4 14.2977C278.4 9.43833 274.452 5.49902 269.583 5.49902C264.713 5.49902 260.766 9.43833 260.766 14.2977C260.766 19.1571 264.713 23.0964 269.583 23.0964Z" fill="#FFB6B6"/>
<path d="M265.409 0.0655639C259.774 0.935955 260.042 3.02554 258.238 4.11029C255.059 6.02137 253.805 11.54 255.484 15.1817C255.932 16.1547 256.878 17.4821 256.419 18.9153C256.067 20.0155 255.051 20.6645 254.86 20.7821C253.299 21.7441 254.319 20.5996 253.613 21.4043C252.834 22.2926 254.041 23.5472 253.301 25.1379C252.646 26.5481 251.294 26.4291 251.119 27.3159C250.817 28.8429 254.286 31.9132 257.978 31.6717C261.265 31.4568 263.708 28.6833 264.525 26.0713C265.073 24.3217 265.309 21.3121 263.902 19.8487C263.704 19.6434 263.165 19.1464 262.655 18.293C262.251 17.6177 261.72 16.7287 262.031 16.1151C262.363 15.4613 263.303 15.8054 263.902 15.1817C264.714 14.3358 263.749 12.9066 263.902 11.4481C264.161 8.97833 267.667 6.00787 271.385 6.46997C275.602 6.99418 277.148 11.5703 277.308 12.0704C277.64 13.1068 277.633 14.1096 277.62 16.1151C277.601 18.9931 277.589 20.797 276.685 22.6489C275.384 25.3124 273.727 25.0246 273.255 27.0047C272.52 30.092 275.978 33.1925 276.373 33.5385C279.305 36.1032 283.733 36.8744 284.479 35.7164C285.152 34.673 282.199 33.0498 282.297 29.8049C282.382 26.9929 284.662 26.1357 284.168 24.2045C283.623 22.0787 280.718 22.5637 279.491 20.1598C278.345 17.916 280.456 16.6711 280.114 12.0704C280.042 11.0971 279.736 8.30391 277.932 5.53657C277.137 4.31741 276.329 3.07748 274.814 2.42525C273.118 1.69509 268.39 -0.394831 265.409 0.0655639Z" fill="#2F2E41"/>
<path d="M261.668 7.84369C261.896 9.77034 264.796 10.7145 266.033 10.955C266.557 11.0569 268.327 11.401 270.086 10.6439C270.736 10.364 270.973 10.1109 271.645 10.0216C272.554 9.90076 273.013 10.2461 274.451 10.6439C276.05 11.0862 276.849 11.3074 277.257 10.955C277.923 10.3789 277.411 8.49432 276.633 7.22142C275.194 4.86775 272.561 4.13892 271.333 3.79896C269.93 3.41057 267.082 2.62241 264.474 4.11009C264.125 4.30899 261.435 5.88619 261.668 7.84369Z" fill="#2F2E41"/>
<path d="M304.586 180.957L309.086 181.063L311.594 160.887L304.953 160.73L304.586 180.957Z" fill="#FFB6B6"/>
<path d="M320.025 190.326C320.025 191.084 319.486 191.699 318.82 191.699H309.888C309.888 191.699 309.009 188.173 305.425 186.656L305.178 191.699H300.57L301.128 183.59C301.128 183.59 299.895 179.251 302.455 177.033C305.015 174.815 302.942 175.124 302.942 175.124L303.949 170.104L310.912 170.922L310.963 178.801L314.342 186.622L319.298 189.065C319.74 189.282 320.025 189.778 320.025 190.326Z" fill="#2F2E41"/>
<path d="M284.126 141.441L288.526 140.495L286.246 120.293L279.752 121.688L284.126 141.441Z" fill="#FFB6B6"/>
<path d="M301.33 146.954C301.508 147.692 301.127 148.415 300.48 148.57L291.794 150.651C291.794 150.651 290.115 147.427 286.275 146.787L287.214 151.749L282.734 152.822L281.379 144.806C281.379 144.806 279.166 140.874 281.136 138.122C283.107 135.369 281.163 136.152 281.163 136.152L280.968 131.037L287.93 130.209L289.823 137.859L294.938 144.676L300.329 145.897C300.809 146.006 301.202 146.421 301.33 146.954Z" fill="#2F2E41"/>
<path d="M275.711 24.1689L264.703 24.7793L261.645 30.8824L250.025 36.9855L251.859 67.0806L247.667 82.2177L248.19 86.4208L289.166 85.2002L286.72 40.0371L287.331 32.7133L279.381 30.2721L275.711 24.1689Z" fill="#FA6F68"/>
<path d="M248.496 80.6228C248.496 80.6228 239.322 96.7985 248.496 99.086C252.577 100.104 256.9 100.789 260.442 101.237C264.683 101.773 268.587 98.8679 269.29 94.66L279.075 128.227L288.86 125.786L290.695 108.313L302.585 120.178L301.092 167.897L312.1 167.287L323.72 115.411C323.72 115.411 324.332 111.749 315.158 106.866C305.985 101.984 289.472 86.1157 289.472 86.1157L261.339 77.5713L248.496 80.6228Z" fill="#2F2E41"/>
<path d="M267.761 91.3028L251.859 80.9275L271.43 60.1768C271.43 60.1768 282.439 55.9046 285.496 72.3831C288.554 88.8615 290.389 103.509 290.389 103.509L267.761 91.3028Z" fill="#2F2E41"/>
<path d="M234.952 60.3286L235.649 55.5998C236.157 52.1536 233.866 49.146 230.76 48.4056V46.4451C230.76 44.7598 229.391 43.3936 227.702 43.3936C226.013 43.3936 224.644 44.7598 224.644 46.4451V49.0603L213.024 51.52V48.276C213.024 46.5907 211.655 45.2245 209.966 45.2245C208.277 45.2245 206.908 46.5907 206.908 48.276V51.3591L205.753 51.0584C202.303 50.1602 199.578 54.1102 201.723 56.9516C201.751 56.9884 201.779 57.0251 201.808 57.0619C204.672 60.7369 205.491 64.0036 205.491 64.0036L203.445 75.0288L205.775 97.9506C206.075 100.905 208.623 103.119 211.597 103.009L234.221 102.172C237.192 102.063 239.571 99.6719 239.652 96.7058C239.94 86.1409 239.973 63.1471 234.952 60.3286Z" fill="#3F3D56"/>
<path d="M214.697 99.9352C214.38 99.9352 214.111 99.6911 214.088 99.3705L212.86 83.0368C212.835 82.7007 213.087 82.4078 213.424 82.3827C213.758 82.3565 214.054 82.6095 214.079 82.9457L215.307 99.2793C215.333 99.6154 215.08 99.9084 214.743 99.9334C214.728 99.9346 214.712 99.9352 214.697 99.9352Z" fill="#EF5B76"/>
<path d="M205.49 64.6146C205.191 64.6146 204.93 64.3962 204.885 64.0928C204.836 63.7593 205.068 63.4494 205.402 63.4005L234.959 59.0777C235.293 59.0294 235.604 59.2595 235.653 59.5929C235.702 59.9264 235.471 60.2363 235.136 60.2852L205.579 64.6081C205.549 64.6125 205.519 64.6146 205.49 64.6146Z" fill="#EF5B76"/>
<path d="M31.8616 241.449C31.6555 241.103 30.7641 241.474 30.6002 241.159C30.4369 240.846 31.2652 240.368 31.7383 239.277C31.8237 239.08 32.3614 237.84 31.9633 237.457C31.2088 236.731 27.7559 239.725 26.5476 238.745C26.2824 238.53 26.0971 238.101 25.2945 237.404C24.9753 237.127 24.7822 237.002 24.5953 237.049C24.3302 237.115 24.3092 237.469 24.0249 238.165C23.5985 239.209 23.3464 239.146 23.0979 239.979C22.9135 240.598 22.9557 240.957 22.7386 241.027C22.4316 241.126 22.1489 240.47 21.7598 240.529C21.3626 240.589 21.1225 241.353 21.0467 241.925C20.9044 242.998 21.2993 243.706 21.5182 244.45C21.756 245.259 21.8972 246.49 21.3479 248.232L15.9111 263.518C17.1114 260.382 20.5867 251.783 22.0471 248.588C22.4687 247.665 22.9342 246.73 23.89 246.361C24.8101 246.005 26.0739 246.217 27.6851 245.83C27.8732 245.785 28.3954 245.652 28.4611 245.346C28.5154 245.092 28.2083 244.951 28.2555 244.713C28.3188 244.395 28.9228 244.391 29.665 244.024C30.1883 243.765 30.5144 243.457 30.7948 243.192C30.8793 243.112 32.1359 241.911 31.8616 241.449Z" fill="#F2F2F2"/>
<path d="M10.4714 249.497C10.2415 249.498 10.1669 250.041 9.9648 250.031C9.76348 250.02 9.7675 249.477 9.36729 248.93C9.29512 248.832 8.8403 248.21 8.53723 248.295C7.96276 248.455 8.43875 251.01 7.60832 251.319C7.42607 251.387 7.16155 251.354 6.58727 251.546C6.35881 251.623 6.24155 251.681 6.21054 251.786C6.16654 251.935 6.33463 252.047 6.59504 252.387C6.98556 252.898 6.88179 253.003 7.21984 253.365C7.47079 253.634 7.65977 253.717 7.63161 253.843C7.59177 254.022 7.18759 253.971 7.1042 254.179C7.0191 254.391 7.32546 254.729 7.58482 254.931C8.07153 255.31 8.53372 255.321 8.96307 255.429C9.42966 255.546 10.0756 255.832 10.7739 256.603L16.7235 263.677C15.5271 262.184 12.3008 258.001 11.1506 256.363C10.8186 255.891 10.4927 255.393 10.5869 254.818C10.6775 254.265 11.1466 253.707 11.4209 252.806C11.453 252.701 11.5384 252.407 11.4067 252.286C11.2977 252.187 11.1395 252.296 11.0364 252.205C10.8981 252.082 11.0705 251.785 11.104 251.316C11.1277 250.984 11.0703 250.736 11.0209 250.522C11.006 250.458 10.7776 249.496 10.4714 249.497Z" fill="#F2F2F2"/>
<path d="M15.0596 250.525L14.921 249.291L14.9843 249.197C15.2773 248.765 15.4266 248.342 15.4284 247.941C15.4287 247.877 15.4257 247.813 15.4227 247.748C15.4108 247.491 15.3958 247.171 15.5631 246.798C15.6568 246.59 15.9202 246.108 16.3162 246.168C16.4228 246.183 16.5034 246.232 16.5647 246.289L16.5927 246.245C16.7161 246.057 16.8137 245.976 16.9078 245.899C16.98 245.839 17.0547 245.778 17.1718 245.633C17.2231 245.569 17.2631 245.513 17.2969 245.466C17.3993 245.323 17.5331 245.153 17.769 245.156C18.021 245.168 18.153 245.376 18.2405 245.514C18.3967 245.759 18.4675 245.936 18.5144 246.054C18.5314 246.097 18.5508 246.145 18.5607 246.16C18.6419 246.279 19.3021 246.168 19.5509 246.127C20.1096 246.034 20.5931 245.954 20.7923 246.305C20.935 246.557 20.829 246.889 20.4677 247.32C20.3551 247.455 20.2354 247.556 20.129 247.636C20.2171 247.689 20.296 247.769 20.3279 247.896C20.4032 248.195 20.1455 248.495 19.5623 248.788C19.4174 248.861 19.2224 248.959 18.9492 249.006C18.8205 249.028 18.7046 249.033 18.6055 249.036C18.6034 249.094 18.5899 249.156 18.555 249.219C18.4526 249.407 18.2394 249.496 17.918 249.475C17.5645 249.456 17.2733 249.389 17.0165 249.33C16.7922 249.279 16.599 249.235 16.4473 249.246C16.166 249.268 15.9492 249.493 15.6948 249.784L15.0596 250.525Z" fill="#F2F2F2"/>
<path d="M15.7023 243.175L14.541 243.622L14.4343 243.585C13.9405 243.412 13.4931 243.375 13.1038 243.475C13.0419 243.491 12.9808 243.51 12.9186 243.529C12.6721 243.606 12.3656 243.701 11.9616 243.635C11.7362 243.597 11.2026 243.465 11.1599 243.067C11.1473 242.961 11.1742 242.871 11.2141 242.797L11.1643 242.781C10.951 242.71 10.8483 242.636 10.7493 242.565C10.6732 242.51 10.5947 242.453 10.4241 242.377C10.3492 242.344 10.2848 242.32 10.2306 242.299C10.0665 242.236 9.86795 242.15 9.811 241.922C9.75863 241.675 9.92677 241.495 10.038 241.376C10.2364 241.163 10.3901 241.05 10.492 240.975C10.5293 240.947 10.5711 240.916 10.5831 240.903C10.678 240.794 10.4025 240.185 10.3001 239.955C10.0683 239.44 9.86766 238.993 10.158 238.712C10.3656 238.51 10.7148 238.528 11.2242 238.768C11.3827 238.842 11.5119 238.932 11.6163 239.015C11.6448 238.916 11.7028 238.82 11.8171 238.757C12.0881 238.608 12.444 238.781 12.8762 239.27C12.984 239.391 13.1282 239.554 13.2431 239.806C13.2972 239.925 13.3317 240.035 13.3598 240.13C13.4158 240.118 13.4793 240.115 13.5499 240.132C13.7579 240.184 13.8986 240.367 13.9593 240.682C14.0311 241.028 14.0397 241.327 14.0476 241.589C14.0548 241.819 14.0617 242.016 14.11 242.16C14.2033 242.426 14.4761 242.578 14.8231 242.75L15.7023 243.175Z" fill="#F2F2F2"/>
<path d="M15.0596 239.539L14.921 238.304L14.9843 238.211C15.2773 237.778 15.4266 237.356 15.4284 236.955C15.4287 236.891 15.4257 236.827 15.4227 236.762C15.4108 236.505 15.3958 236.184 15.5631 235.811C15.6568 235.603 15.9202 235.122 16.3162 235.181C16.4228 235.196 16.5034 235.245 16.5647 235.302L16.5927 235.258C16.7161 235.071 16.8137 234.99 16.9078 234.913C16.98 234.853 17.0547 234.792 17.1718 234.646C17.2231 234.582 17.2631 234.526 17.2969 234.479C17.3993 234.337 17.5331 234.167 17.769 234.17C18.021 234.182 18.153 234.39 18.2405 234.528C18.3967 234.773 18.4675 234.95 18.5144 235.068C18.5314 235.11 18.5508 235.159 18.5607 235.174C18.6419 235.293 19.3021 235.181 19.5509 235.141C20.1096 235.048 20.5931 234.967 20.7923 235.319C20.935 235.571 20.829 235.903 20.4677 236.334C20.3551 236.468 20.2354 236.57 20.129 236.65C20.2171 236.702 20.296 236.783 20.3279 236.909C20.4032 237.208 20.1455 237.508 19.5623 237.801C19.4174 237.875 19.2224 237.972 18.9492 238.02C18.8205 238.042 18.7046 238.047 18.6055 238.05C18.6034 238.107 18.5899 238.169 18.555 238.233C18.4526 238.421 18.2394 238.51 17.918 238.489C17.5645 238.47 17.2733 238.403 17.0165 238.344C16.7922 238.293 16.599 238.249 16.4473 238.259C16.166 238.282 15.9492 238.507 15.6948 238.798L15.0596 239.539Z" fill="#F2F2F2"/>
<path d="M16.3251 263.499L16.0659 263.337L15.7637 263.372C15.759 263.344 15.7425 263.279 15.7177 263.178C15.5825 262.627 15.1701 260.947 14.826 258.302C14.586 256.455 14.4501 254.557 14.422 252.659C14.3939 250.758 14.4841 249.318 14.5564 248.161C14.611 247.289 14.6773 246.458 14.7424 245.649C14.9156 243.486 15.079 241.444 14.9574 239.183C14.9306 238.678 14.8741 237.627 14.259 236.509C13.9021 235.86 13.4106 235.285 12.7978 234.798L13.1788 234.32C13.8552 234.858 14.399 235.496 14.7953 236.216C15.4774 237.455 15.5389 238.6 15.5684 239.15C15.6921 241.452 15.5269 243.514 15.3519 245.697C15.2874 246.503 15.2211 247.331 15.1668 248.2C15.0951 249.346 15.0058 250.773 15.0336 252.649C15.0611 254.525 15.1955 256.4 15.4323 258.223C15.7721 260.835 16.1785 262.489 16.312 263.033C16.3831 263.323 16.398 263.384 16.3251 263.499Z" fill="#F2F2F2"/>
<path d="M11.6762 235.768C11.6511 235.768 11.6257 235.767 11.6 235.765C11.0792 235.737 10.5969 235.426 10.1663 234.841C9.96445 234.565 9.86113 234.251 9.65507 233.625C9.62312 233.528 9.46783 233.038 9.37347 232.364C9.31165 231.924 9.31942 231.74 9.40692 231.577C9.50397 231.396 9.66105 231.27 9.83783 231.184C9.83006 231.126 9.83634 231.066 9.86172 231.004C9.96594 230.75 10.2431 230.783 10.393 230.799C10.4688 230.809 10.5635 230.821 10.6656 230.816C10.8263 230.808 10.9126 230.761 11.0434 230.689C11.1685 230.62 11.3241 230.535 11.5549 230.488C12.01 230.393 12.3914 230.522 12.5171 230.564C13.1785 230.784 13.5046 231.298 13.8821 231.892C13.9574 232.011 14.2157 232.445 14.3862 233.04C14.5092 233.469 14.4919 233.659 14.4549 233.801C14.3796 234.093 14.2019 234.26 13.7507 234.628C13.2795 235.014 13.043 235.207 12.8399 235.324C12.3672 235.597 12.0703 235.768 11.6762 235.768Z" fill="#F2F2F2"/>
<path d="M373.866 171.919L374.146 150.11L365.757 147.807L366.011 171.922L364.081 189.742L364.131 189.76C363.322 190.572 362.665 191.868 362.386 193.4C361.876 196.196 362.811 198.707 364.474 199.009C366.137 199.312 367.899 197.29 368.409 194.495C368.619 193.347 368.581 192.251 368.353 191.332L368.428 191.36L373.866 171.919Z" fill="#A0616A"/>
<path d="M358.608 120.652C358.608 120.652 362.416 117.747 365.103 121.993C367.79 126.24 375.181 147.694 375.181 147.694C375.181 147.694 377.318 157.528 376.809 158.98C376.301 160.433 375.629 173.218 375.629 173.218L365.129 171.318L365.382 158.98L355.377 143.042L358.608 120.652Z" fill="#CCCCCC"/>
<path d="M288.286 112.732L303.001 128.859L310.706 124.827L294.023 107.378L283.242 93.0423L283.193 93.0628C283.229 91.9183 282.822 90.524 281.978 89.2141C280.438 86.8239 278.037 85.6259 276.615 86.5382C275.193 87.4506 275.288 90.1278 276.828 92.518C277.46 93.4992 278.238 94.275 279.033 94.7908L278.959 94.8214L288.286 112.732Z" fill="#A0616A"/>
<path d="M335.347 139.797C335.347 139.797 334.552 144.514 329.684 143.242C324.815 141.97 304.737 131.328 304.737 131.328C304.737 131.328 296.449 125.599 295.827 124.191C295.204 122.783 286.949 112.983 286.949 112.983L295.921 107.218L304.176 116.406L322.391 121.235L335.347 139.797Z" fill="#CCCCCC"/>
<path d="M338.135 108.323C344.589 108.323 349.821 103.102 349.821 96.6617C349.821 90.2211 344.589 85 338.135 85C331.681 85 326.449 90.2211 326.449 96.6617C326.449 103.102 331.681 108.323 338.135 108.323Z" fill="#A0616A"/>
<path d="M358.635 300.954L351.382 300.954L347.932 273.036L358.637 273.037L358.635 300.954Z" fill="#A0616A"/>
<path d="M333.786 300.79C333.56 301.17 333.441 302.395 333.441 302.836C333.441 304.193 334.543 305.292 335.903 305.292H358.364C359.291 305.292 360.043 304.542 360.043 303.617V302.683C360.043 302.683 361.154 299.879 358.867 296.422C358.867 296.422 356.023 299.129 351.775 294.889L350.522 292.624L341.453 299.243L336.427 299.86C335.327 299.995 334.352 299.839 333.786 300.79Z" fill="#2F2E41"/>
<path d="M337.841 300.954L330.588 300.954L327.138 273.036L337.843 273.037L337.841 300.954Z" fill="#A0616A"/>
<path d="M312.992 300.79C312.766 301.17 312.647 302.395 312.647 302.836C312.647 304.193 313.749 305.292 315.109 305.292H337.57C338.498 305.292 339.249 304.542 339.249 303.617V302.683C339.249 302.683 340.361 299.879 338.073 296.422C338.073 296.422 335.23 299.129 330.981 294.889L329.728 292.624L320.659 299.243L315.633 299.86C314.533 299.995 313.558 299.839 312.992 300.79Z" fill="#2F2E41"/>
<path d="M363.779 179.798L316.687 182.239L327.084 288.433L337.481 287.823L341.151 223.74L342.68 200.854L348.916 286.067L359.498 285.992L363.779 179.798Z" fill="#2F2E41"/>
<path d="M349.829 111.443L331.993 110.833L320.051 122.684V161.506L315.387 185.901C315.387 185.901 346.753 182.85 352.904 188.953C359.054 195.056 370.124 190.784 370.124 190.784L364.589 158.507L362.129 121.208L349.829 111.443Z" fill="#CCCCCC"/>
<path d="M343.28 108.086L333.338 105.743L331.804 99.7279C331.804 99.7279 331.767 96.8926 330.426 96.5764C329.084 96.2602 326.719 94.2891 326.719 94.2891L329.011 90.5896C329.011 90.5896 323.487 89.994 325.145 88.9716C326.803 87.9493 327.043 88.4099 327.279 85.9414C327.766 80.8339 343.426 81.5795 344.643 84.3818C344.643 84.3818 346.655 84.8561 347.679 86.511C348.704 88.1658 349.216 88.9932 349.887 89.1513C350.557 89.3094 350.911 90.8061 350.911 90.8061C350.911 90.8061 353.277 92.7771 352.448 93.2883C351.619 93.7995 350.985 96.4767 350.985 96.4767C350.985 96.4767 353.192 99.117 348.254 105.019L345.624 109.243L343.28 108.086Z" fill="#2F2E41"/>
<path d="M356.046 125.237L356.743 120.508C357.25 117.062 354.96 114.054 351.853 113.314V111.353C351.853 109.668 350.484 108.302 348.795 108.302C347.106 108.302 345.737 109.668 345.737 111.353V113.968L334.117 116.428V113.184C334.117 111.499 332.748 110.133 331.059 110.133C329.371 110.133 328.001 111.499 328.001 113.184V116.267L326.846 115.967C323.396 115.068 320.671 119.018 322.817 121.86C322.845 121.897 322.873 121.933 322.901 121.97C325.766 125.645 326.584 128.912 326.584 128.912L324.538 139.937L326.868 162.859C327.169 165.813 329.717 168.027 332.69 167.917L355.315 167.081C358.286 166.971 360.665 164.58 360.745 161.614C361.034 151.049 361.067 128.055 356.046 125.237Z" fill="#3F3D56"/>
<path d="M335.79 164.843C335.473 164.843 335.205 164.599 335.181 164.279L333.953 147.945C333.928 147.609 334.181 147.316 334.517 147.291C334.851 147.265 335.148 147.518 335.173 147.854L336.401 164.187C336.426 164.524 336.173 164.817 335.837 164.842C335.821 164.843 335.805 164.843 335.79 164.843Z" fill="#FFDC62"/>
<path d="M326.583 129.523C326.285 129.523 326.023 129.304 325.979 129.001C325.93 128.668 326.161 128.358 326.495 128.309L356.053 123.986C356.387 123.938 356.697 124.168 356.746 124.501C356.795 124.835 356.564 125.145 356.23 125.193L326.673 129.516C326.642 129.521 326.613 129.523 326.583 129.523Z" fill="#FFDC62"/>
<path d="M327.932 165.822L316.381 137.992L319.439 139.213L331.741 163.87L327.932 165.822Z" fill="#3F3D56"/>
<path d="M400 305.257C400 305.54 399.77 305.769 399.486 305.769H43.4224V304.744H399.486C399.77 304.744 400 304.974 400 305.257Z" fill="#E6E6E6"/>
<path d="M273.791 87.6842C275.774 89.5463 278.345 90.0344 279.532 88.7745C280.72 87.5146 280.074 84.9842 278.089 83.1218C277.307 82.3669 276.355 81.81 275.312 81.4978L266.808 73.7139L263.233 77.7741L271.996 85.0166C272.372 86.0361 272.988 86.9508 273.791 87.6842Z" fill="#FFB6B6"/>
<path d="M266.513 47.356C266.513 47.356 256.145 34.4669 252.165 35.4598C247.273 36.6805 248.496 41.563 243.435 54.6213C242.167 57.8916 240.836 61.0612 243.394 63.4653L250.447 70.0937L265.482 82.7444L271.531 76.4257L259.514 60.9623L266.513 47.356Z" fill="#FA6F68"/>
</g>
<defs>
<clipPath id="clip0_61_1823">
<rect width="400" height="320" fill="white"/>
</clipPath>
</defs>
</svg>
