<svg viewBox="0 0 400 320" fill="none" xmlns="http://www.w3.org/2000/svg">
<path d="M51.6805 194.59C51.6536 194.041 51.5024 193.504 51.2376 193.017C50.9729 192.53 50.6009 192.106 50.148 191.773C49.6951 191.44 49.1722 191.208 48.6162 191.091C48.0603 190.975 47.4847 190.978 46.93 191.1L41.7845 184.09L36.6152 186.074L44.0255 195.875C44.2994 196.762 44.9004 197.521 45.7147 198.009C46.529 198.496 47.4999 198.678 48.4435 198.52C49.3871 198.361 50.2378 197.874 50.8344 197.149C51.431 196.425 51.732 195.514 51.6805 194.59Z" fill="#A0616A"/>
<path d="M41.6521 194.07L26.0826 174.543L31.9163 156.818C32.3438 152.362 35.2283 151.118 35.351 151.067L35.5383 150.989L40.6147 164.077L36.8874 173.686L46.036 188.561L41.6521 194.07Z" fill="#3F3D56"/>
<path d="M95.7225 133.875C95.1581 133.944 94.6161 134.131 94.1346 134.424C93.6531 134.717 93.2439 135.108 92.9358 135.57C92.6277 136.032 92.4282 136.554 92.3513 137.099C92.2744 137.644 92.3221 138.199 92.4909 138.724L85.6589 144.225L88.1046 149.055L97.6397 141.154C98.5335 140.822 99.27 140.184 99.7097 139.361C100.149 138.539 100.262 137.589 100.025 136.692C99.7891 135.794 99.2205 135.012 98.4275 134.493C97.6344 133.974 96.672 133.754 95.7225 133.875Z" fill="#A0616A"/>
<path d="M95.9621 143.582L77.028 160.098L58.2973 155.846C53.6685 155.778 52.1621 153.094 52.1002 152.98L52.0057 152.805L65.1102 146.901L75.3082 149.75L89.9414 139.782L95.9621 143.582Z" fill="#3F3D56"/>
<path d="M63.1654 260.997H68.2526L70.6725 242.027L63.1642 242.028L63.1654 260.997Z" fill="#A0616A"/>
<path d="M78.0637 265.563L62.0753 265.564L62.075 259.592L72.5871 259.592C74.0395 259.592 75.4325 260.149 76.4595 261.142C77.4866 262.135 78.0636 263.482 78.0637 264.886L78.0637 265.563Z" fill="#2F2E41"/>
<path d="M42.8328 260.997H47.9201L50.3399 242.027L42.8317 242.028L42.8328 260.997Z" fill="#A0616A"/>
<path d="M57.7311 265.563L41.7427 265.564L41.7424 259.592L52.2545 259.592C52.9737 259.592 53.6858 259.729 54.3502 259.995C55.0146 260.261 55.6184 260.651 56.1269 261.142C56.6354 261.634 57.0389 262.217 57.3141 262.86C57.5893 263.502 57.731 264.191 57.7311 264.886L57.7311 265.563Z" fill="#2F2E41"/>
<path d="M41.0234 191.757L41.4384 219.838L41.8531 256.744L50.9822 255.941L55.5466 204.995L61.356 255.941H70.7807L71.7298 204.594L68.4101 193.361L41.0234 191.757Z" fill="#2F2E41"/>
<path d="M58.8909 195.527C48.9581 195.528 39.815 191.182 39.6916 191.122L39.589 191.072L38.7555 171.733C38.5138 171.05 33.7541 157.565 32.948 153.279C32.1313 148.937 43.9684 145.126 45.4058 144.68L45.732 141.187L58.9969 139.805L60.6782 144.275L65.4371 146C65.9766 146.195 66.4231 146.576 66.6919 147.068C66.9608 147.561 67.0334 148.132 66.896 148.673L64.251 159.071L70.7108 193.474L69.3201 193.532C66.0295 194.905 62.4744 195.585 58.8909 195.527Z" fill="#3F3D56"/>
<path d="M52.8843 137.592C58.1591 137.592 62.4351 133.459 62.4351 128.359C62.4351 123.26 58.1591 119.126 52.8843 119.126C47.6095 119.126 43.3335 123.26 43.3335 128.359C43.3335 133.459 47.6095 137.592 52.8843 137.592Z" fill="#A0616A"/>
<path d="M45.1482 137.297C46.9683 139.172 50.3486 138.166 50.5858 135.605C50.6044 135.406 50.603 135.206 50.5817 135.007C50.4593 133.873 49.7815 132.843 49.9438 131.646C49.9806 131.348 50.0954 131.064 50.2775 130.82C51.728 128.943 55.1328 131.66 56.5016 129.96C57.341 128.918 56.3543 127.277 56.9985 126.112C57.8486 124.575 60.3666 125.333 61.9457 124.491C63.7026 123.554 63.5975 120.948 62.441 119.363C61.0306 117.43 58.5576 116.399 56.1155 116.25C53.6734 116.101 51.2481 116.74 48.9682 117.599C46.3777 118.575 43.8089 119.923 42.2148 122.125C40.2762 124.803 40.0896 128.404 41.0591 131.535C41.6489 133.44 43.6618 135.767 45.1482 137.297Z" fill="#2F2E41"/>
<path d="M327.109 266.092H11.3879C11.285 266.092 11.1863 266.052 11.1136 265.982C11.0409 265.912 11 265.816 11 265.717C11 265.617 11.0409 265.522 11.1136 265.452C11.1863 265.381 11.285 265.342 11.3879 265.342H327.109C327.212 265.342 327.31 265.381 327.383 265.452C327.456 265.522 327.497 265.617 327.497 265.717C327.497 265.816 327.456 265.912 327.383 265.982C327.31 266.052 327.212 266.092 327.109 266.092Z" fill="#CACACA"/>
<path d="M177.068 137.595L176.141 129.403C175.978 127.962 175.56 126.569 174.909 125.306C174.258 124.042 173.387 122.933 172.347 122.04C171.307 121.148 170.118 120.49 168.847 120.104C167.576 119.718 166.249 119.612 164.941 119.792C163.633 119.972 162.37 120.434 161.224 121.152C160.078 121.87 159.072 122.83 158.263 123.977C157.454 125.124 156.857 126.435 156.508 127.836C156.159 129.237 156.063 130.7 156.227 132.142L157.154 140.333C157.198 140.724 157.382 141.08 157.664 141.321C157.946 141.563 158.304 141.672 158.658 141.624L175.897 139.253C176.252 139.204 176.574 139.002 176.794 138.691C177.013 138.38 177.112 137.986 177.068 137.595Z" fill="#2F2E41"/>
<path d="M168.81 140.039C164.747 140.039 161.453 136.408 161.453 131.929C161.453 127.45 164.747 123.819 168.81 123.819C172.873 123.819 176.167 127.45 176.167 131.929C176.167 136.408 172.873 140.039 168.81 140.039Z" fill="#FFB8B8"/>
<path d="M178.571 129.735C178.308 127.433 177.227 125.341 175.567 123.916C173.906 122.491 171.8 121.851 169.712 122.136L168.225 122.34C166.137 122.63 164.239 123.821 162.947 125.652C161.654 127.482 161.073 129.804 161.332 132.106L161.35 132.27L164.491 131.838L165.188 128.384L165.776 131.661L167.399 131.438L167.751 129.695L168.048 131.348L178.589 129.899L178.571 129.735Z" fill="#2F2E41"/>
<path d="M204.792 160.857C204.567 161.344 204.248 161.77 203.858 162.106C203.467 162.442 203.015 162.68 202.532 162.802C202.049 162.925 201.548 162.929 201.063 162.815C200.579 162.7 200.123 162.47 199.728 162.141L193.046 166.456L189.677 162.619L199.191 156.672C199.737 155.977 200.495 155.527 201.322 155.407C202.149 155.287 202.987 155.506 203.678 156.022C204.368 156.538 204.863 157.315 205.068 158.206C205.274 159.097 205.175 160.041 204.792 160.857Z" fill="#FFB8B8"/>
<path d="M182.892 168.611C187.821 168.611 196.494 166.179 196.974 166.043L197.126 166L195.761 158.381L182.513 161.266L175.317 150.094L167.054 149.168L167.285 149.503C167.392 149.658 178.043 165.114 179.701 167.707C180.119 168.361 181.314 168.611 182.892 168.611Z" fill="#3F3D56"/>
<path d="M181.571 197.205L181.768 197.101C181.81 197.079 185.997 194.834 188.166 190.45C190.325 186.088 180.22 167.581 179.513 166.297L179.503 160.42L175.868 149.601L171.232 146.713L175.212 156.951L181.571 197.205Z" fill="#3F3D56"/>
<path d="M186.215 260.372L190.646 260.372L192.753 241.533L186.214 241.534L186.215 260.372Z" fill="#FFB8B8"/>
<path d="M185.085 265.107L199.372 265.106V264.907C199.372 263.281 198.786 261.722 197.743 260.573C196.7 259.423 195.286 258.777 193.811 258.777H193.811L185.085 258.778L185.085 265.107Z" fill="#2F2E41"/>
<path d="M138.624 256.092L142.835 257.613L150.159 240.434L143.945 238.189L138.624 256.092Z" fill="#FFB8B8"/>
<path d="M136.213 260.203L149.789 265.106L149.846 264.917C150.305 263.372 150.188 261.69 149.522 260.239C148.856 258.789 147.694 257.69 146.293 257.183L146.293 257.183L138.001 254.188L136.213 260.203Z" fill="#2F2E41"/>
<path d="M147.203 253.012L159.834 229.768L170.496 204.934L180.091 226.871L183.902 255.282L197.269 255.487L197.217 255.257L176.761 165.658L160.74 168.297L161.469 179.954L161.035 180.635C157.416 186.302 153.674 192.162 155.82 198.478L149.736 218.392L136.269 251.551L147.203 253.012Z" fill="#2F2E41"/>
<path d="M176.029 185.077C178.35 185.077 180.999 182.155 179.625 177.166L179.714 177.095L176.413 161.021C179.294 156.481 175.496 152.734 175.14 152.399L173.328 148.802L165.33 143.211L161.284 180.274L161.344 180.337C164.266 183.419 174.082 185.077 176.029 185.077Z" fill="#FA6F68"/>
<path d="M159.65 193.439C159.968 193.444 160.285 193.407 160.595 193.329C160.906 193.243 161.409 192.806 162.187 190.013C165.281 178.911 168.933 145.504 166.28 142.235L166.219 142.161L161.862 142.961C161.5 142.666 159.6 141.204 157.846 141.458C157.485 141.508 157.137 141.639 156.824 141.844C156.511 142.048 156.239 142.32 156.025 142.645L155.995 142.688L154.607 164.455L149.522 190.07L149.644 190.131C149.94 190.279 156.289 193.439 159.65 193.439Z" fill="#3F3D56"/>
<path d="M162.58 184.932C162.085 184.914 161.599 184.776 161.158 184.529C160.716 184.281 160.329 183.93 160.024 183.5C159.718 183.07 159.502 182.571 159.391 182.039C159.279 181.507 159.275 180.954 159.378 180.42L153.001 175.578L154.725 170.588L163.644 177.566C164.447 177.816 165.138 178.383 165.587 179.157C166.036 179.932 166.212 180.862 166.08 181.77C165.949 182.678 165.52 183.501 164.875 184.084C164.23 184.667 163.413 184.969 162.58 184.932Z" fill="#FFB8B8"/>
<path d="M155.105 179.458L160.786 174.865L152.801 162.862L158.929 150.941L156.187 142.299L156.01 142.671C155.927 142.844 147.744 160.03 146.316 162.784C144.831 165.649 154.59 178.767 155.006 179.324L155.105 179.458Z" fill="#3F3D56"/>
<path d="M140.625 282.055L145.207 282.054L147.387 264.968L140.624 264.968L140.625 282.055Z" fill="#FFB8B8"/>
<path d="M139.456 280.608L148.48 280.607C150.005 280.608 151.468 281.193 152.547 282.236C153.625 283.278 154.231 284.692 154.231 286.167V286.348L139.457 286.348L139.456 280.608Z" fill="#2F2E41"/>
<path d="M98.017 282.055L102.599 282.054L104.779 264.968L98.0163 264.968L98.017 282.055Z" fill="#FFB8B8"/>
<path d="M96.8481 280.608L105.872 280.607C107.397 280.608 108.86 281.193 109.939 282.236C111.017 283.278 111.623 284.692 111.623 286.167V286.348L96.8483 286.348L96.8481 280.608Z" fill="#2F2E41"/>
<path d="M142.451 195.346C142.451 195.346 146.298 205.438 145.748 209.688C145.199 213.937 149.594 243.683 149.045 246.339C148.495 248.995 149.594 262.274 149.045 264.399C148.495 266.524 150.587 269.062 149.488 271.187C148.389 273.311 146.847 277.679 146.847 277.679L139.704 277.148L138.605 271.305C138.605 271.305 135.309 270.773 135.858 267.586C136.408 264.399 133.111 243.152 133.111 243.152L123.77 213.406L110.583 240.496C110.583 240.496 110.034 259.619 108.386 261.743C106.737 263.868 110.034 269.711 108.386 271.836C106.737 273.96 105.089 277.679 105.089 277.679H96.847V273.429C96.847 273.429 91.9019 270.773 96.847 262.806L100.188 214.956L103.485 193.178L142.451 195.346Z" fill="#2F2E41"/>
<path d="M121.969 128.554C127.637 128.554 132.231 124.112 132.231 118.633C132.231 113.154 127.637 108.712 121.969 108.712C116.301 108.712 111.706 113.154 111.706 118.633C111.706 124.112 116.301 128.554 121.969 128.554Z" fill="#FFB8B8"/>
<path d="M130.702 117.949C129.978 119.738 129.254 121.526 128.529 123.315C127.639 125.514 126.62 127.866 124.533 129.093C121.956 130.608 118.516 129.87 116.023 128.228C113.782 126.752 112.061 124.648 111.092 122.199C110.124 119.75 109.954 117.073 110.605 114.527C111.256 111.982 112.697 109.69 114.735 107.96C116.773 106.229 119.31 105.143 122.004 104.847L122.108 106.643L124.387 104.796C124.556 105.076 124.788 105.315 125.066 105.495C125.344 105.676 125.66 105.793 125.992 105.839C126.323 105.884 126.661 105.856 126.98 105.757C127.299 105.658 127.59 105.49 127.832 105.267C127.233 106.467 127.925 107.93 128.923 108.85C130.149 109.979 133.656 111.336 133.51 113.355C133.413 114.702 131.267 116.553 130.702 117.949Z" fill="#2F2E41"/>
<path d="M93.7199 210.021C93.3663 209.511 93.1326 208.932 93.0354 208.325C92.9382 207.718 92.9799 207.098 93.1574 206.508C93.3349 205.918 93.644 205.374 94.0629 204.912C94.4818 204.45 95.0004 204.083 95.582 203.836L95.3769 194.238L101.38 192.695L101.472 206.253C101.837 207.225 101.82 208.293 101.424 209.253C101.029 210.214 100.283 211.001 99.3272 211.466C98.3716 211.93 97.273 212.04 96.2396 211.773C95.2061 211.507 94.3096 210.883 93.7199 210.021Z" fill="#FFB8B8"/>
<path d="M114.345 134.687C114.345 134.687 122.298 130.843 129.809 133.405C137.319 135.968 141.296 138.958 141.296 138.958L136.436 163.731L143.063 197.046C143.063 197.046 109.044 194.483 105.951 197.046C102.859 199.608 102.859 194.056 102.859 194.056L105.509 162.449L100.649 142.375L114.345 134.687Z" fill="#3F3D56"/>
<path d="M147.91 210.589C147.423 210.196 147.03 209.704 146.761 209.147C146.491 208.591 146.351 207.985 146.35 207.371C146.349 206.757 146.488 206.15 146.756 205.593C147.024 205.036 147.415 204.543 147.901 204.148L144.917 194.992L150.23 191.882L154.257 204.869C154.889 205.703 155.182 206.732 155.082 207.762C154.981 208.791 154.494 209.749 153.712 210.454C152.929 211.159 151.907 211.563 150.838 211.587C149.768 211.612 148.727 211.257 147.91 210.589Z" fill="#FFB8B8"/>
<path d="M138.203 138.958H141.296C141.296 138.958 146.156 141.948 146.156 146.219C146.156 150.49 153.225 200.463 153.225 200.463L145.714 201.744L139.087 166.721L134.227 157.324L138.203 138.958Z" fill="#3F3D56"/>
<path d="M109.044 142.374H100.649C100.649 142.374 97.9986 144.937 96.6732 150.916C95.3478 156.896 94.0224 180.387 94.0224 180.387L94.906 201.743H101.533L102.417 173.981L106.835 156.042L109.044 142.374Z" fill="#3F3D56"/>
<path d="M261.906 91.4886C264.059 90.7715 265.202 88.505 264.459 86.4264C263.717 84.3478 261.37 83.2441 259.218 83.9612C257.065 84.6784 255.922 86.9448 256.665 89.0234C257.407 91.1021 259.754 92.2058 261.906 91.4886Z" fill="#FA6F68"/>
<path d="M246.524 49.3507C240.559 51.3838 237.335 57.699 239.309 63.4905C239.327 63.5439 239.46 63.9182 239.635 64.4075C239.891 65.125 240.433 65.7145 241.14 66.0465C241.848 66.3785 242.664 66.4257 243.408 66.1777C243.777 66.0547 244.117 65.8628 244.41 65.613C244.702 65.3632 244.94 65.0604 245.111 64.7218C245.282 64.3833 245.382 64.0157 245.406 63.6401C245.429 63.2644 245.376 62.888 245.249 62.5325C245.129 62.1997 245.047 61.9694 245.042 61.9552C244.724 61.0646 244.651 60.1091 244.832 59.1827C245.013 58.2564 245.441 57.391 246.073 56.6719C246.706 55.9527 247.522 55.4045 248.44 55.0811C249.359 54.7577 250.348 54.6704 251.312 54.8276C252.275 54.9848 253.179 55.3812 253.935 55.9778C254.691 56.5744 255.272 57.3506 255.622 58.2301C255.972 59.1096 256.078 60.0621 255.931 60.9938C255.783 61.9256 255.386 62.8046 254.78 63.5443L254.781 63.5451C254.781 63.5451 251.671 67.355 251.668 71.1613L251.669 71.1612C251.704 71.9292 251.853 72.6882 252.113 73.4146C252.22 73.7133 253.172 76.3204 253.965 78.4297C254.238 79.1574 254.798 79.7519 255.523 80.0848C256.247 80.4177 257.079 80.4623 257.838 80.2091C258.22 80.082 258.572 79.8833 258.874 79.6247C259.176 79.366 259.421 79.0524 259.597 78.7019C259.773 78.3515 259.875 77.971 259.898 77.5825C259.921 77.1939 259.864 76.805 259.73 76.438C259.024 74.4996 258.21 72.24 258.151 72.0758C257.405 69.9878 258.752 67.211 259.984 65.2824C261.403 63.0614 262.065 60.4584 261.779 57.8665C261.729 57.3299 261.617 56.8003 261.447 56.2873C260.946 54.8832 260.161 53.5891 259.138 52.4794C258.115 51.3697 256.874 50.4665 255.487 49.8217C254.1 49.1769 252.594 48.8033 251.056 48.7225C249.517 48.6416 247.977 48.8551 246.524 49.3507Z" fill="#FA6F68"/>
<path d="M82.9494 90.5859C85.6194 89.6963 87.0372 86.885 86.1163 84.3065C85.1953 81.7281 82.2843 80.359 79.6144 81.2486C76.9444 82.1382 75.5266 84.9496 76.4475 87.528C77.3685 90.1064 80.2795 91.4755 82.9494 90.5859Z" fill="#FA6F68"/>
<path d="M63.8686 38.3162C56.4687 40.8383 52.4701 48.6719 54.9182 55.8559C54.9408 55.9222 55.1061 56.3865 55.323 56.9934C55.6409 57.8834 56.3126 58.6147 57.1903 59.0265C58.0681 59.4383 59.0799 59.4969 60.0034 59.1893C60.4611 59.0367 60.8833 58.7987 61.2458 58.4888C61.6082 58.1789 61.9039 57.8033 62.116 57.3834C62.328 56.9634 62.4522 56.5074 62.4814 56.0415C62.5107 55.5755 62.4444 55.1086 62.2864 54.6676C62.1386 54.2548 62.0363 53.969 62.03 53.9515C61.6352 52.8467 61.5455 51.6615 61.7698 50.5124C61.9942 49.3633 62.5248 48.2899 63.3095 47.3978C64.0942 46.5057 65.106 45.8257 66.2453 45.4245C67.3846 45.0234 68.6122 44.915 69.8073 45.1101C71.0024 45.3051 72.1239 45.7968 73.0614 46.5368C73.9989 47.2769 74.7202 48.2397 75.1543 49.3307C75.5884 50.4217 75.7203 51.6032 75.5371 52.759C75.3538 53.9148 74.8618 55.0051 74.1094 55.9227L74.1111 55.9237C74.1111 55.9237 70.2537 60.6497 70.2495 65.3712L70.2509 65.3711C70.2938 66.3237 70.4795 67.2652 70.802 68.1663C70.9343 68.5367 72.1147 71.7708 73.0982 74.3872C73.4377 75.2899 74.1318 76.0273 75.0308 76.4402C75.9298 76.8532 76.9615 76.9086 77.9035 76.5945C78.3768 76.4368 78.8132 76.1904 79.1877 75.8695C79.5621 75.5487 79.8671 75.1597 80.0852 74.7249C80.3033 74.2902 80.4301 73.8182 80.4584 73.3363C80.4867 72.8543 80.4158 72.3718 80.25 71.9166C79.3742 69.5122 78.3639 66.7092 78.2911 66.5056C77.366 63.9155 79.0367 60.4711 80.5651 58.0787C82.3252 55.3237 83.1465 52.0948 82.7912 48.8796C82.729 48.214 82.5912 47.5571 82.3802 46.9208C81.7581 45.1791 80.7845 43.5737 79.5157 42.1973C78.2468 40.8208 76.7077 39.7003 74.987 38.9005C73.2663 38.1007 71.398 37.6373 69.4898 37.537C67.5816 37.4367 65.6712 37.7016 63.8686 38.3162Z" fill="#FA6F68"/>
<path d="M158.302 90.1765C160.91 91.2228 163.903 90.0291 164.986 87.5102C166.069 84.9913 164.833 82.1011 162.225 81.0547C159.617 80.0084 156.624 81.2021 155.541 83.721C154.457 86.2399 155.694 89.1301 158.302 90.1765Z" fill="#FA6F68"/>
<path d="M179.954 38.8491C172.686 35.9913 164.312 39.2868 161.205 46.2294C161.177 46.2935 160.981 46.7467 160.726 47.3397C160.352 48.2092 160.352 49.1868 160.726 50.0575C161.099 50.9282 161.816 51.6207 162.718 51.9827C163.165 52.162 163.644 52.2546 164.128 52.2552C164.612 52.2558 165.092 52.1645 165.539 51.9863C165.986 51.8082 166.392 51.5467 166.735 51.217C167.077 50.8872 167.348 50.4955 167.533 50.0644C167.706 49.6609 167.826 49.3816 167.833 49.3644C168.297 48.285 169.045 47.341 170.002 46.6254C170.96 45.9098 172.094 45.4472 173.294 45.283C174.494 45.1189 175.718 45.2589 176.846 45.6893C177.974 46.1197 178.967 46.8256 179.726 47.7377C180.486 48.6497 180.987 49.7365 181.18 50.891C181.372 52.0455 181.25 53.2281 180.825 54.3223C180.4 55.4166 179.686 56.3848 178.755 57.1318C177.824 57.8789 176.706 58.3789 175.513 58.5828L175.514 58.5846C175.514 58.5846 169.381 59.6464 166.132 63.175L166.134 63.1758C165.511 63.9159 165.003 64.7391 164.625 65.6197C164.469 65.9817 163.129 69.1573 162.067 71.7447C161.7 72.6375 161.713 73.634 162.101 74.5192C162.49 75.4044 163.223 76.1073 164.144 76.4762C164.606 76.6617 165.102 76.7572 165.603 76.7573C166.103 76.7574 166.599 76.662 167.06 76.4766C167.522 76.2913 167.942 76.0196 168.294 75.6773C168.646 75.3349 168.925 74.9287 169.114 74.4818C170.111 72.122 171.282 69.3779 171.367 69.179C172.456 66.6487 176.072 65.1436 178.86 64.3341C182.07 63.4019 184.903 61.5135 186.847 58.881C187.258 58.3433 187.606 57.7636 187.886 57.1524C188.617 55.4509 188.993 53.6261 188.99 51.7831C188.986 49.9401 188.605 48.1154 187.868 46.414C187.131 44.7127 186.052 43.1683 184.694 41.87C183.335 40.5716 181.724 39.545 179.954 38.8491Z" fill="#FA6F68"/>
<path d="M333.862 236.935C333.782 236.837 333.703 236.74 333.625 236.642C333.546 236.544 333.468 236.446 333.391 236.347C333.313 236.249 333.236 236.15 333.159 236.051C333.081 235.952 333.005 235.852 332.928 235.752C332.801 232.883 332.799 230.038 332.923 227.219C333.044 224.42 333.29 221.655 333.659 218.923C334.023 216.211 334.507 213.542 335.108 210.914C335.705 208.307 336.416 205.749 337.242 203.239C337.336 202.95 337.432 202.662 337.53 202.375C337.627 202.088 337.727 201.803 337.828 201.52C337.928 201.235 338.031 200.952 338.135 200.67C338.239 200.388 338.345 200.107 338.452 199.827C339.248 197.732 340.123 195.688 341.079 193.696C342.028 191.717 343.053 189.793 344.154 187.924C345.246 186.068 346.411 184.269 347.648 182.527C348.876 180.798 350.172 179.13 351.537 177.522L351.752 177.27L351.968 177.019L352.185 176.77L352.402 176.521L352.558 176.343L352.716 176.166C352.769 176.107 352.823 176.048 352.876 175.99C352.929 175.931 352.983 175.873 353.039 175.816L353.168 175.748L353.297 175.68L353.425 175.612L353.553 175.544L353.561 175.542L353.569 175.538L353.577 175.534L353.586 175.532L353.637 175.504L353.688 175.477L353.738 175.449L353.787 175.422L354.01 175.306L354.232 175.193L354.454 175.079L354.674 174.965L354.506 174.883L354.084 174.68L354.087 174.679C354.123 174.694 354.159 174.71 354.194 174.726C354.23 174.743 354.266 174.759 354.302 174.774C354.338 174.791 354.374 174.807 354.409 174.823C354.445 174.839 354.48 174.856 354.516 174.873L354.557 174.89L354.598 174.907L354.64 174.924C354.654 174.929 354.668 174.936 354.68 174.943C354.692 174.949 354.704 174.954 354.717 174.958L354.753 174.973L354.79 174.988L354.826 175.003C356.364 175.684 357.906 176.375 359.429 177.1C360.951 177.825 362.45 178.581 363.908 179.394C365.363 180.2 366.772 181.081 368.131 182.03C369.486 182.975 370.768 184.014 371.968 185.137C373.234 186.332 374.366 187.652 375.346 189.076C376.316 190.474 377.113 191.978 377.721 193.555C378.307 195.056 378.656 196.633 378.756 198.235C378.853 199.775 378.629 201.318 378.097 202.773C378.025 202.963 377.947 203.15 377.864 203.334C377.781 203.518 377.692 203.7 377.598 203.879C377.503 204.058 377.404 204.233 377.298 204.406C377.192 204.578 377.082 204.748 376.966 204.914C376.917 204.983 376.868 205.052 376.818 205.12C376.767 205.188 376.716 205.255 376.664 205.322C376.613 205.389 376.56 205.456 376.507 205.522C376.454 205.588 376.4 205.654 376.346 205.719C375.338 206.942 374.058 207.93 372.6 208.609C371.135 209.285 369.542 209.667 367.919 209.73C366.213 209.799 364.509 209.56 362.894 209.026C361.162 208.454 359.552 207.582 358.144 206.452C357.658 206.064 357.197 205.647 356.764 205.203C356.335 204.764 355.934 204.299 355.565 203.812C355.199 203.329 354.865 202.823 354.564 202.3C354.266 201.78 354.004 201.242 353.778 200.689C353.672 202.406 353.947 204.125 354.587 205.731C355.262 207.419 356.179 209.006 357.312 210.447C358.508 211.982 359.836 213.417 361.28 214.737C362.734 216.084 364.279 217.346 365.805 218.509C367.331 219.672 368.911 220.861 370.44 222.101C371.968 223.321 373.423 224.624 374.797 226.003C376.129 227.336 377.308 228.805 378.312 230.384C379.299 231.942 380.012 233.647 380.423 235.43C380.863 237.373 380.84 239.386 380.358 241.319C380.123 242.259 379.789 243.173 379.36 244.047C378.928 244.929 378.41 245.768 377.814 246.555L377.758 246.627L377.702 246.699L377.645 246.77L377.587 246.841C376.132 248.678 374.305 250.211 372.217 251.345C371.166 251.915 370.058 252.382 368.911 252.739C367.736 253.104 366.526 253.356 365.3 253.489C362.967 253.697 360.615 253.567 358.322 253.104C355.96 252.626 353.664 251.884 351.481 250.893C349.223 249.873 347.065 248.658 345.033 247.264C342.982 245.863 341.041 244.318 339.225 242.642C338.742 242.198 338.269 241.746 337.803 241.285C337.338 240.824 336.882 240.356 336.434 239.88C335.986 239.404 335.548 238.921 335.12 238.43C334.692 237.939 334.273 237.441 333.862 236.935Z" fill="#F2F2F2"/>
<path d="M371.372 203.686C369.93 202.963 368.544 202.141 367.223 201.227C364.586 199.401 362.23 197.223 360.225 194.759C359.231 193.536 358.331 192.245 357.532 190.896C356.865 189.756 356.273 188.576 355.759 187.365C355.257 186.182 354.836 184.97 354.497 183.735C354.165 182.529 353.918 181.303 353.758 180.065C353.6 178.852 353.531 177.63 353.551 176.408C353.552 176.339 353.554 176.27 353.556 176.202C353.557 176.134 353.559 176.066 353.561 175.997C353.562 175.928 353.565 175.86 353.569 175.793L353.579 175.589C353.519 175.636 353.458 175.682 353.398 175.729L353.218 175.871L353.038 176.014L352.859 176.157L352.744 176.249L352.629 176.342L352.514 176.435L352.4 176.528L352.557 176.351L352.717 176.167C352.77 176.108 352.824 176.049 352.877 175.991C352.93 175.932 352.985 175.875 353.04 175.817L353.169 175.749L353.298 175.681L353.424 175.613L353.552 175.546L353.56 175.543L353.568 175.54L353.576 175.536L353.584 175.533L353.636 175.506L353.687 175.478L353.737 175.451L353.785 175.423L354.008 175.308L354.231 175.194L354.453 175.081L354.675 174.967L354.501 174.884L354.079 174.68L354.082 174.679C354.118 174.694 354.154 174.71 354.19 174.726C354.225 174.743 354.261 174.759 354.297 174.774C354.334 174.791 354.369 174.807 354.404 174.823C354.44 174.839 354.475 174.856 354.511 174.873L354.552 174.89L354.593 174.907L354.635 174.924C354.649 174.929 354.662 174.936 354.675 174.943L354.672 175.008L354.667 175.069L354.663 175.129L354.66 175.19C354.504 177.249 354.615 179.318 354.99 181.35C355.376 183.442 356.01 185.484 356.878 187.436C357.776 189.457 358.897 191.377 360.224 193.164C361.595 195.012 363.165 196.714 364.909 198.242C366.664 199.757 368.578 201.092 370.621 202.223C371.63 202.781 372.669 203.287 373.733 203.739C374.789 204.187 375.868 204.579 376.968 204.913C376.919 204.983 376.87 205.051 376.819 205.119C376.769 205.187 376.718 205.255 376.666 205.322C376.614 205.388 376.562 205.455 376.509 205.521C376.456 205.588 376.402 205.653 376.347 205.719C375.924 205.583 375.502 205.439 375.082 205.286C374.663 205.133 374.245 204.972 373.83 204.802C373.415 204.632 373.003 204.454 372.593 204.268C372.183 204.081 371.776 203.887 371.372 203.686Z" fill="white"/>
<path d="M342.83 219.071C342.358 218.391 341.912 217.697 341.493 216.991C341.074 216.285 340.682 215.569 340.318 214.843C339.954 214.117 339.618 213.382 339.309 212.638C339 211.894 338.721 211.143 338.471 210.386C338.343 209.984 338.225 209.581 338.117 209.177C338.009 208.773 337.911 208.367 337.823 207.962C337.735 207.556 337.657 207.149 337.589 206.742C337.521 206.334 337.464 205.927 337.417 205.52C337.393 205.33 337.372 205.14 337.353 204.95C337.334 204.76 337.317 204.57 337.303 204.38C337.288 204.189 337.276 203.999 337.265 203.809C337.255 203.62 337.247 203.43 337.241 203.241C337.335 202.952 337.431 202.663 337.528 202.376C337.626 202.089 337.725 201.804 337.825 201.519C337.926 201.235 338.029 200.951 338.133 200.669C338.237 200.387 338.343 200.106 338.451 199.826C338.427 200.061 338.407 200.296 338.39 200.532C338.374 200.767 338.36 201.004 338.351 201.241C338.341 201.478 338.334 201.716 338.331 201.954C338.329 202.192 338.329 202.431 338.333 202.67C338.332 202.801 338.334 202.931 338.336 203.061C338.339 203.192 338.343 203.322 338.347 203.453C338.352 203.583 338.358 203.713 338.365 203.844C338.372 203.974 338.38 204.105 338.389 204.235C338.493 205.698 338.73 207.149 339.099 208.572C339.473 210.012 339.96 211.422 340.556 212.789C341.164 214.184 341.865 215.538 342.655 216.844C343.458 218.174 344.336 219.459 345.285 220.695C346.307 222.03 347.387 223.329 348.525 224.593C349.663 225.857 350.845 227.087 352.07 228.282C353.295 229.476 354.557 230.633 355.855 231.753C357.152 232.873 358.472 233.954 359.813 234.996C361.186 236.067 362.587 237.096 364.016 238.086C365.445 239.075 366.897 240.02 368.372 240.923C369.847 241.825 371.344 242.683 372.863 243.497C374.382 244.311 375.918 245.079 377.472 245.8C377.543 245.834 377.608 245.88 377.662 245.936C377.715 245.99 377.758 246.054 377.789 246.122C377.82 246.19 377.838 246.263 377.843 246.337C377.847 246.412 377.837 246.486 377.813 246.557C377.805 246.588 377.794 246.617 377.779 246.646C377.766 246.673 377.749 246.7 377.73 246.724C377.711 246.748 377.689 246.77 377.665 246.79C377.641 246.81 377.615 246.827 377.588 246.841C377.559 246.854 377.528 246.863 377.496 246.869C377.465 246.874 377.433 246.876 377.401 246.874C377.368 246.872 377.336 246.866 377.304 246.856C377.272 246.847 377.241 246.834 377.211 246.818C377.019 246.729 376.827 246.64 376.636 246.55C376.444 246.46 376.252 246.37 376.062 246.28C375.87 246.189 375.679 246.097 375.489 246.005C375.298 245.912 375.108 245.818 374.918 245.723C373.335 244.938 371.772 244.105 370.231 243.225C368.69 242.346 367.172 241.42 365.677 240.449C364.183 239.477 362.716 238.462 361.275 237.404C359.835 236.345 358.425 235.245 357.046 234.102C355.713 233.002 354.398 231.865 353.114 230.689C351.83 229.513 350.578 228.299 349.373 227.047C348.168 225.794 347.01 224.504 345.914 223.174C344.818 221.845 343.786 220.478 342.83 219.071Z" fill="white"/>
<path d="M372.658 109.791L371.524 109.933L379.128 82.367C379.689 80.5263 379.78 78.5821 379.394 76.7C379.06 75.1621 378.232 73.7651 377.029 72.7071C375.769 71.6493 374.225 70.9571 372.575 70.7105C370.566 70.4099 368.514 70.4986 366.54 70.9715L314.858 82.3392C313.054 82.7619 311.327 83.4479 309.738 84.3736C308.009 85.3665 306.401 86.544 304.944 87.8838C303.446 89.25 302.1 90.7651 300.931 92.4039C299.789 93.9902 298.858 95.7089 298.159 97.5197L244.084 241.171C243.185 243.533 242.601 245.996 242.346 248.5C242.109 250.724 242.221 252.969 242.677 255.16C243.058 257.064 243.854 258.868 245.011 260.452C246.073 261.893 247.568 262.983 249.294 263.573L303.9 281.729C306.326 282.527 308.93 282.676 311.436 282.162C314.116 281.598 316.636 280.478 318.822 278.878C321.276 277.097 323.386 274.912 325.056 272.424C326.906 269.691 328.288 266.688 329.149 263.531L365.759 130.827L366.907 130.738L372.658 109.791Z" fill="#2F2E41"/>
<path d="M368.708 108.265L367.573 108.407L375.178 80.8407C375.738 79 375.83 77.0557 375.444 75.1736C375.109 73.6358 374.282 72.2387 373.079 71.1807C371.819 70.1229 370.275 69.4307 368.625 69.1841C366.615 68.8835 364.564 68.9723 362.59 69.4451L310.907 80.8128C309.104 81.2355 307.377 81.9215 305.787 82.8472C304.058 83.8402 302.45 85.0176 300.994 86.3574C299.495 87.7236 298.15 89.2387 296.981 90.8776C295.838 92.4638 294.907 94.1826 294.209 95.9933L240.134 239.644C239.235 242.006 238.651 244.469 238.395 246.974C238.159 249.197 238.271 251.442 238.727 253.634C239.108 255.538 239.903 257.342 241.061 258.926C242.122 260.367 243.618 261.456 245.344 262.046L299.95 280.202C302.375 281 304.979 281.15 307.486 280.636C310.166 280.072 312.686 278.951 314.871 277.351C317.325 275.57 319.436 273.386 321.106 270.898C322.955 268.165 324.337 265.162 325.199 262.004L361.808 129.3L362.957 129.211L368.708 108.265Z" fill="#3F3D56"/>
<path d="M362.133 73.0421L354.536 74.6495C354.619 75.2844 354.553 75.9291 354.344 76.5363C354.108 77.2464 353.764 77.9193 353.325 78.5333C352.338 79.9271 351.019 81.0729 349.48 81.8752C349.296 81.9698 349.112 82.0572 348.929 82.1373C348.746 82.2174 348.563 82.2902 348.38 82.3556C348.198 82.4209 348.017 82.4787 347.837 82.5288C347.657 82.5789 347.479 82.6211 347.303 82.6555L317.6 88.4645C317.049 88.5881 316.475 88.5819 315.927 88.4462C315.486 88.3318 315.097 88.0786 314.821 87.7266C314.543 87.3486 314.386 86.9002 314.37 86.4369C314.347 85.846 314.444 85.2565 314.655 84.7013C314.707 84.5515 314.768 84.4006 314.835 84.2488C314.902 84.0969 314.976 83.9451 315.055 83.7932C315.134 83.6406 315.221 83.4887 315.314 83.3377C315.408 83.1866 315.506 83.0356 315.61 82.8848L309.986 84.0748C308.631 84.3816 307.334 84.8887 306.14 85.5781C304.835 86.3205 303.621 87.2038 302.523 88.2107C301.39 89.2395 300.374 90.382 299.493 91.6187C298.633 92.8138 297.934 94.1096 297.413 95.475L243.439 240.374C242.768 242.155 242.337 244.011 242.157 245.898C241.99 247.564 242.088 249.244 242.448 250.881C242.747 252.296 243.358 253.632 244.24 254.798C245.048 255.856 246.175 256.647 247.466 257.063L302.474 274.323C304.289 274.885 306.226 274.969 308.086 274.566C310.067 274.128 311.927 273.285 313.542 272.094C315.348 270.773 316.902 269.159 318.137 267.325C319.503 265.309 320.528 263.097 321.173 260.771L371.433 81.6425C371.855 80.2751 371.933 78.8303 371.661 77.4279C371.425 76.2787 370.823 75.2293 369.94 74.4263C369.014 73.6235 367.871 73.0914 366.644 72.8921C365.145 72.649 363.611 72.7 362.133 73.0421Z" fill="white"/>
<path d="M332.633 141.668H223.208V105.854H332.633V141.668Z" fill="white"/>
<path d="M300.642 154.309H193.398V204.518H300.642V154.309Z" fill="white"/>
<path d="M228.736 165.932C228.393 165.932 228.065 166.063 227.822 166.297C227.58 166.532 227.443 166.849 227.443 167.18C227.443 167.512 227.58 167.829 227.822 168.063C228.065 168.298 228.393 168.429 228.736 168.429H289.687C290.029 168.428 290.357 168.296 290.599 168.062C290.841 167.828 290.977 167.511 290.977 167.18C290.977 166.85 290.841 166.533 290.599 166.298C290.357 166.064 290.029 165.932 289.687 165.932H228.736Z" fill="#E6E6E6"/>
<path d="M228.736 173.424C228.566 173.423 228.398 173.455 228.241 173.517C228.084 173.58 227.941 173.671 227.82 173.787C227.7 173.903 227.604 174.04 227.539 174.192C227.473 174.343 227.439 174.506 227.439 174.67C227.439 174.834 227.472 174.997 227.536 175.148C227.601 175.3 227.696 175.438 227.816 175.554C227.936 175.67 228.079 175.763 228.236 175.826C228.393 175.889 228.561 175.921 228.731 175.921H254.963C255.133 175.921 255.301 175.889 255.458 175.826C255.615 175.763 255.758 175.671 255.878 175.556C255.998 175.44 256.093 175.302 256.158 175.15C256.223 174.999 256.256 174.837 256.256 174.673C256.256 174.509 256.223 174.346 256.158 174.195C256.093 174.043 255.998 173.906 255.878 173.79C255.758 173.674 255.615 173.582 255.458 173.519C255.301 173.456 255.133 173.424 254.963 173.424H228.736Z" fill="#E6E6E6"/>
<path d="M204.87 185.402C203.887 185.402 203.087 185.963 203.087 186.651C203.087 187.34 203.887 187.9 204.87 187.9H288.963C289.947 187.9 290.747 187.34 290.747 186.651C290.747 185.963 289.947 185.402 288.963 185.402H204.87Z" fill="#E6E6E6"/>
<path d="M204.87 192.895C203.887 192.895 203.087 193.455 203.087 194.143C203.087 194.832 203.887 195.392 204.87 195.392H269.606C270.59 195.392 271.39 194.832 271.39 194.143C271.39 193.455 270.59 192.895 269.606 192.895H204.87Z" fill="#E6E6E6"/>
<path d="M301.733 205.571H192.308V153.255H301.733V205.571ZM194.489 203.465H299.551V155.362H194.489V203.465Z" fill="#E6E6E6"/>
<path d="M259.637 118.531C259.294 118.531 258.965 118.663 258.723 118.897C258.48 119.131 258.344 119.449 258.344 119.78C258.344 120.111 258.48 120.429 258.723 120.663C258.965 120.897 259.294 121.029 259.637 121.029H320.588C320.93 121.028 321.258 120.896 321.5 120.662C321.742 120.428 321.877 120.111 321.877 119.78C321.877 119.449 321.742 119.132 321.5 118.898C321.258 118.664 320.93 118.532 320.588 118.531H259.637Z" fill="#E6E6E6"/>
<path d="M259.637 126.023C259.467 126.023 259.299 126.055 259.142 126.117C258.984 126.179 258.841 126.271 258.721 126.387C258.6 126.502 258.505 126.64 258.439 126.791C258.374 126.943 258.34 127.105 258.34 127.27C258.339 127.434 258.373 127.596 258.437 127.748C258.502 127.9 258.597 128.038 258.717 128.154C258.837 128.27 258.98 128.362 259.136 128.425C259.293 128.488 259.462 128.521 259.632 128.521H307.592C307.934 128.521 308.263 128.389 308.506 128.155C308.748 127.921 308.884 127.603 308.884 127.272C308.884 126.941 308.748 126.623 308.506 126.389C308.263 126.155 307.934 126.023 307.592 126.023H259.637Z" fill="#E6E6E6"/>
<path d="M332.633 141.668H223.208V105.854H332.633V141.668ZM225.39 139.562H330.452V107.961H225.39V139.562Z" fill="#E6E6E6"/>
<path d="M374.15 167.242C374.467 167.23 374.783 167.282 375.078 167.394C375.358 167.503 375.612 167.666 375.823 167.873C376.036 168.082 376.202 168.331 376.311 168.604C376.426 168.894 376.478 169.203 376.465 169.513C376.452 169.831 376.376 170.143 376.239 170.433C376.106 170.717 375.921 170.976 375.693 171.196C375.466 171.415 375.199 171.593 374.906 171.72C374.609 171.849 374.288 171.919 373.963 171.928C373.646 171.937 373.33 171.883 373.036 171.767C372.757 171.657 372.505 171.493 372.295 171.285C372.085 171.075 371.921 170.827 371.813 170.554C371.7 170.265 371.649 169.957 371.663 169.649C371.676 169.333 371.753 169.022 371.888 168.733C372.02 168.452 372.204 168.196 372.43 167.977C372.655 167.758 372.92 167.581 373.211 167.453C373.506 167.324 373.826 167.252 374.15 167.242Z" fill="#F2F2F2"/>
<path d="M252.826 115.812H237.232V124.101H252.826V115.812Z" fill="#8BBE4D"/>
<path d="M252.827 115.812H245.006V124.101H252.827V115.812Z" fill="#5A9449"/>
<path d="M245.029 122.85C246.684 122.85 248.026 121.555 248.026 119.956C248.026 118.358 246.684 117.062 245.029 117.062C243.375 117.062 242.033 118.358 242.033 119.956C242.033 121.555 243.375 122.85 245.029 122.85Z" fill="#528443"/>
<path d="M253.548 124.101V115.812C253.548 115.427 253.225 115.115 252.827 115.115H237.232C236.834 115.115 236.51 115.427 236.51 115.812V124.101C236.51 124.486 236.834 124.798 237.232 124.798H252.827C253.225 124.798 253.548 124.486 253.548 124.101ZM237.954 121.292V118.621C239.029 118.364 239.875 117.548 240.14 116.509H249.918C250.184 117.548 251.03 118.364 252.105 118.621V121.292C251.03 121.549 250.184 122.366 249.918 123.404H240.14C239.875 122.366 239.029 121.549 237.954 121.292Z" fill="#528443"/>
<path d="M252.827 115.115H245.029V116.509H249.918C250.184 117.548 251.03 118.364 252.105 118.621V121.292C251.03 121.549 250.184 122.366 249.918 123.404H245.029V124.798H252.827C253.225 124.798 253.548 124.486 253.548 124.101V115.812C253.548 115.427 253.225 115.115 252.827 115.115Z" fill="#366626"/>
<path d="M245.029 117.062V122.85C246.684 122.85 248.026 121.555 248.026 119.956C248.026 118.358 246.684 117.062 245.029 117.062Z" fill="#366626"/>
<path d="M250.078 118.558H234.484V126.847H250.078V118.558Z" fill="#8BBE4D"/>
<path d="M249.999 118.634H242.179V126.923H249.999V118.634Z" fill="#5A9449"/>
<path d="M242.202 125.672C243.857 125.672 245.198 124.376 245.198 122.778C245.198 121.179 243.857 119.884 242.202 119.884C240.547 119.884 239.206 121.179 239.206 122.778C239.206 124.376 240.547 125.672 242.202 125.672Z" fill="#528443"/>
<path d="M250.721 126.922V118.634C250.721 118.249 250.398 117.937 249.999 117.937H234.405C234.006 117.937 233.683 118.249 233.683 118.634V126.922C233.683 127.307 234.006 127.619 234.405 127.619H249.999C250.398 127.62 250.721 127.307 250.721 126.922ZM235.127 124.114V121.442C236.201 121.186 237.047 120.369 237.313 119.331H247.091C247.357 120.369 248.203 121.186 249.278 121.442V124.114C248.203 124.37 247.357 125.187 247.091 126.225H237.313C237.047 125.187 236.201 124.37 235.127 124.114Z" fill="#528443"/>
<path d="M249.999 117.937H242.202V119.331H247.091C247.357 120.369 248.203 121.186 249.278 121.442V124.114C248.203 124.37 247.357 125.187 247.091 126.225H242.202V127.62H249.999C250.398 127.62 250.721 127.307 250.721 126.922V118.634C250.721 118.249 250.398 117.937 249.999 117.937Z" fill="#366626"/>
<path d="M242.202 119.884V125.672C243.857 125.672 245.198 124.376 245.198 122.778C245.198 121.179 243.857 119.884 242.202 119.884Z" fill="#366626"/>
<path d="M247.3 121.201H231.706V129.49H247.3V121.201Z" fill="#8BBE4D"/>
<path d="M247.221 121.278H239.4V129.567H247.221V121.278Z" fill="#5A9449"/>
<path d="M239.424 128.316C241.078 128.316 242.42 127.021 242.42 125.422C242.42 123.824 241.078 122.528 239.424 122.528C237.769 122.528 236.427 123.824 236.427 125.422C236.427 127.021 237.769 128.316 239.424 128.316Z" fill="#528443"/>
<path d="M247.943 129.567V121.278C247.943 120.893 247.62 120.581 247.221 120.581H231.626C231.228 120.581 230.905 120.893 230.905 121.278V129.567C230.905 129.952 231.228 130.264 231.626 130.264H247.221C247.62 130.264 247.943 129.952 247.943 129.567ZM232.348 126.758V124.087C233.423 123.83 234.269 123.013 234.535 121.975H244.313C244.579 123.013 245.424 123.83 246.499 124.087V126.758C245.424 127.015 244.579 127.832 244.313 128.87H234.535C234.269 127.832 233.423 127.015 232.348 126.758Z" fill="#528443"/>
<path d="M247.221 120.581H239.424V121.975H244.313C244.579 123.013 245.424 123.83 246.499 124.087V126.758C245.424 127.015 244.579 127.832 244.313 128.87H239.424V130.264H247.221C247.62 130.264 247.943 129.952 247.943 129.567V121.278C247.943 120.893 247.62 120.581 247.221 120.581Z" fill="#366626"/>
<path d="M239.424 122.528V128.316C241.079 128.316 242.42 127.021 242.42 125.422C242.42 123.824 241.079 122.528 239.424 122.528Z" fill="#366626"/>
<path d="M222.463 161.541H206.869V169.83H222.463V161.541Z" fill="#8BBE4D"/>
<path d="M222.464 161.541H214.643V169.83H222.464V161.541Z" fill="#5A9449"/>
<path d="M214.666 168.579C216.321 168.579 217.663 167.283 217.663 165.685C217.663 164.087 216.321 162.791 214.666 162.791C213.011 162.791 211.67 164.087 211.67 165.685C211.67 167.283 213.011 168.579 214.666 168.579Z" fill="#528443"/>
<path d="M223.185 169.83V161.541C223.185 161.156 222.862 160.844 222.464 160.844H206.869C206.47 160.844 206.147 161.156 206.147 161.541V169.83C206.147 170.215 206.47 170.527 206.869 170.527H222.464C222.862 170.527 223.185 170.215 223.185 169.83ZM207.591 167.021V164.35C208.666 164.093 209.511 163.276 209.777 162.238H219.555C219.821 163.276 220.667 164.093 221.742 164.35V167.021C220.667 167.278 219.821 168.094 219.555 169.133H209.777C209.511 168.094 208.666 167.278 207.591 167.021Z" fill="#528443"/>
<path d="M222.464 160.844H214.666V162.238H219.555C219.821 163.276 220.667 164.093 221.742 164.35V167.021C220.667 167.278 219.821 168.094 219.555 169.133H214.666V170.527H222.464C222.862 170.527 223.185 170.215 223.185 169.83V161.541C223.185 161.156 222.862 160.844 222.464 160.844Z" fill="#366626"/>
<path d="M214.666 162.791V168.579C216.321 168.579 217.663 167.283 217.663 165.685C217.663 164.087 216.321 162.791 214.666 162.791Z" fill="#366626"/>
<path d="M219.715 164.285H204.121V172.574H219.715V164.285Z" fill="#8BBE4D"/>
<path d="M219.636 164.362H211.816V172.651H219.636V164.362Z" fill="#5A9449"/>
<path d="M211.839 171.4C213.494 171.4 214.835 170.105 214.835 168.506C214.835 166.908 213.494 165.612 211.839 165.612C210.184 165.612 208.843 166.908 208.843 168.506C208.843 170.105 210.184 171.4 211.839 171.4Z" fill="#528443"/>
<path d="M220.358 172.651V164.362C220.358 163.977 220.035 163.665 219.636 163.665H204.042C203.643 163.665 203.32 163.977 203.32 164.362V172.651C203.32 173.036 203.643 173.348 204.042 173.348H219.636C220.035 173.348 220.358 173.036 220.358 172.651ZM204.763 169.842V167.171C205.838 166.914 206.684 166.097 206.95 165.059H216.728C216.994 166.097 217.84 166.914 218.914 167.171V169.842C217.84 170.099 216.994 170.916 216.728 171.954H206.95C206.684 170.916 205.838 170.099 204.763 169.842Z" fill="#528443"/>
<path d="M219.636 163.665H211.839V165.059H216.728C216.994 166.097 217.84 166.914 218.914 167.171V169.842C217.84 170.099 216.994 170.916 216.728 171.954H211.839V173.348H219.636C220.035 173.348 220.358 173.036 220.358 172.651V164.362C220.358 163.977 220.035 163.665 219.636 163.665Z" fill="#366626"/>
<path d="M211.839 165.612V171.4C213.494 171.4 214.835 170.105 214.835 168.506C214.835 166.908 213.494 165.612 211.839 165.612Z" fill="#366626"/>
<path d="M216.937 166.929H201.342V175.218H216.937V166.929Z" fill="#8BBE4D"/>
<path d="M216.858 167.006H209.037V175.295H216.858V167.006Z" fill="#5A9449"/>
<path d="M209.06 174.044C210.715 174.044 212.057 172.748 212.057 171.15C212.057 169.552 210.715 168.256 209.06 168.256C207.406 168.256 206.064 169.552 206.064 171.15C206.064 172.748 207.406 174.044 209.06 174.044Z" fill="#528443"/>
<path d="M217.58 175.294V167.006C217.58 166.621 217.257 166.309 216.858 166.309H201.263C200.865 166.309 200.542 166.621 200.542 167.006V175.294C200.542 175.679 200.865 175.992 201.263 175.992H216.858C217.256 175.992 217.58 175.679 217.58 175.294ZM201.985 172.486V169.814C203.06 169.558 203.906 168.741 204.172 167.703H213.95C214.216 168.741 215.061 169.558 216.136 169.814V172.486C215.061 172.742 214.216 173.559 213.95 174.597H204.172C203.906 173.559 203.06 172.742 201.985 172.486Z" fill="#528443"/>
<path d="M216.858 166.309H209.061V167.703H213.95C214.216 168.741 215.061 169.558 216.136 169.815V172.486C215.061 172.742 214.216 173.559 213.95 174.597H209.061V175.992H216.858C217.256 175.992 217.58 175.68 217.58 175.295V167.006C217.58 166.621 217.256 166.309 216.858 166.309Z" fill="#366626"/>
<path d="M209.061 168.256V174.044C210.715 174.044 212.057 172.748 212.057 171.15C212.057 169.552 210.715 168.256 209.061 168.256Z" fill="#366626"/>
<path d="M388 163.447V247.945L387.838 247.657L379.103 240.879L370.205 247.945L361.321 240.879L352.424 247.945L343.526 240.879L334.643 247.945L325.745 240.879L317.957 247.07L316.848 247.945V163.447H388Z" fill="#EFEFEF"/>
<path d="M342.363 181.431C342.269 181.34 342.174 181.301 342.052 181.301C341.931 181.301 341.823 181.34 341.728 181.431C341.647 181.497 341.579 181.666 341.498 181.928C341.363 182.345 341.052 182.568 340.565 182.568C340.092 182.568 339.659 182.345 339.253 181.901C338.699 181.301 338.172 180.269 337.658 178.806C337.441 178.179 337.279 177.735 337.184 177.474C337.117 177.317 336.968 177.017 336.725 176.56C337.671 176.416 338.402 176.09 338.929 175.567C339.47 175.045 339.74 174.483 339.74 173.882C339.74 173.752 339.727 173.621 339.7 173.504C339.605 173.047 339.321 172.694 338.861 172.433C338.28 172.107 337.536 171.937 336.63 171.937C335.67 171.937 334.751 172.159 333.872 172.577C333.006 173.008 332.357 173.543 331.925 174.196C331.492 174.849 331.276 175.541 331.276 176.299C331.276 176.886 331.411 177.383 331.681 177.774C331.898 178.088 332.141 178.245 332.425 178.245C332.533 178.245 332.628 178.205 332.709 178.127C332.79 178.049 332.83 177.957 332.83 177.866C332.83 177.774 332.803 177.696 332.763 177.631C332.709 177.552 332.587 177.435 332.398 177.278C332.005 176.952 331.803 176.56 331.803 176.103C331.803 175.502 331.992 174.927 332.371 174.379C332.749 173.817 333.317 173.36 334.088 172.995C334.845 172.616 335.616 172.433 336.414 172.433C337.036 172.433 337.522 172.577 337.887 172.877C338.253 173.164 338.428 173.543 338.428 174C338.428 174.366 338.334 174.705 338.144 175.006C338.05 175.188 337.915 175.358 337.752 175.515C337.59 175.672 337.428 175.789 337.238 175.881C336.914 176.063 336.535 176.155 336.13 176.155C335.954 176.155 335.751 176.129 335.508 176.089L336.076 173.921C336.17 173.556 336.251 173.282 336.319 173.099C335.602 173.281 334.994 173.373 334.48 173.373L334.385 173.725C334.575 173.725 334.696 173.739 334.764 173.778C334.831 173.83 334.858 173.895 334.858 173.987C334.858 174.078 334.791 174.378 334.656 174.901L333.601 179.001C333.547 179.237 333.466 179.445 333.371 179.615C333.276 179.837 333.155 179.994 333.019 180.111C332.952 180.164 332.844 180.216 332.695 180.281C332.506 180.36 332.249 180.438 331.924 180.516L331.816 180.921L332.059 180.882C332.492 180.804 332.884 180.751 333.222 180.751C333.438 180.751 333.722 180.778 334.06 180.804C334.439 180.843 334.737 180.856 334.926 180.856C335.115 180.856 335.386 180.83 335.724 180.751L335.791 180.399C335.467 180.477 335.196 180.503 334.967 180.503C334.831 180.503 334.629 180.49 334.385 180.451L335.021 178.022L335.413 176.559C335.494 176.546 335.561 176.546 335.602 176.546L335.791 176.559C335.818 176.638 335.886 176.82 335.967 177.108C336.021 177.251 336.075 177.434 336.129 177.63C336.44 178.61 336.67 179.289 336.819 179.655C337.13 180.386 337.509 181.013 337.928 181.535C338.347 182.058 338.78 182.423 339.226 182.658C339.672 182.88 340.146 182.998 340.632 182.998C341.173 182.998 341.619 182.867 341.971 182.593C342.309 182.319 342.485 182.031 342.485 181.731C342.485 181.614 342.445 181.51 342.363 181.431Z" fill="#C45565"/>
<path d="M343.959 177.447C344.541 177.121 344.946 176.794 345.176 176.494C345.406 176.181 345.528 175.867 345.528 175.554C345.528 175.24 345.433 175.005 345.244 174.835C345.041 174.666 344.77 174.574 344.419 174.574C343.391 174.574 342.499 175.162 341.768 176.337C341.106 177.382 340.781 178.414 340.781 179.472C340.781 179.981 340.876 180.36 341.065 180.595C341.255 180.83 341.525 180.947 341.89 180.947C342.769 180.947 343.837 180.373 345.068 179.237L344.824 178.91C344.175 179.38 343.688 179.694 343.364 179.837C343.107 179.955 342.877 180.007 342.674 180.007C342.458 180.007 342.296 179.942 342.174 179.798C342.066 179.668 342.012 179.419 342.012 179.08C342.012 178.832 342.025 178.584 342.079 178.322C343.04 177.905 343.662 177.617 343.959 177.447ZM342.661 176.207C342.823 175.841 343.026 175.567 343.256 175.384C343.432 175.254 343.621 175.188 343.81 175.188C343.986 175.188 344.135 175.24 344.257 175.371C344.365 175.489 344.419 175.658 344.419 175.867C344.419 176.155 344.284 176.429 344 176.716C343.594 177.121 342.986 177.5 342.161 177.852C342.255 177.291 342.431 176.742 342.661 176.207Z" fill="#C45565"/>
<path d="M351.18 174.797C350.99 174.653 350.706 174.588 350.328 174.588C349.733 174.588 349.192 174.758 348.719 175.097C348.11 175.528 347.596 176.155 347.177 176.978C346.745 177.787 346.528 178.584 346.528 179.355C346.528 179.825 346.636 180.204 346.839 180.504C347.029 180.817 347.353 180.961 347.799 180.961C348.624 180.961 349.638 180.504 350.842 179.59L350.693 179.172C349.868 179.825 349.165 180.164 348.57 180.164C348.327 180.164 348.124 180.06 347.989 179.864C347.799 179.616 347.705 179.263 347.705 178.793C347.705 178.166 347.826 177.539 348.043 176.912C348.273 176.286 348.503 175.868 348.746 175.646C348.989 175.437 349.233 175.319 349.489 175.319C349.679 175.319 349.922 175.411 350.206 175.567C350.49 175.724 350.72 175.802 350.896 175.802C351.072 175.802 351.22 175.763 351.315 175.659C351.423 175.567 351.464 175.45 351.464 175.293C351.464 175.097 351.369 174.927 351.18 174.797Z" fill="#C45565"/>
<path d="M355.304 177.447C355.899 177.121 356.305 176.794 356.534 176.494C356.751 176.181 356.872 175.867 356.872 175.554C356.872 175.24 356.778 175.005 356.588 174.835C356.399 174.666 356.115 174.574 355.764 174.574C354.736 174.574 353.843 175.162 353.113 176.337C352.816 176.807 352.586 177.278 352.424 177.748C352.221 178.322 352.126 178.884 352.126 179.472C352.126 179.981 352.221 180.36 352.41 180.595L352.424 180.608C352.613 180.83 352.883 180.947 353.235 180.947C354.114 180.947 355.182 180.373 356.426 179.237L356.169 178.91C355.533 179.38 355.033 179.694 354.709 179.837C354.452 179.955 354.235 180.007 354.019 180.007C353.803 180.007 353.641 179.942 353.519 179.798C353.411 179.668 353.356 179.419 353.356 179.08C353.356 178.832 353.37 178.584 353.424 178.322C354.385 177.905 355.006 177.617 355.304 177.447ZM354.006 176.207C354.168 175.841 354.371 175.567 354.601 175.384C354.79 175.254 354.966 175.188 355.155 175.188C355.331 175.188 355.48 175.24 355.602 175.371C355.71 175.489 355.764 175.658 355.764 175.867C355.764 176.155 355.629 176.429 355.345 176.716C354.939 177.121 354.331 177.5 353.519 177.852C353.614 177.291 353.776 176.742 354.006 176.207Z" fill="#C45565"/>
<path d="M360.848 179.211C360.172 179.812 359.753 180.125 359.604 180.125C359.564 180.125 359.523 180.099 359.482 180.047C359.442 180.008 359.428 179.942 359.428 179.877C359.428 179.524 359.699 178.479 360.239 176.742C360.564 175.672 360.726 175.071 360.726 174.94C360.726 174.823 360.686 174.718 360.591 174.653C360.51 174.587 360.388 174.548 360.226 174.548C359.928 174.548 359.577 174.666 359.158 174.888C358.739 175.123 358.279 175.502 357.779 176.037L358.103 176.285C358.549 175.867 358.847 175.619 358.969 175.541C359.104 175.463 359.212 175.423 359.32 175.423C359.401 175.423 359.455 175.476 359.455 175.567C359.455 175.659 359.442 175.763 359.401 175.867C358.644 178.244 358.265 179.746 358.265 180.36C358.265 180.543 358.319 180.7 358.414 180.804C358.522 180.909 358.657 180.961 358.833 180.961C359.036 180.961 359.307 180.87 359.617 180.7C359.942 180.517 360.442 180.125 361.145 179.485L360.848 179.211ZM361.484 171.584C361.375 171.492 361.254 171.44 361.091 171.44C360.889 171.44 360.713 171.519 360.564 171.662C360.429 171.819 360.348 172.002 360.348 172.224C360.348 172.394 360.402 172.524 360.496 172.629C360.605 172.733 360.726 172.786 360.875 172.786C361.078 172.786 361.24 172.707 361.402 172.538C361.551 172.381 361.632 172.185 361.632 171.976C361.632 171.819 361.578 171.688 361.484 171.584Z" fill="#C45565"/>
<path d="M367.961 174.927C367.785 174.692 367.568 174.574 367.312 174.574C366.906 174.574 366.473 174.718 366 175.018C365.716 175.201 365.189 175.658 364.418 176.402C364.58 175.854 364.688 175.501 364.715 175.345C364.756 175.201 364.769 175.057 364.769 174.914C364.769 174.796 364.729 174.705 364.661 174.639C364.58 174.587 364.485 174.548 364.364 174.548C364.026 174.548 363.633 174.679 363.174 174.94C362.714 175.188 362.268 175.579 361.794 176.115L362.092 176.402C362.727 175.776 363.147 175.462 363.377 175.462C363.498 175.462 363.566 175.527 363.566 175.658C363.566 175.776 363.431 176.35 363.174 177.382L361.794 182.945C361.7 183.376 361.551 183.677 361.375 183.834C361.199 184.003 360.929 184.108 360.537 184.147L360.442 184.513C361.199 184.447 361.835 184.421 362.308 184.421C362.782 184.421 363.417 184.447 364.228 184.513L364.323 184.147C363.633 184.069 363.174 183.964 362.957 183.847C362.809 183.768 362.741 183.638 362.741 183.455C362.741 183.363 362.768 183.246 362.809 183.102L363.458 180.673C363.823 180.869 364.174 180.96 364.539 180.96C365.472 180.96 366.311 180.425 367.082 179.367C367.839 178.296 368.231 177.173 368.231 175.985C368.231 175.514 368.136 175.162 367.961 174.927ZM366.46 179.08C366 179.994 365.472 180.451 364.864 180.451C364.445 180.451 364.039 180.255 363.633 179.863L364.039 178.283C364.201 177.656 364.364 177.212 364.539 176.964C364.783 176.611 365.148 176.246 365.621 175.893C365.919 175.671 366.189 175.553 366.433 175.553C366.649 175.553 366.825 175.619 366.96 175.762C367.082 175.906 367.149 176.128 367.149 176.402C367.149 177.264 366.919 178.166 366.46 179.08Z" fill="#C45565"/>
<path d="M371.882 175.593H373.45L373.572 175.07H372.003L372.544 173.007L371.341 173.464L370.908 175.07H369.678L369.543 175.593H370.773L370.002 178.505C369.813 179.224 369.718 179.772 369.718 180.125C369.718 180.412 369.772 180.634 369.881 180.764C369.989 180.895 370.138 180.96 370.327 180.96C370.543 180.96 370.854 180.869 371.219 180.686C371.598 180.516 372.342 180.02 373.45 179.21L373.167 178.871C372.774 179.171 372.369 179.445 371.95 179.68C371.625 179.863 371.382 179.955 371.219 179.955C371.125 179.955 371.044 179.929 370.989 179.863C370.922 179.811 370.895 179.72 370.895 179.589C370.895 179.289 371.003 178.779 371.219 178.048L371.882 175.593Z" fill="#C45565"/>
<path d="M378.659 189.737H326.189V193.653H378.659V189.737Z" fill="#C45565"/>
<path d="M362.437 198.951H326.189V201.715H362.437V198.951Z" fill="#908689"/>
<path d="M353.346 205.791H326.189V208.555H353.346V205.791Z" fill="#908689"/>
<path d="M353.346 212.63H326.189V215.394H353.346V212.63Z" fill="#908689"/>
<path d="M357.808 219.47H326.189V222.234H357.808V219.47Z" fill="#908689"/>
<path d="M377.856 205.791H364.802V208.555H377.856V205.791Z" fill="#908689"/>
<path d="M377.856 198.951H368.075V201.715H377.856V198.951Z" fill="#908689"/>
<path d="M377.856 212.63H368.075V215.394H377.856V212.63Z" fill="#908689"/>
<path d="M377.856 219.47H366.469V222.234H377.856V219.47Z" fill="#908689"/>
<path d="M378.66 232.911H367.272V237.057H378.66V232.911Z" fill="#908689"/>
<path d="M382.594 229.899H322.254V230.59H382.594V229.899Z" fill="#908689"/>
</svg>
