<svg viewBox="0 0 256 60" fill="none" xmlns="http://www.w3.org/2000/svg">
<g clip-path="url(#clip0_61_1920)">
<path d="M159.471 13.4543C162.784 13.3925 165.943 13.2949 169.093 13.4296C170.344 13.4834 171.721 13.8062 172.772 14.4522C173.895 15.1424 174.652 15.1538 175.828 14.6087C179.356 12.9736 183.123 12.7288 187.138 13.1779C187.335 12.0975 187.427 10.9645 187.754 9.90548C188.822 6.44719 191.083 4.76167 194.666 4.19038C197.242 3.77995 199.822 3.33124 202.419 3.11406C205.412 2.86376 208.136 3.56572 209.746 6.4575C211.182 9.03529 212.904 11.4909 213.213 14.5925C213.261 15.0762 214.017 15.4877 214.444 15.9342C216.013 17.5744 217.581 19.2154 218.879 20.573C218.824 19.8044 218.717 18.382 218.62 16.959C218.117 9.57235 223.186 3.53664 229.595 1.26621C234.333 -0.412684 239.124 -0.400169 243.937 1.17382C247.53 2.34842 250.145 4.7256 251.911 7.92253C253.361 10.5467 254.725 13.3487 255.412 16.2452C256.657 21.4943 255.541 26.4471 251.759 30.4325C249.438 32.8774 246.753 34.9634 244.325 37.31C242.349 39.2201 242.282 40.2327 243.329 42.3577C246.696 49.1904 242.808 57.9953 234.475 59.4209C229.034 60.3522 223.532 57.3706 221.742 52.4617C220.056 55.7989 217.554 58.0104 214.057 59.0974C210.566 60.1825 207.188 60.1225 203.79 58.7164C203.121 58.4392 202.225 58.5544 201.469 58.6899C199.859 58.9789 198.269 59.7136 196.675 59.7014C193.397 59.6764 190.123 59.2689 186.845 59.051C186.383 59.0204 185.903 59.1404 185.442 59.2398C181.772 60.029 178.064 60.3077 174.504 58.9796C172.417 58.2011 170.688 59.0654 168.768 59.3157C166.267 59.6422 163.615 59.7791 161.176 59.2711C159.354 58.8916 157.784 58.984 156.077 59.3896C153.243 60.0636 150.428 59.9955 147.626 59.0731C146.968 58.8563 146.144 58.8607 145.467 59.0396C141.334 60.1325 137.281 60.2874 133.296 58.4116C132.857 58.2051 132.218 58.2592 131.72 58.3855C130.094 58.7977 128.503 59.6274 126.874 59.6955C123.879 59.8214 120.866 59.4213 117.86 59.4231C114.733 59.425 111.607 59.6672 108.479 59.7607C104.405 59.8825 101.336 58.3339 99.765 54.3187C99.4722 53.5704 99.0378 52.8787 98.6897 52.2014C94.9036 56.7294 90.4179 59.785 84.3387 59.7618C82.0202 59.753 79.7165 59.9098 77.4872 58.8191C76.8066 58.4863 75.6752 58.9976 74.7779 59.231C69.8083 60.523 64.7837 59.8535 61.3614 56.7452C58.5938 57.7012 56.056 58.7687 53.4196 59.4408C50.0438 60.3011 46.6652 59.8398 43.4833 58.4458C42.5073 58.0181 41.826 58.105 40.8617 58.4433C39.1054 59.0595 37.2373 59.6816 35.4118 59.693C32.1373 59.7132 28.8628 59.2004 25.5825 59.086C24.4417 59.0458 23.2818 59.7309 22.1322 59.7272C18.8876 59.7162 15.6313 59.6528 12.4038 59.3503C10.1789 59.1416 8.42727 57.8966 7.41492 55.7712C6.98013 54.858 6.61342 53.8932 6.05663 53.0613C3.96056 49.9306 3.99334 46.6369 5.03336 43.1683C5.5785 41.3521 5.994 39.4789 6.25073 37.6008C6.33812 36.9629 5.8975 36.1222 5.46343 35.5597C1.39474 30.2944 -1.15944 24.5705 0.526595 17.7434C1.54987 13.6023 4.02465 10.2703 7.23977 7.5629C11.1988 4.2294 15.7278 1.89787 20.83 1.16535C23.9074 0.723635 27.0883 1.02143 30.2226 0.974678C31.5073 0.955537 32.7917 0.87934 34.0761 0.873083C37.2315 0.857991 40.3872 0.870506 43.543 0.867561C46.1095 0.864985 48.0075 2.1467 49.2624 4.26253C50.4113 6.2002 51.3413 8.27922 52.2521 10.3483C52.5765 11.0845 52.5609 11.9738 52.6246 12.3493C55.556 13.1959 58.3567 14.0094 61.1629 14.8045C61.3778 14.8652 61.6989 14.8836 61.8548 14.7655C64.161 13.017 66.8397 13.3582 69.4427 13.4006C71.7186 13.4374 74.0419 13.977 76.2574 13.6645C81.4058 12.9379 86.6752 14.1033 91.7642 12.378C94.46 11.4644 99.3976 14.1044 101.367 17.1191C101.881 17.9068 102.373 18.71 102.679 19.1944C103.689 17.8229 104.486 16.0406 105.849 15.0839C107.254 14.0981 109.187 13.5817 110.931 13.4554C114.312 13.2106 117.733 13.5511 121.118 13.3321C123.985 13.1462 126.738 13.2474 129.435 14.2943C129.694 14.3948 130.07 14.2406 130.378 14.1541C134.56 12.978 138.669 12.8271 142.686 14.8634C143.084 15.0658 143.742 14.8516 144.247 14.7136C145.754 14.3017 147.23 13.515 148.743 13.4473C152.259 13.2905 155.789 13.469 159.471 13.4543ZM219.939 23.7316L221.785 29.263L222.383 29.1099C222.235 28.3406 222.195 27.5282 221.914 26.813C221.441 25.6119 220.822 24.4689 220.247 23.3101C219.991 22.793 219.692 22.2975 219.413 21.7921L219.111 21.9739C219.322 22.4904 219.533 23.0072 219.939 23.7316Z" fill="#FFDC62"/>
<path fill-rule="evenodd" clip-rule="evenodd" d="M249.837 20.1785C249.99 17.4498 248.934 15.264 247.691 12.9071C247.315 12.3907 246.968 11.8606 246.627 11.3383C245.886 10.2067 245.171 9.11237 244.23 8.27679C240.883 5.30145 233.072 5.83593 229.366 8.43838C226.034 10.7784 224.176 14.1156 225.157 18.0428C225.939 21.1738 227.204 24.4418 230.105 26.5127C229.949 26.8698 229.789 27.2257 229.629 27.5817C228.248 30.6575 226.875 33.7164 228.351 37.2612C225.158 38.632 223.529 42.4525 225.619 45.8927C226.028 46.5653 226.377 47.2753 226.726 47.985C227.116 48.7768 227.506 49.5686 227.977 50.3073C229.501 52.6941 232.112 53.53 234.937 52.5111C238.166 51.3465 239.663 47.512 237.839 44.2841C235.869 40.8005 236.317 37.4997 238.508 34.6989C239.91 32.9062 241.663 31.3937 243.416 29.8805C244.237 29.1715 245.059 28.4622 245.845 27.7238C248.024 25.6768 249.656 23.427 249.837 20.1785ZM56.8986 19.3024C52.8933 18.8681 49.1873 19.6705 46.0873 22.4791L45.5618 22.7788C45.5804 22.612 45.5993 22.4449 45.7293 22.0808C45.9289 21.1911 46.08 20.3158 46.2278 19.4596C46.4835 17.9799 46.7289 16.5575 47.1968 15.214C48.0577 12.7411 47.0435 10.8737 46.0235 8.99568C45.7635 8.51679 45.5028 8.03679 45.2726 7.54574C45.1525 7.28918 44.5527 7.15188 44.1729 7.14746L44.0928 7.14636C41.3296 7.11396 38.5638 7.08194 35.8036 7.18243C35.375 7.19789 34.7082 7.84133 34.5968 8.30439C33.8797 11.2882 33.2261 14.2875 32.5721 17.2871C32.3863 18.1403 32.1999 18.9933 32.0127 19.8461C31.8955 20.3818 31.7802 20.9178 31.6668 21.4543C31.6147 21.7013 31.5619 21.9483 31.5091 22.1953L31.055 22.1099C31.2262 21.0859 31.4716 20.0574 31.7178 19.0289C32.6817 14.9931 33.6478 10.9507 30.1024 7.15078C29.7262 7.11581 29.3304 7.05765 28.9218 6.99765C27.9888 6.86035 26.9914 6.71384 26.018 6.81176C21.2221 7.29581 16.7634 8.82157 12.9781 11.9449C10.291 14.1616 7.85441 16.7585 7.67379 20.4196C7.39885 26 9.2127 30.6498 14.7457 33.1834C14.478 34.3738 14.222 35.5761 13.9649 36.7841C13.3641 39.6086 12.7559 42.4639 11.9766 45.271C11.3466 47.5418 12.3353 49.1684 13.3247 50.7962C13.6892 51.3958 14.0538 51.9954 14.3374 52.6275C14.4842 52.9543 15.2915 53.1064 15.7981 53.1178C17.3144 53.1513 18.8315 53.1472 20.3485 53.1435C21.1365 53.1413 21.9249 53.1395 22.713 53.1424C23.986 53.148 24.6783 52.4556 24.9354 51.2659C25.2074 50.0084 25.4671 48.7477 25.7263 47.4873C25.8771 46.7559 26.0279 46.0241 26.1808 45.2931C26.7307 42.6653 27.2827 40.0378 27.8697 37.2435L27.8705 37.2402L28.649 33.5327C28.7576 33.7956 28.8508 33.9881 28.9222 34.1349C29.0321 34.3617 29.0897 34.4799 29.0678 34.5811C28.8898 35.4353 28.7209 36.2914 28.5613 37.1493C28.1545 39.292 27.7474 41.4354 27.0621 43.4835C25.9284 46.8715 27.069 49.6072 28.7543 52.2991C29.0325 52.7438 29.8041 53.081 30.3617 53.1027C32.3408 53.1792 34.324 53.1612 36.3065 53.1432H36.3072L37.2755 53.1351C38.5919 53.1248 39.3825 52.4221 39.6439 51.1271C39.9138 49.7902 40.1763 48.4514 40.4727 46.9396C40.6078 46.2502 40.7499 45.5246 40.9032 44.7468C43.0215 49.8649 45.8218 53.3386 51.4494 53.1697C56.7894 53.0099 60.16 49.9046 62.9967 45.5081C63.2487 46.0208 63.4811 46.5159 63.7061 46.9956C64.2152 48.0811 64.686 49.0849 65.2607 50.0235C65.7694 50.8547 66.4871 51.7098 67.3196 52.1574C70.6989 53.9729 73.9385 53.4432 77.0374 51.2949C77.4234 51.0273 78.32 50.9291 78.6025 51.1827C81.2823 53.5864 84.3758 53.4737 87.5538 52.8082C92.2747 51.8199 94.819 48.2821 96.9562 44.3574C98.9835 40.6352 99.9529 36.5427 100.403 32.3758C100.634 30.2408 100.532 27.9443 99.9809 25.884C99.6113 24.5 98.8353 23.2242 98.0618 21.952C97.7639 21.4624 97.4668 20.9736 97.1929 20.4796C97.0072 20.1435 96.6788 19.8586 96.359 19.633C93.9389 17.9202 92.2008 18.0976 89.3487 20.1884C89.0563 20.12 88.7835 20.0438 88.5235 19.9713C87.9882 19.8215 87.5068 19.6867 87.0207 19.6672C85.7684 19.6168 84.5138 19.6267 83.2593 19.6363C82.7543 19.64 82.2488 19.6444 81.7437 19.6444C78.734 19.6444 78.734 19.6444 77.5596 22.718C77.0869 19.5572 75.0539 19.478 72.8125 19.6234C71.1815 19.7294 69.5362 19.6937 67.9008 19.6278C66.674 19.5785 65.8961 19.7129 65.7465 21.288C65.6328 22.4802 65.3204 23.653 64.9828 24.9189C64.8288 25.4964 64.6697 26.0935 64.5222 26.72C64.2207 26.247 63.9333 25.7868 63.6526 25.3381C63.0441 24.3638 62.468 23.4417 61.8493 22.5494C60.6407 20.8061 59.0278 19.5332 56.8986 19.3024ZM176.925 21.4426C179.194 19.365 181.962 19.3046 184.802 19.2424L184.956 19.2391C188.19 19.1677 190.171 20.8245 191.653 23.8249C191.908 22.5954 192.17 21.3969 192.427 20.2179V20.2172L192.428 20.2164C193.021 17.4973 193.592 14.8841 194.01 12.2464C194.297 10.4394 195.44 10.358 196.538 10.2792C196.903 10.2535 197.263 10.2277 197.585 10.1394C199.073 9.73151 200.637 9.58906 202.192 9.44734C202.479 9.42157 202.767 9.39507 203.053 9.36746C203.607 9.31372 204.539 9.3866 204.702 9.70906C205.005 10.3091 205.409 10.873 205.815 11.438C206.887 12.9343 207.964 14.4376 207.186 16.623C206.999 17.1505 206.923 17.7192 206.851 18.2695C206.82 18.5122 206.785 18.7541 206.744 18.9951C207.204 19.1644 207.653 19.3146 208.089 19.4607C209.01 19.7692 209.876 20.0596 210.681 20.4711C212.946 21.6288 213.742 23.7903 214.534 25.9396C214.737 26.4895 214.939 27.0391 215.166 27.5707C216.493 30.684 215.902 33.8018 215.31 36.9284C215.25 37.2443 215.19 37.5601 215.132 37.8759C214.989 38.6556 215.163 39.5758 215.441 40.3385C215.648 40.9065 215.894 41.4601 216.14 42.0122C216.969 43.8726 217.789 45.7135 217.049 48.0178C216.174 50.7435 213.48 52.9808 210.629 53.1785C207.117 53.4222 204.839 51.9807 203.511 48.7429C203.147 47.8588 202.705 47.0077 202.198 46.0334C201.947 45.5508 201.68 45.038 201.4 44.4759C201.224 45.2368 201.04 45.9575 200.862 46.6521L200.862 46.6529C200.473 48.172 200.116 49.5671 199.952 50.985C199.741 52.8078 198.678 53.1012 197.284 53.1314C196.551 53.1472 195.816 53.1391 195.083 53.131C194.056 53.1192 193.029 53.1078 192.006 53.1623C190.436 53.2459 189.162 52.9138 188.682 51.7562C187.768 51.9045 186.874 52.0602 185.994 52.2133L185.993 52.2137C184.011 52.5586 182.094 52.8921 180.165 53.11C177.685 53.3898 175.512 52.5086 173.639 50.798C173.369 50.5514 172.498 50.5654 172.21 50.8164C169.812 52.9054 166.952 53.5057 164.001 53.0522C162.98 52.8951 162.024 52.3116 161.017 51.6973C160.547 51.4105 160.066 51.1168 159.563 50.8569C156.102 53.6048 151.209 54.4628 147.464 50.8893C145.183 52.2564 142.819 53.4284 139.982 53.1649C137.383 52.923 135.262 52.1408 134.146 49.4909C133.66 48.3373 133.084 47.223 132.447 45.9929C132.127 45.3769 131.811 44.7586 131.5 44.138C131.329 44.8907 131.15 45.6414 130.962 46.39C130.565 48.0005 130.197 49.4927 130.025 51.0075C129.84 52.6212 128.934 53.0589 127.705 53.1119C127.347 53.1273 126.987 53.1457 126.626 53.1641C124.732 53.2613 122.818 53.3596 120.99 53.0294C120.134 52.8748 119.372 52.181 118.648 51.521C118.332 51.2331 118.024 50.9519 117.718 50.7248C117.344 52.8991 117.064 53.1332 114.439 53.1399C113.779 53.1417 113.12 53.1399 112.46 53.1376C111.299 53.134 110.138 53.1307 108.978 53.1476C107.633 53.1671 106.841 52.5108 106.115 51.3748C104.475 48.8095 104.421 46.277 105.13 43.3282C106.75 36.588 108.112 29.7829 109.473 22.9808L109.895 20.8716C110.113 19.7821 110.593 19.6046 111.477 19.6411L112.179 19.6702C114.949 19.7843 117.719 19.8984 120.49 19.9698C120.907 19.9808 121.332 19.852 121.749 19.7254C121.848 19.6956 121.947 19.6657 122.045 19.6378C125.122 18.7635 127.808 19.4143 129.901 21.5302C130.473 21.3194 131.043 21.1027 131.61 20.8801H131.61C132.832 20.406 134.02 19.9444 135.242 19.6113C138.482 18.7282 141.557 20.1461 143.123 23.1671C143.798 24.4702 144.415 25.8042 145.046 27.1668L145.046 27.1676C145.334 27.7878 145.624 28.414 145.923 29.046L146.381 26.7848C146.746 24.9848 147.105 23.208 147.471 21.4326C147.733 20.1605 148.336 19.4729 149.807 19.6083C151.492 19.7633 153.211 19.7537 154.899 19.6172C157.134 19.4364 159.029 19.651 159.607 22.527C159.769 20.2183 160.77 19.3768 162.93 19.5991C163.993 19.7084 165.068 19.686 166.144 19.6635C167.136 19.6429 168.128 19.6219 169.11 19.7048C169.834 19.7651 170.694 20.3718 171.151 20.988C171.547 21.5224 171.892 22.0967 172.243 22.6816C172.659 23.3736 173.083 24.0815 173.614 24.7576C174.89 23.6335 175.908 22.5376 176.925 21.4426ZM189.206 35.6088C186.908 35.3843 185.567 33.9457 184.383 31.8837L182.035 41.2908C185.539 40.1865 187.894 38.7678 189.206 35.6088Z" fill="#FA6F68"/>
<path fill-rule="evenodd" clip-rule="evenodd" d="M25.4004 28.1244H31.6675L27.7915 46.5624L27.6495 47.2286H35.998L36.0927 46.7906L44.0775 8.79552L44.2155 8.12926H35.8706L35.7759 8.56362L32.6537 23.2655H26.3902L29.4582 8.79552L29.5893 8.17343L28.967 8.12558C28.0934 8.05932 27.4022 8.02251 26.9142 8.02251C24.0829 8.02251 21.2589 8.68509 18.4495 10.0029C15.6433 11.2839 13.3178 12.9882 11.4872 15.1194C9.68211 17.2286 8.73969 19.452 8.73969 21.782C8.73969 23.6225 9.19488 25.0802 10.232 26.0041L10.2393 26.0115L10.2466 26.0188C11.2909 26.8802 12.7938 27.263 14.6608 27.263H15.2071V26.7109C15.2071 26.5894 15.1706 26.479 15.1561 26.4421V26.4385C15.0465 26.1745 14.9288 25.9143 14.8028 25.6581C14.6208 25.2679 14.5042 24.4949 14.5042 23.2544C14.5042 20.6667 15.0869 18.4912 16.222 16.7023C17.2254 15.1711 18.6049 13.9293 20.2255 13.0986L13.1725 46.5587L13.0305 47.225H21.3791L21.4738 46.7869L25.3968 28.1244H25.4004ZM61.9283 32.0593C61.6297 35.0188 60.9455 37.636 59.8537 39.9035C58.7183 42.274 57.2406 44.1293 55.4136 45.4471C53.6751 46.735 51.5754 47.4287 49.42 47.4274C46.8506 47.4274 44.7468 46.7575 43.1821 45.3587C41.5809 43.9305 40.8384 41.7145 40.8384 38.8507C40.8384 36.4728 41.3223 33.8556 42.2724 31.0029C43.2035 28.1642 44.8019 25.5963 46.9307 23.5194C49.1141 21.3477 51.869 20.2655 55.1445 20.2655C57.4081 20.2655 59.1914 20.9869 60.3923 22.5035C61.5096 23.917 62.0591 25.9378 62.1137 28.4925H62.1283C63.1257 28.4925 64.3012 28.2348 65.6693 27.6974L67.0378 21.1599L67.1325 20.7219H75.4774L75.339 21.3882L71.7252 38.6593L71.7215 38.6704V38.6777C71.6305 39.0385 71.5831 39.4176 71.5831 39.8152C71.5831 40.5145 71.707 40.9415 71.8672 41.1771C72.0019 41.3796 72.1946 41.4974 72.5441 41.4974C72.9293 41.4978 73.3095 41.41 73.6562 41.2404C74.0029 41.0708 74.3069 40.8238 74.5455 40.5182C75.146 39.7857 75.6482 38.7698 76.0378 37.4409L79.4441 21.1599L79.5352 20.7219H87.8837L87.7454 21.3882L84.1279 38.6593C83.9604 39.5023 83.8879 40.0618 83.8879 40.3747C83.8879 40.8421 84.0077 41.0961 84.1497 41.236C84.2954 41.3796 84.5608 41.4974 85.0525 41.4974C86.3259 41.4974 87.607 40.6875 88.8662 38.7955L88.8699 38.7918C90.1728 36.8814 91.2209 34.5992 92.0107 31.9342C92.6767 29.6925 93.0551 27.7268 93.1607 26.0372C92.7823 26.1072 92.4364 26.144 92.1309 26.144C91.7606 26.1457 91.3967 26.0473 91.0767 25.8589C90.7568 25.6706 90.4925 25.3992 90.3112 25.0728L90.3076 25.0618L90.3003 25.0507C89.953 24.4248 89.7736 23.718 89.7799 23.0004C89.7799 22.0618 90.0709 21.2556 90.6896 20.6299L90.6968 20.6225L90.7041 20.6188C91.3774 19.9783 92.3199 19.7059 93.4375 19.7059C94.7 19.7059 95.6938 20.2029 96.3124 21.2372C96.8838 22.1612 97.1493 23.3207 97.1493 24.679C97.1493 27.7894 96.618 31.1096 95.5663 34.6397C94.511 38.1661 92.8839 41.1845 90.6823 43.6875C88.4369 46.2421 85.6275 47.5305 82.29 47.5305C80.5723 47.5305 79.1167 47.1587 77.9668 46.3673C77.0996 45.7735 76.4329 44.9257 76.056 43.9379C74.1999 46.301 71.889 47.5305 69.1302 47.5305C67.3979 47.5305 65.946 46.9783 64.8288 45.8446L64.8252 45.8409H64.8215C63.7152 44.6814 63.2091 42.9955 63.2091 40.8826C63.2091 39.9845 63.3547 38.8434 63.6242 37.4704V37.4667L64.9195 31.2826C63.9423 31.6132 62.9426 31.8715 61.9283 32.0556V32.0593ZM56.8841 26.5305C56.8582 26.2088 56.812 25.8891 56.7457 25.5734C56.7038 25.33 56.6201 25.0958 56.4984 24.8814L56.4948 24.874L56.4875 24.8667C56.3491 24.6385 56.0942 24.4691 55.5484 24.4691C54.7334 24.4691 53.8015 25.0691 52.7935 26.652C51.7892 28.2237 50.9739 30.1194 50.3479 32.3464C49.7219 34.5845 49.4127 36.528 49.4127 38.1882C49.4127 38.9833 49.4597 39.6311 49.5435 40.1391C49.6309 40.6544 49.7474 40.9857 49.8712 41.1845C50.0966 41.5084 50.5482 41.7513 51.4287 41.7513C52.011 41.7513 52.6807 41.4201 53.4304 40.5661C54.1802 39.6826 54.8495 38.4753 55.4391 36.9293C56.006 35.3708 56.4121 33.7573 56.651 32.1145C56.2929 31.9518 55.9894 31.687 55.7778 31.3526C55.4729 30.8231 55.3252 30.2161 55.3521 29.6041C55.3521 28.8421 55.4974 28.1685 55.8142 27.6017C56.0688 27.1546 56.4386 26.7857 56.8841 26.5342V26.5305ZM133.856 45.7158L133.848 45.7084C132.818 44.4826 132.312 42.9771 132.312 41.236C132.312 40.4851 132.403 39.6532 132.575 38.7477C132.742 37.8311 132.909 36.9513 133.077 36.0974V36.09L133.08 36.079C133.277 35.2507 133.415 34.7023 133.484 34.4446C133.75 33.2667 134.001 32.1109 134.234 30.9661C134.463 29.8323 134.572 28.9415 134.572 28.2826C134.572 27.4691 134.427 26.9575 134.219 26.6593C134.037 26.4017 133.768 26.2471 133.309 26.2471C132.655 26.2471 132.029 26.5673 131.435 27.3513L131.432 27.355L131.428 27.3587C130.817 28.1317 130.311 29.1698 129.925 30.5023L126.511 46.7869L126.42 47.225H118.075L118.217 46.5587L121.882 29.0336V29.0225L121.886 29.0151C121.977 28.6544 122.02 28.2753 122.02 27.8777C122.02 27.1783 121.9 26.7513 121.74 26.5158C121.605 26.3133 121.409 26.1955 121.06 26.1955C120.321 26.1955 119.647 26.5305 119.025 27.3072C118.418 28.0802 117.911 29.1329 117.522 30.5023L114.112 46.7869L114.021 47.225H105.665L105.804 46.5587L111.128 21.1599L111.219 20.7219H119.568L119.429 21.3882L119.236 22.301C120.719 21.0971 122.568 20.4494 124.47 20.4679C126.027 20.4679 127.334 20.8544 128.32 21.69C129.054 22.3274 129.596 23.1602 129.885 24.0937C131.69 21.7415 133.939 20.5194 136.621 20.5194C138.434 20.5194 139.933 21.0237 141.061 22.0912C142.215 23.1771 142.743 24.7894 142.743 26.8102C142.743 27.8372 142.623 28.9747 142.379 30.2188C142.142 31.4188 141.807 32.8839 141.371 34.6176C141.101 35.663 140.854 36.69 140.621 37.6986C140.424 38.663 140.33 39.3992 140.33 39.9182C140.33 40.5182 140.468 40.901 140.657 41.1403C140.814 41.328 141.13 41.4974 141.796 41.4974C142.652 41.4974 143.3 41.2029 143.787 40.6286C144.333 39.955 144.901 38.8986 145.483 37.4336L148.893 21.1599L148.984 20.7219H157.333L157.194 21.3882L153.577 38.652C153.482 39.1305 153.439 39.5722 153.439 39.9661C153.439 40.6102 153.555 40.9931 153.708 41.2029C153.839 41.3832 154.036 41.4974 154.399 41.4974C154.784 41.4972 155.163 41.409 155.509 41.2394C155.856 41.0698 156.159 40.8233 156.397 40.5182C156.998 39.7857 157.5 38.7698 157.889 37.4446L161.296 21.1599L161.39 20.7219H169.739L169.597 21.3882L165.98 38.6593V38.674L165.976 38.6888C165.852 39.1731 165.79 39.6718 165.794 40.1722C165.794 40.7575 165.918 41.0704 166.063 41.2323C166.263 41.3796 166.642 41.4974 167.304 41.4974C168.061 41.4974 168.716 41.1808 169.299 40.4777V40.474L169.306 40.4667C169.622 40.0986 169.914 39.6642 170.172 39.1599V38.9023C170.172 36.4949 170.634 33.8593 171.555 31.0102V31.0066C172.474 28.1888 174.031 25.6274 176.104 23.5268C178.259 21.3477 180.981 20.2655 184.224 20.2655C186.287 20.2655 187.899 20.7145 188.885 21.7563C189.868 22.7501 190.345 24.009 190.345 25.4888C190.345 26.7477 190.079 27.8004 189.471 28.5771C189.201 28.9447 188.849 29.2427 188.444 29.4467C188.039 29.6508 187.591 29.7552 187.139 29.7513C186.398 29.7301 185.68 29.4853 185.079 29.0483L184.722 28.809L184.868 28.4004C185.215 27.5042 185.407 26.5541 185.435 25.5918C185.435 25.0066 185.326 24.6164 185.17 24.3661C185.046 24.1636 184.875 24.0605 184.576 24.0605C183.885 24.0605 183.023 24.6495 182.029 26.2875C181.057 27.8925 180.253 29.8581 179.627 32.1882C179.001 34.5256 178.695 36.6053 178.695 38.4458C178.695 40.0765 178.979 41.0152 179.394 41.4642C179.816 41.8839 180.559 42.1599 181.763 42.1599C183.485 42.1599 184.915 41.755 186.083 40.982L186.087 40.9783C187.295 40.1943 188.623 39.0053 190.083 37.3967L195.433 12.0164L195.513 11.6336L195.895 11.582L203.326 10.5661L204.098 10.463L203.934 11.2323L201.587 22.2642C202.999 21.1255 204.755 20.5098 206.561 20.5194C208.374 20.5194 209.873 21.0237 211.002 22.0912C212.155 23.1771 212.683 24.7894 212.683 26.8102C212.683 27.8372 212.563 28.9747 212.319 30.2188C212.086 31.4188 211.748 32.8839 211.311 34.6176C211.045 35.663 210.794 36.69 210.561 37.7023C210.394 38.4298 210.297 39.1719 210.27 39.9182C210.27 40.5182 210.408 40.901 210.601 41.1403C210.754 41.328 211.074 41.4974 211.737 41.4974C212.119 41.4974 212.421 41.4753 212.654 41.4311C212.807 41.4105 212.955 41.3605 213.09 41.2839L214.073 40.6213L213.935 41.8102C213.724 43.636 213.061 45.079 211.893 46.0728C210.776 47.046 209.342 47.5654 207.868 47.5305C205.983 47.5305 204.502 46.9489 203.566 45.6826C202.675 44.4826 202.249 42.9882 202.249 41.236C202.249 40.4851 202.34 39.6532 202.511 38.7477C202.678 37.8311 202.846 36.9513 203.013 36.0974V36.09L203.02 36.079C203.217 35.2507 203.348 34.7023 203.421 34.4446C203.69 33.2667 203.938 32.1109 204.17 30.9661C204.4 29.8323 204.509 28.9415 204.509 28.2826C204.509 27.4691 204.363 26.9575 204.159 26.6593C203.978 26.4017 203.705 26.2471 203.25 26.2471C202.635 26.2471 202.038 26.5231 201.445 27.1783C200.798 27.9847 200.311 28.9096 200.011 29.9023L196.451 46.7869L196.357 47.225H188.008L188.15 46.5587L188.893 43.036C185.898 46.0102 182.451 47.5268 178.55 47.5268C175.981 47.5268 173.906 46.8642 172.403 45.4507H172.399C171.854 44.9222 171.408 44.2987 171.082 43.6102C170.542 44.3304 169.901 44.9666 169.178 45.4986C167.297 46.8385 165.365 47.5305 163.388 47.5305C161.842 47.5305 160.546 47.0888 159.552 46.1648L159.549 46.1612L159.545 46.1575C158.846 45.45 158.353 44.5608 158.122 43.5882C157.169 44.8986 156.153 45.863 155.062 46.4483C153.815 47.15 152.413 47.5222 150.986 47.5305C149.253 47.5305 147.801 46.9783 146.68 45.8446L146.677 45.8409C146.194 45.3287 145.818 44.7226 145.574 44.0593C145.158 44.6078 144.676 45.1023 144.14 45.5317V45.5354C142.451 46.8495 140.665 47.5305 138.783 47.5305C136.65 47.5305 134.969 46.9636 133.856 45.7231L133.852 45.7158H133.856ZM229.02 35.4385V34.8863C229.02 33.2078 229.26 31.6839 229.755 30.3293V30.3256L229.758 30.3219C230.216 29.0737 230.827 27.8889 231.578 26.7955L231.585 26.7882L231.589 26.7845C232.306 25.8201 233.219 24.7084 234.33 23.4458C235.756 21.8336 236.804 20.4421 237.481 19.2679C238.187 18.0254 238.544 16.611 238.511 15.1783C238.511 13.7869 238.238 12.7783 237.758 12.0937C237.303 11.4421 236.655 11.1072 235.741 11.1072C235.288 11.0991 234.838 11.1884 234.422 11.3693C234.005 11.5501 233.631 11.8184 233.325 12.1563C233.005 12.4984 232.756 12.9015 232.593 13.342C232.429 13.7826 232.354 14.2517 232.372 14.7219C232.372 15.5023 232.561 16.2164 232.947 16.8753C233.304 17.4712 233.832 17.9435 234.46 18.2299L234.781 18.3771V19.1869L234.599 19.3489C233.992 19.9049 233.304 20.3642 232.561 20.7109C231.862 21.0421 231.163 21.2151 230.468 21.2151C229.249 21.2151 228.212 20.7661 227.404 19.8679L227.396 19.8605L227.389 19.8495C226.625 18.9182 226.257 17.7513 226.257 16.3967C226.257 14.6925 226.745 13.1428 227.713 11.7587L227.721 11.7513C228.754 10.3553 230.122 9.24711 231.695 8.53049C233.421 7.73487 235.3 7.33634 237.197 7.36362C239.989 7.36362 242.267 8.00779 243.966 9.35871C245.677 10.7244 246.532 12.598 246.532 14.9244C246.532 16.3268 246.23 17.6336 245.622 18.8336L245.619 18.8372V18.8409C245.029 19.9657 244.266 20.9883 243.358 21.8704C242.503 22.7354 241.368 23.7477 239.956 24.8998C238.738 25.9239 237.562 26.9971 236.429 28.117C235.603 28.9526 234.883 29.9575 234.268 31.128C233.692 32.2942 233.404 33.5834 233.427 34.8863V35.4385H229.02ZM227.426 45.8998L227.422 45.8961C226.986 45.4706 226.64 44.9597 226.405 44.3945C226.17 43.8294 226.052 43.2219 226.057 42.609C226.057 41.3464 226.494 40.2569 227.367 39.3734L227.375 39.3698L227.378 39.3661C227.805 38.9397 228.311 38.6031 228.867 38.3756C229.423 38.1481 230.018 38.0344 230.617 38.0409C231.862 38.0409 232.939 38.4863 233.809 39.3661C234.25 39.7793 234.6 40.2814 234.837 40.84C235.074 41.3986 235.192 42.0013 235.185 42.609C235.185 43.879 234.719 44.9832 233.816 45.8961C233.401 46.3253 232.903 46.6644 232.354 46.8929C231.805 47.1213 231.215 47.2343 230.621 47.225C229.402 47.225 228.328 46.7759 227.429 45.8998H227.426Z" fill="white"/>
</g>
</svg>
