<svg width="24" height="24" viewBox="0 0 24 24" fill="inherit" xmlns="http://www.w3.org/2000/svg">
<g mask="url(#mask0_8_280)">
<path d="M12 23C11.6167 23 11.2333 22.975 10.85 22.925C10.4667 22.875 10.0833 22.8083 9.7 22.725C8.23334 23.8083 6.62084 24.1958 4.8625 23.8875C3.10417 23.5792 1.75834 22.6417 0.825003 21.075C0.0750027 19.8417 -0.166664 18.5167 0.100002 17.1C0.366669 15.6833 1.00834 14.4917 2.025 13.525V13.45C0.99167 12.5 0.350002 11.3292 0.100002 9.9375C-0.149998 8.54583 0.0833364 7.23333 0.800003 6C1.41667 4.95 2.26667 4.15417 3.35 3.6125C4.43334 3.07083 5.575 2.88333 6.775 3.05C7.30834 2.1 8.0375 1.35417 8.9625 0.8125C9.8875 0.270833 10.9 0 12 0C13.1 0 14.1125 0.270833 15.0375 0.8125C15.9625 1.35417 16.6917 2.1 17.225 3.05C18.425 2.88333 19.5667 3.07083 20.65 3.6125C21.7333 4.15417 22.5833 4.95 23.2 6C23.9167 7.23333 24.15 8.54583 23.9 9.9375C23.65 11.3292 23.0083 12.5 21.975 13.45V13.525C22.9917 14.4917 23.6333 15.6833 23.9 17.1C24.1667 18.5167 23.925 19.8417 23.175 21.075C22.2417 22.6417 20.8958 23.5792 19.1375 23.8875C17.3792 24.1958 15.7667 23.8083 14.3 22.725C13.9167 22.8083 13.5333 22.875 13.15 22.925C12.7667 22.975 12.3833 23 12 23ZM16.8 21.75C17.6667 22.0833 18.5375 22.0792 19.4125 21.7375C20.2875 21.3958 20.9667 20.825 21.45 20.025C21.8 19.4417 21.975 18.8125 21.975 18.1375C21.975 17.4625 21.8083 16.825 21.475 16.225C21.275 16.8083 21.0208 17.3708 20.7125 17.9125C20.4042 18.4542 20.05 18.9583 19.65 19.425C19.25 19.8917 18.8083 20.3208 18.325 20.7125C17.8417 21.1042 17.3333 21.45 16.8 21.75ZM7.2 21.75C6.65 21.45 6.1375 21.1042 5.6625 20.7125C5.1875 20.3208 4.75 19.8917 4.35 19.425C3.95 18.9583 3.59584 18.4542 3.2875 17.9125C2.97917 17.3708 2.725 16.8083 2.525 16.225C2.19167 16.825 2.025 17.4625 2.025 18.1375C2.025 18.8125 2.2 19.4417 2.55 20.025C3.03334 20.825 3.7125 21.3958 4.5875 21.7375C5.4625 22.0792 6.33334 22.0833 7.2 21.75ZM12 21C14.2333 21 16.125 20.225 17.675 18.675C19.225 17.125 20 15.2333 20 13C20 11.1333 19.4333 9.48333 18.3 8.05C17.1667 6.61667 15.7333 5.68333 14 5.25C14 6.95 13.4042 8.39583 12.2125 9.5875C11.0208 10.7792 9.575 11.375 7.875 11.375C7.24167 11.375 6.63334 11.2833 6.05 11.1C5.46667 10.9167 4.93334 10.6583 4.45 10.325C4.3 10.7417 4.1875 11.1708 4.1125 11.6125C4.0375 12.0542 4 12.5167 4 13C4 15.2333 4.775 17.125 6.325 18.675C7.875 20.225 9.76667 21 12 21ZM15 15.25C15.35 15.25 15.6458 15.1292 15.8875 14.8875C16.1292 14.6458 16.25 14.35 16.25 14C16.25 13.65 16.1292 13.3542 15.8875 13.1125C15.6458 12.8708 15.35 12.75 15 12.75C14.65 12.75 14.3542 12.8708 14.1125 13.1125C13.8708 13.3542 13.75 13.65 13.75 14C13.75 14.35 13.8708 14.6458 14.1125 14.8875C14.3542 15.1292 14.65 15.25 15 15.25ZM9 15.25C9.35 15.25 9.64584 15.1292 9.8875 14.8875C10.1292 14.6458 10.25 14.35 10.25 14C10.25 13.65 10.1292 13.3542 9.8875 13.1125C9.64584 12.8708 9.35 12.75 9 12.75C8.65 12.75 8.35417 12.8708 8.1125 13.1125C7.87084 13.3542 7.75 13.65 7.75 14C7.75 14.35 7.87084 14.6458 8.1125 14.8875C8.35417 15.1292 8.65 15.25 9 15.25ZM21.65 10.4C21.9167 9.81667 22.0333 9.23333 22 8.65C21.9667 8.06667 21.7833 7.50833 21.45 6.975C21.0833 6.35833 20.5958 5.875 19.9875 5.525C19.3792 5.175 18.7167 5 18 5C18.4333 5.33333 18.8375 5.7 19.2125 6.1C19.5875 6.5 19.9333 6.925 20.25 7.375C20.5667 7.825 20.8417 8.30417 21.075 8.8125C21.3083 9.32083 21.5 9.85 21.65 10.4ZM2.35 10.4C2.5 9.85 2.69167 9.32083 2.925 8.8125C3.15834 8.30417 3.43334 7.825 3.75 7.375C4.06667 6.925 4.4125 6.5 4.7875 6.1C5.1625 5.7 5.56667 5.33333 6 5C5.28334 5 4.62084 5.175 4.0125 5.525C3.40417 5.875 2.91667 6.35833 2.55 6.975C2.21667 7.50833 2.03334 8.06667 2 8.65C1.96667 9.23333 2.08334 9.81667 2.35 10.4ZM7.875 9.375C9.025 9.375 10 8.975 10.8 8.175C11.6 7.375 12 6.4 12 5.25V5C11.3 5 10.6333 5.08333 10 5.25C9.36667 5.41667 8.76667 5.65833 8.2 5.975C7.63334 6.29167 7.10834 6.6625 6.625 7.0875C6.14167 7.5125 5.725 7.99167 5.375 8.525C5.725 8.79167 6.10834 9 6.525 9.15C6.94167 9.3 7.39167 9.375 7.875 9.375ZM9.225 3.4C9.65834 3.26667 10.1083 3.16667 10.575 3.1C11.0417 3.03333 11.5167 3 12 3C12.4833 3 12.9583 3.03333 13.425 3.1C13.8917 3.16667 14.3417 3.26667 14.775 3.4C14.4417 2.96667 14.0333 2.625 13.55 2.375C13.0667 2.125 12.55 2 12 2C11.45 2 10.9333 2.125 10.45 2.375C9.96667 2.625 9.55834 2.96667 9.225 3.4Z" fill="#1C1B1F"/>
<path d="M2.35 10.4C2.5 9.85 2.69167 9.32083 2.925 8.8125C3.15834 8.30417 3.43334 7.825 3.75 7.375C4.06667 6.925 4.4125 6.5 4.7875 6.1C5.1625 5.7 5.56667 5.33333 6 5C5.28334 5 4.62084 5.175 4.0125 5.525C3.40417 5.875 2.91667 6.35833 2.55 6.975C2.21667 7.50833 2.03334 8.06667 2 8.65C1.96667 9.23333 2.08334 9.81667 2.35 10.4Z" fill="inherit"/>
<path d="M9.225 3.4C9.65834 3.26667 10.1083 3.16667 10.575 3.1C11.0417 3.03333 11.5167 3 12 3C12.4833 3 12.9583 3.03333 13.425 3.1C13.8917 3.16667 14.3417 3.26667 14.775 3.4C14.4417 2.96667 14.0333 2.625 13.55 2.375C13.0667 2.125 12.55 2 12 2C11.45 2 10.9333 2.125 10.45 2.375C9.96667 2.625 9.55834 2.96667 9.225 3.4Z" fill="inherit"/>
<path d="M7.875 9.375C9.025 9.375 10 8.975 10.8 8.175C11.6 7.375 12 6.4 12 5.25V5C11.3 5 10.6333 5.08333 10 5.25C9.36667 5.41667 8.76667 5.65833 8.2 5.975C7.63334 6.29167 7.10834 6.6625 6.625 7.0875C6.14167 7.5125 5.725 7.99167 5.375 8.525C5.725 8.79167 6.10834 9 6.525 9.15C6.94167 9.3 7.39167 9.375 7.875 9.375Z" fill="inherit"/>
<path d="M21.65 10.4C21.9167 9.81667 22.0333 9.23333 22 8.65C21.9667 8.06667 21.7833 7.50833 21.45 6.975C21.0833 6.35833 20.5958 5.875 19.9875 5.525C19.3792 5.175 18.7167 5 18 5C18.4333 5.33333 18.8375 5.7 19.2125 6.1C19.5875 6.5 19.9333 6.925 20.25 7.375C20.5667 7.825 20.8417 8.30417 21.075 8.8125C21.3083 9.32083 21.5 9.85 21.65 10.4Z" fill="inherit"/>
<path d="M16.8 21.75C17.6667 22.0833 18.5375 22.0792 19.4125 21.7375C20.2875 21.3958 20.9667 20.825 21.45 20.025C21.8 19.4417 21.975 18.8125 21.975 18.1375C21.975 17.4625 21.8083 16.825 21.475 16.225C21.275 16.8083 21.0208 17.3708 20.7125 17.9125C20.4042 18.4542 20.05 18.9583 19.65 19.425C19.25 19.8917 18.8083 20.3208 18.325 20.7125C17.8417 21.1042 17.3333 21.45 16.8 21.75Z" fill="inherit"/>
<path d="M7.2 21.75C6.65 21.45 6.1375 21.1042 5.6625 20.7125C5.1875 20.3208 4.75 19.8917 4.35 19.425C3.95 18.9583 3.59584 18.4542 3.2875 17.9125C2.97917 17.3708 2.725 16.8083 2.525 16.225C2.19167 16.825 2.025 17.4625 2.025 18.1375C2.025 18.8125 2.2 19.4417 2.55 20.025C3.03334 20.825 3.7125 21.3958 4.5875 21.7375C5.4625 22.0792 6.33334 22.0833 7.2 21.75Z" fill="inherit"/>
</g>
</svg>
