<svg width="24" height="24" viewBox="0 0 24 24" fill="none" xmlns="http://www.w3.org/2000/svg">
<mask id="mask0_8_286" style="mask-type:alpha" maskUnits="userSpaceOnUse" x="0" y="0" width="24" height="24">
<rect width="24" height="24" transform="matrix(-1 0 0 1 24 0)" fill="#D9D9D9"/>
</mask>
<g mask="url(#mask0_8_286)">
<path d="M14 15.25C14.35 15.25 14.6458 15.1292 14.8875 14.8875C15.1292 14.6458 15.25 14.35 15.25 14C15.25 13.65 15.1292 13.3542 14.8875 13.1125C14.6458 12.8708 14.35 12.75 14 12.75C13.65 12.75 13.3542 12.8708 13.1125 13.1125C12.8708 13.3542 12.75 13.65 12.75 14C12.75 14.35 12.8708 14.6458 13.1125 14.8875C13.3542 15.1292 13.65 15.25 14 15.25ZM8 15.25C8.35 15.25 8.64583 15.1292 8.8875 14.8875C9.12917 14.6458 9.25 14.35 9.25 14C9.25 13.65 9.12917 13.3542 8.8875 13.1125C8.64583 12.8708 8.35 12.75 8 12.75C7.65 12.75 7.35417 12.8708 7.1125 13.1125C6.87083 13.3542 6.75 13.65 6.75 14C6.75 14.35 6.87083 14.6458 7.1125 14.8875C7.35417 15.1292 7.65 15.25 8 15.25ZM11 21C8.76667 21 6.875 20.225 5.325 18.675C3.775 17.125 3 15.2333 3 13C3 12.6 3.025 12.2125 3.075 11.8375C3.125 11.4625 3.21667 11.1 3.35 10.75C3.7 10.8333 4.05 10.8958 4.4 10.9375C4.75 10.9792 5.11667 11 5.5 11C7.01667 11 8.45 10.675 9.8 10.025C11.15 9.375 12.3 8.46667 13.25 7.3C13.7833 8.6 14.5458 9.72917 15.5375 10.6875C16.5292 11.6458 17.6833 12.3667 19 12.85V13C19 15.2333 18.225 17.125 16.675 18.675C15.125 20.225 13.2333 21 11 21ZM12.35 5.125C11.65 6.29167 10.7 7.22917 9.5 7.9375C8.3 8.64583 6.96667 9 5.5 9C5.26667 9 5.04167 8.9875 4.825 8.9625C4.60833 8.9375 4.38333 8.90833 4.15 8.875C4.85 7.70833 5.8 6.77083 7 6.0625C8.2 5.35417 9.53333 5 11 5C11.2333 5 11.4583 5.0125 11.675 5.0375C11.8917 5.0625 12.1167 5.09167 12.35 5.125ZM18.575 10.475C17.725 9.99167 16.9833 9.36667 16.35 8.6C15.7167 7.83333 15.2417 6.975 14.925 6.025C15.775 6.50833 16.5167 7.13333 17.15 7.9C17.7833 8.66667 18.2583 9.525 18.575 10.475ZM19.825 8.325C19.3583 7.44167 18.7708 6.64583 18.0625 5.9375C17.3542 5.22917 16.5583 4.64167 15.675 4.175C15.9583 3.825 16.3 3.54167 16.7 3.325C17.1 3.10833 17.5417 3 18.025 3C18.8583 3 19.5625 3.2875 20.1375 3.8625C20.7125 4.4375 21 5.14167 21 5.975C21 6.45833 20.8917 6.9 20.675 7.3C20.4583 7.7 20.175 8.04167 19.825 8.325ZM11 23C12.3833 23 13.6833 22.7375 14.9 22.2125C16.1167 21.6875 17.175 20.975 18.075 20.075C18.975 19.175 19.6875 18.1167 20.2125 16.9C20.7375 15.6833 21 14.3833 21 13C21 12.5167 20.9667 12.0375 20.9 11.5625C20.8333 11.0875 20.7333 10.6333 20.6 10.2C21.3167 9.76667 21.8958 9.17917 22.3375 8.4375C22.7792 7.69583 23 6.875 23 5.975C23 4.59167 22.5167 3.41667 21.55 2.45C20.5833 1.48333 19.4083 1 18.025 1C17.1417 1 16.3292 1.2125 15.5875 1.6375C14.8458 2.0625 14.25 2.65 13.8 3.4C13.3667 3.26667 12.9125 3.16667 12.4375 3.1C11.9625 3.03333 11.4833 3 11 3C9.61667 3 8.31667 3.2625 7.1 3.7875C5.88333 4.3125 4.825 5.025 3.925 5.925C3.025 6.825 2.3125 7.88333 1.7875 9.1C1.2625 10.3167 1 11.6167 1 13C1 14.3833 1.2625 15.6833 1.7875 16.9C2.3125 18.1167 3.025 19.175 3.925 20.075C4.825 20.975 5.88333 21.6875 7.1 22.2125C8.31667 22.7375 9.61667 23 11 23Z" fill="#1C1B1F"/>
<path d="M19.825 8.325C19.3583 7.44167 18.7708 6.64583 18.0625 5.9375C17.3542 5.22917 16.5583 4.64167 15.675 4.175C15.9583 3.825 16.3 3.54167 16.7 3.325C17.1 3.10833 17.5417 3 18.025 3C18.8583 3 19.5625 3.2875 20.1375 3.8625C20.7125 4.4375 21 5.14167 21 5.975C21 6.45833 20.8917 6.9 20.675 7.3C20.4583 7.7 20.175 8.04167 19.825 8.325Z" fill="inherit"/>
<path d="M19.825 8.325C19.3583 7.44167 18.7708 6.64583 18.0625 5.9375C17.3542 5.22917 16.5583 4.64167 15.675 4.175C15.9583 3.825 16.3 3.54167 16.7 3.325C17.1 3.10833 17.5417 3 18.025 3C18.8583 3 19.5625 3.2875 20.1375 3.8625C20.7125 4.4375 21 5.14167 21 5.975C21 6.45833 20.8917 6.9 20.675 7.3C20.4583 7.7 20.175 8.04167 19.825 8.325Z" fill="inherit"/>
<path d="M12.35 5.125C11.65 6.29167 10.7 7.22917 9.5 7.9375C8.3 8.64583 6.96667 9 5.5 9C5.26667 9 5.04167 8.9875 4.825 8.9625C4.60833 8.9375 4.38333 8.90833 4.15 8.875C4.85 7.70833 5.8 6.77083 7 6.0625C8.2 5.35417 9.53333 5 11 5C11.2333 5 11.4583 5.0125 11.675 5.0375C11.8917 5.0625 12.1167 5.09167 12.35 5.125Z" fill="inherit"/>
<path d="M18.575 10.475C17.725 9.99167 16.9833 9.36667 16.35 8.6C15.7167 7.83333 15.2417 6.975 14.925 6.025C15.775 6.50833 16.5167 7.13333 17.15 7.9C17.7833 8.66667 18.2583 9.525 18.575 10.475Z" fill="inherit"/>
</g>
</svg>
