<svg width="24" height="24" viewBox="0 0 24 24" fill="none" xmlns="http://www.w3.org/2000/svg">
<mask id="mask0_17_35" style="mask-type:alpha" maskUnits="userSpaceOnUse" x="0" y="0" width="24" height="24">
<rect width="24" height="24" transform="matrix(-1 0 0 1 24 0)" fill="#D9D9D9"/>
</mask>
<g mask="url(#mask0_17_35)">
<path d="M12 22C13.3667 22 14.6583 21.7375 15.875 21.2125C17.0917 20.6875 18.1542 19.9708 19.0625 19.0625C19.9708 18.1542 20.6875 17.0917 21.2125 15.875C21.7375 14.6583 22 13.3667 22 12C22 10.6167 21.7375 9.31667 21.2125 8.1C20.6875 6.88333 19.9708 5.825 19.0625 4.925C18.1542 4.025 17.0917 3.3125 15.875 2.7875C14.6583 2.2625 13.3667 2 12 2C10.6167 2 9.31667 2.2625 8.1 2.7875C6.88333 3.3125 5.825 4.025 4.925 4.925C4.025 5.825 3.3125 6.88333 2.7875 8.1C2.2625 9.31667 2 10.6167 2 12C2 13.3667 2.2625 14.6583 2.7875 15.875C3.3125 17.0917 4.025 18.1542 4.925 19.0625C5.825 19.9708 6.88333 20.6875 8.1 21.2125C9.31667 21.7375 10.6167 22 12 22ZM12 4C13.85 4 15.4833 4.55417 16.9 5.6625C18.3167 6.77083 19.2583 8.18333 19.725 9.9C19.3917 9.81667 19.0458 9.65417 18.6875 9.4125C18.3292 9.17083 17.9167 8.58333 17.45 7.65C17.2 7.13333 16.8333 6.72917 16.35 6.4375C15.8667 6.14583 15.3333 6 14.75 6H9.25C8.66667 6 8.13333 6.14583 7.65 6.4375C7.16667 6.72917 6.8 7.13333 6.55 7.65C6.08333 8.6 5.6625 9.19167 5.2875 9.425C4.9125 9.65833 4.575 9.81667 4.275 9.9C4.74167 8.18333 5.67917 6.77083 7.0875 5.6625C8.49583 4.55417 10.1333 4 12 4ZM12 20C9.76667 20 7.87083 19.2167 6.3125 17.65C4.75417 16.0833 3.98333 14.1833 4 11.95C5.18333 11.8333 6.09167 11.4625 6.725 10.8375C7.35833 10.2125 7.9 9.45 8.35 8.55C8.43333 8.36667 8.55417 8.22917 8.7125 8.1375C8.87083 8.04583 9.04167 8 9.225 8H14.75C14.95 8 15.1292 8.04583 15.2875 8.1375C15.4458 8.22917 15.5667 8.36667 15.65 8.55C16.1 9.46667 16.65 10.2375 17.3 10.8625C17.95 11.4875 18.85 11.8583 20 11.975C20 14.2083 19.2208 16.1042 17.6625 17.6625C16.1042 19.2208 14.2167 20 12 20ZM15 14.25C15.35 14.25 15.6458 14.1292 15.8875 13.8875C16.1292 13.6458 16.25 13.35 16.25 13C16.25 12.65 16.1292 12.3542 15.8875 12.1125C15.6458 11.8708 15.35 11.75 15 11.75C14.65 11.75 14.3542 11.8708 14.1125 12.1125C13.8708 12.3542 13.75 12.65 13.75 13C13.75 13.35 13.8708 13.6458 14.1125 13.8875C14.3542 14.1292 14.65 14.25 15 14.25ZM9 14.25C9.35 14.25 9.64583 14.1292 9.8875 13.8875C10.1292 13.6458 10.25 13.35 10.25 13C10.25 12.65 10.1292 12.3542 9.8875 12.1125C9.64583 11.8708 9.35 11.75 9 11.75C8.65 11.75 8.35417 11.8708 8.1125 12.1125C7.87083 12.3542 7.75 12.65 7.75 13C7.75 13.35 7.87083 13.6458 8.1125 13.8875C8.35417 14.1292 8.65 14.25 9 14.25Z" fill="#1C1B1F"/>
<path d="M8 18C8.5 18 9 18 9.5 18C10 17 10.8614 16.3 12 16.3C13.1386 16.3 14 17 14.5 18C15 18 15.5 18 16 18C15.5 16.5 13.8421 15 12 15C10.1579 15 8.5 16.5 8 18Z" fill="#1C1B1F"/>
</g>
</svg>
