<svg width="24" height="24" viewBox="0 0 24 24" fill="inherit" xmlns="http://www.w3.org/2000/svg">
<g mask="url(#mask0_8_277)">
<path d="M15 14.25C15.35 14.25 15.6458 14.1292 15.8875 13.8875C16.1292 13.6458 16.25 13.35 16.25 13C16.25 12.65 16.1292 12.3542 15.8875 12.1125C15.6458 11.8708 15.35 11.75 15 11.75C14.65 11.75 14.3542 11.8708 14.1125 12.1125C13.8708 12.3542 13.75 12.65 13.75 13C13.75 13.35 13.8708 13.6458 14.1125 13.8875C14.3542 14.1292 14.65 14.25 15 14.25ZM9 14.25C9.35 14.25 9.64583 14.1292 9.8875 13.8875C10.1292 13.6458 10.25 13.35 10.25 13C10.25 12.65 10.1292 12.3542 9.8875 12.1125C9.64583 11.8708 9.35 11.75 9 11.75C8.65 11.75 8.35417 11.8708 8.1125 12.1125C7.87083 12.3542 7.75 12.65 7.75 13C7.75 13.35 7.87083 13.6458 8.1125 13.8875C8.35417 14.1292 8.65 14.25 9 14.25ZM12 20C9.76667 20 7.875 19.225 6.325 17.675C4.775 16.125 4 14.2333 4 12C4 11.6 4.025 11.2125 4.075 10.8375C4.125 10.4625 4.21667 10.1 4.35 9.75C4.7 9.83333 5.05 9.89583 5.4 9.9375C5.75 9.97917 6.11667 10 6.5 10C8.01667 10 9.45 9.675 10.8 9.025C12.15 8.375 13.3 7.46667 14.25 6.3C14.7833 7.6 15.5458 8.72917 16.5375 9.6875C17.5292 10.6458 18.6833 11.3667 20 11.85V12C20 14.2333 19.225 16.125 17.675 17.675C16.125 19.225 14.2333 20 12 20ZM12 22C13.3833 22 14.6833 21.7375 15.9 21.2125C17.1167 20.6875 18.175 19.975 19.075 19.075C19.975 18.175 20.6875 17.1167 21.2125 15.9C21.7375 14.6833 22 13.3833 22 12C22 10.6167 21.7375 9.31667 21.2125 8.1C20.6875 6.88333 19.975 5.825 19.075 4.925C18.175 4.025 17.1167 3.3125 15.9 2.7875C14.6833 2.2625 13.3833 2 12 2C10.6167 2 9.31667 2.2625 8.1 2.7875C6.88333 3.3125 5.825 4.025 4.925 4.925C4.025 5.825 3.3125 6.88333 2.7875 8.1C2.2625 9.31667 2 10.6167 2 12C2 13.3833 2.2625 14.6833 2.7875 15.9C3.3125 17.1167 4.025 18.175 4.925 19.075C5.825 19.975 6.88333 20.6875 8.1 21.2125C9.31667 21.7375 10.6167 22 12 22ZM13.35 4.125C12.65 5.29167 11.7 6.22917 10.5 6.9375C9.3 7.64583 7.96667 8 6.5 8C6.26667 8 6.04167 7.9875 5.825 7.9625C5.60833 7.9375 5.38333 7.90833 5.15 7.875C5.85 6.70833 6.8 5.77083 8 5.0625C9.2 4.35417 10.5333 4 12 4C12.2333 4 12.4583 4.0125 12.675 4.0375C12.8917 4.0625 13.1167 4.09167 13.35 4.125ZM19.575 9.475C18.725 8.99167 17.9833 8.36667 17.35 7.6C16.7167 6.83333 16.2417 5.975 15.925 5.025C16.775 5.50833 17.5167 6.13333 18.15 6.9C18.7833 7.66667 19.2583 8.525 19.575 9.475Z" fill="#1C1B1F"/>
<path d="M13.35 4.125C12.65 5.29167 11.7 6.22917 10.5 6.9375C9.3 7.64583 7.96667 8 6.5 8C6.26667 8 6.04167 7.9875 5.825 7.9625C5.60833 7.9375 5.38333 7.90833 5.15 7.875C5.85 6.70833 6.8 5.77083 8 5.0625C9.2 4.35417 10.5333 4 12 4C12.2333 4 12.4583 4.0125 12.675 4.0375C12.8917 4.0625 13.1167 4.09167 13.35 4.125Z" fill="inherit"/>
<path d="M19.575 9.475C18.725 8.99167 17.9833 8.36667 17.35 7.6C16.7167 6.83333 16.2417 5.975 15.925 5.025C16.775 5.50833 17.5167 6.13333 18.15 6.9C18.7833 7.66667 19.2583 8.525 19.575 9.475Z" fill="inherit"/>
</g>
</svg>
