<svg width="24" height="24" viewBox="0 0 24 24" fill="inherit" xmlns="http://www.w3.org/2000/svg">
<g mask="url(#mask0_8_283)">
<path d="M12.1917 19C9.95833 19 8.06667 18.2208 6.51667 16.6625C4.96667 15.1042 4.19167 13.2167 4.19167 11C4.19167 10.4833 4.23333 9.9875 4.31667 9.5125C4.4 9.0375 4.53333 8.575 4.71667 8.125C5.16667 8.40833 5.64167 8.625 6.14167 8.775C6.64167 8.925 7.15833 9 7.69167 9C8.59167 9 9.4375 8.79583 10.2292 8.3875C11.0208 7.97917 11.675 7.4 12.1917 6.65C12.7083 7.4 13.3625 7.97917 14.1542 8.3875C14.9458 8.79583 15.7917 9 16.6917 9C17.225 9 17.7417 8.925 18.2417 8.775C18.7417 8.625 19.2167 8.40833 19.6667 8.125C19.85 8.575 19.9833 9.0375 20.0667 9.5125C20.15 9.9875 20.1917 10.4833 20.1917 11C20.1917 13.2167 19.4125 15.1042 17.8542 16.6625C16.2958 18.2208 14.4083 19 12.1917 19ZM15.1917 13.25C14.8417 13.25 14.5458 13.1292 14.3042 12.8875C14.0625 12.6458 13.9417 12.35 13.9417 12C13.9417 11.65 14.0625 11.3542 14.3042 11.1125C14.5458 10.8708 14.8417 10.75 15.1917 10.75C15.5417 10.75 15.8375 10.8708 16.0792 11.1125C16.3208 11.3542 16.4417 11.65 16.4417 12C16.4417 12.35 16.3208 12.6458 16.0792 12.8875C15.8375 13.1292 15.5417 13.25 15.1917 13.25ZM9.19167 13.25C8.84167 13.25 8.54583 13.1292 8.30417 12.8875C8.0625 12.6458 7.94167 12.35 7.94167 12C7.94167 11.65 8.0625 11.3542 8.30417 11.1125C8.54583 10.8708 8.84167 10.75 9.19167 10.75C9.54167 10.75 9.8375 10.8708 10.0792 11.1125C10.3208 11.3542 10.4417 11.65 10.4417 12C10.4417 12.35 10.3208 12.6458 10.0792 12.8875C9.8375 13.1292 9.54167 13.25 9.19167 13.25ZM16.6917 7C15.725 7 14.9 6.65833 14.2167 5.975C13.5333 5.29167 13.1917 4.46667 13.1917 3.5V3.05C14.325 3.18333 15.3667 3.54167 16.3167 4.125C17.2667 4.70833 18.0583 5.45 18.6917 6.35C18.3917 6.55 18.075 6.70833 17.7417 6.825C17.4083 6.94167 17.0583 7 16.6917 7ZM7.69167 7C7.325 7 6.975 6.94583 6.64167 6.8375C6.30833 6.72917 5.99167 6.56667 5.69167 6.35C6.325 5.45 7.1125 4.70833 8.05417 4.125C8.99583 3.54167 10.0417 3.18333 11.1917 3.05V3.5C11.1917 4.46667 10.85 5.29167 10.1667 5.975C9.48333 6.65833 8.65833 7 7.69167 7ZM21.9917 23C22.575 23 23.0667 22.7833 23.4667 22.35C23.8667 21.9167 24.0417 21.4083 23.9917 20.825L23.0917 10.95C22.9583 9.55 22.5792 8.24167 21.9542 7.025C21.3292 5.80833 20.5292 4.75417 19.5542 3.8625C18.5792 2.97083 17.4625 2.27083 16.2042 1.7625C14.9458 1.25417 13.6083 1 12.1917 1C10.775 1 9.4375 1.25417 8.17917 1.7625C6.92083 2.27083 5.80417 2.97083 4.82917 3.8625C3.85417 4.75417 3.05417 5.80833 2.42917 7.025C1.80417 8.24167 1.425 9.55 1.29167 10.95L0.391666 20.825C0.341666 21.4083 0.516666 21.9167 0.916666 22.35C1.31667 22.7833 1.80833 23 2.39167 23H21.9917ZM12.1917 21C14.275 21 16.15 20.4208 17.8167 19.2625C19.4833 18.1042 20.6917 16.6167 21.4417 14.8L21.9917 21H2.39167L2.94167 14.8C3.69167 16.6167 4.89583 18.1042 6.55417 19.2625C8.2125 20.4208 10.0917 21 12.1917 21ZM12.1917 21H2.39167H21.9917H12.1917Z" fill="#1C1B1F"/>
<path d="M7.69167 7C7.325 7 6.975 6.94583 6.64167 6.8375C6.30833 6.72917 5.99167 6.56667 5.69167 6.35C6.325 5.45 7.1125 4.70833 8.05417 4.125C8.99583 3.54167 10.0417 3.18333 11.1917 3.05V3.5C11.1917 4.46667 10.85 5.29167 10.1667 5.975C9.48333 6.65833 8.65833 7 7.69167 7Z" fill="inherit"/>
<path d="M16.6917 7C15.725 7 14.9 6.65833 14.2167 5.975C13.5333 5.29167 13.1917 4.46667 13.1917 3.5V3.05C14.325 3.18333 15.3667 3.54167 16.3167 4.125C17.2667 4.70833 18.0583 5.45 18.6917 6.35C18.3917 6.55 18.075 6.70833 17.7417 6.825C17.4083 6.94167 17.0583 7 16.6917 7Z" fill="inherit"/>
<path d="M12.1917 21H2.39167L2.94167 14.8C3.69167 16.6167 4.89583 18.1042 6.55417 19.2625C8.2125 20.4208 10.0917 21 12.1917 21Z" fill="inherit"/>
<path d="M12.1917 21C14.275 21 16.15 20.4208 17.8167 19.2625C19.4833 18.1042 20.6917 16.6167 21.4417 14.8L21.9917 21H12.1917Z" fill="inherit"/>
</g>
</svg>
