<svg width="24" height="24" viewBox="0 0 24 24" fill="none" xmlns="http://www.w3.org/2000/svg">
<mask id="mask0_8_289" style="mask-type:alpha" maskUnits="userSpaceOnUse" x="0" y="0" width="24" height="24">
<rect width="24" height="24" transform="matrix(-1 0 0 1 24 0)" fill="#D9D9D9"/>
</mask>
<g mask="url(#mask0_8_289)">
<path fill-rule="evenodd" clip-rule="evenodd" d="M15.5 8.5C15.5 8.36667 15.45 8.25 15.35 8.15C15.25 8.05 15.1333 8 15 8C14.8667 8 14.75 8.05 14.65 8.15C14.55 8.25 14.5 8.36667 14.5 8.5H13.5C13.5 8.36667 13.45 8.25 13.35 8.15C13.25 8.05 13.1333 8 13 8C12.8667 8 12.75 8.05 12.65 8.15C12.55 8.25 12.5 8.36667 12.5 8.5H11.5C11.5 8.36667 11.45 8.25 11.35 8.15C11.25 8.05 11.1333 8 11 8C10.8667 8 10.75 8.05 10.65 8.15C10.55 8.25 10.5 8.36667 10.5 8.5H9.5C9.5 8.36667 9.45 8.25 9.35 8.15C9.25 8.05 9.13333 8 9 8C8.86667 8 8.75 8.05 8.65 8.15C8.55 8.25 8.5 8.36667 8.5 8.5H7.5C7.5 8.36667 7.45 8.25 7.35 8.15C7.25 8.05 7.13333 8 7 8C6.86667 8 6.75 8.05 6.65 8.15C6.55 8.25 6.5 8.36667 6.5 8.5H5.5C5.5 8.36667 5.45 8.25 5.35 8.15C5.25668 8.05668 5.14885 8.0069 5.0265 8.00067C5.37208 7.40364 5.80491 6.84509 6.325 6.325C6.70742 5.94258 7.11065 5.60733 7.53467 5.31926C7.51156 5.37565 7.5 5.4359 7.5 5.5C7.5 5.63333 7.55 5.75 7.65 5.85C7.75 5.95 7.86667 6 8 6C8.13333 6 8.25 5.95 8.35 5.85C8.45 5.75 8.5 5.63333 8.5 5.5C8.5 5.36667 8.45 5.25 8.35 5.15C8.26105 5.06106 8.15893 5.01167 8.04361 5.00183C8.21276 4.90541 8.38497 4.81594 8.56026 4.73344C8.58346 4.77453 8.61338 4.81338 8.65 4.85C8.75 4.95 8.86667 5 9 5C9.13333 5 9.25 4.95 9.35 4.85C9.45 4.75 9.5 4.63333 9.5 4.5C9.5 4.45555 9.49444 4.41296 9.48333 4.37221C9.8814 4.24625 10.2936 4.15226 10.7198 4.09024C10.6957 4.10764 10.6724 4.12756 10.65 4.15C10.55 4.25 10.5 4.36667 10.5 4.5C10.5 4.63333 10.55 4.75 10.65 4.85C10.75 4.95 10.8667 5 11 5C11.1333 5 11.25 4.95 11.35 4.85C11.45 4.75 11.5 4.63333 11.5 4.5C11.5 4.36667 11.45 4.25 11.35 4.15C11.2989 4.0989 11.2434 4.06086 11.1836 4.03587C11.4505 4.01196 11.7226 4 12 4C12.2769 4 12.5487 4.0121 12.8154 4.03629C12.7559 4.06128 12.7008 4.09918 12.65 4.15C12.55 4.25 12.5 4.36667 12.5 4.5C12.5 4.63333 12.55 4.75 12.65 4.85C12.75 4.95 12.8667 5 13 5C13.1333 5 13.25 4.95 13.35 4.85C13.45 4.75 13.5 4.63333 13.5 4.5C13.5 4.36667 13.45 4.25 13.35 4.15C13.3282 4.12822 13.3057 4.10882 13.2823 4.09179C13.707 4.1545 14.1181 4.24934 14.5156 4.37632C14.5052 4.41582 14.5 4.45704 14.5 4.5C14.5 4.63333 14.55 4.75 14.65 4.85C14.75 4.95 14.8667 5 15 5C15.1333 5 15.25 4.95 15.35 4.85C15.3848 4.81518 15.4136 4.77834 15.4363 4.73948C15.6078 4.82071 15.7764 4.90863 15.9422 5.00325C15.8327 5.0158 15.7353 5.06472 15.65 5.15C15.55 5.25 15.5 5.36667 15.5 5.5C15.5 5.63333 15.55 5.75 15.65 5.85C15.75 5.95 15.8667 6 16 6C16.1333 6 16.25 5.95 16.35 5.85C16.45 5.75 16.5 5.63333 16.5 5.5C16.5 5.44162 16.4904 5.38643 16.4712 5.33444C16.8877 5.61909 17.2848 5.94928 17.6625 6.325C18.1855 6.84518 18.6207 7.40383 18.9682 8.00097C18.848 8.00837 18.742 8.05804 18.65 8.15C18.55 8.25 18.5 8.36667 18.5 8.5H17.5C17.5 8.36667 17.45 8.25 17.35 8.15C17.25 8.05 17.1333 8 17 8C16.8667 8 16.75 8.05 16.65 8.15C16.55 8.25 16.5 8.36667 16.5 8.5H15.5ZM12.35 5.85C12.25 5.95 12.1333 6 12 6C11.8667 6 11.75 5.95 11.65 5.85C11.55 5.75 11.5 5.63333 11.5 5.5C11.5 5.36667 11.55 5.25 11.65 5.15C11.75 5.05 11.8667 5 12 5C12.1333 5 12.25 5.05 12.35 5.15C12.45 5.25 12.5 5.36667 12.5 5.5C12.5 5.63333 12.45 5.75 12.35 5.85ZM10.35 5.85C10.25 5.95 10.1333 6 10 6C9.86667 6 9.75 5.95 9.65 5.85C9.55 5.75 9.5 5.63333 9.5 5.5C9.5 5.36667 9.55 5.25 9.65 5.15C9.75 5.05 9.86667 5 10 5C10.1333 5 10.25 5.05 10.35 5.15C10.45 5.25 10.5 5.36667 10.5 5.5C10.5 5.63333 10.45 5.75 10.35 5.85ZM14.35 5.85C14.25 5.95 14.1333 6 14 6C13.8667 6 13.75 5.95 13.65 5.85C13.55 5.75 13.5 5.63333 13.5 5.5C13.5 5.36667 13.55 5.25 13.65 5.15C13.75 5.05 13.8667 5 14 5C14.1333 5 14.25 5.05 14.35 5.15C14.45 5.25 14.5 5.36667 14.5 5.5C14.5 5.63333 14.45 5.75 14.35 5.85ZM7.35 6.85C7.25 6.95 7.13333 7 7 7C6.86667 7 6.75 6.95 6.65 6.85C6.55 6.75 6.5 6.63333 6.5 6.5C6.5 6.36667 6.55 6.25 6.65 6.15C6.75 6.05 6.86667 6 7 6C7.13333 6 7.25 6.05 7.35 6.15C7.45 6.25 7.5 6.36667 7.5 6.5C7.5 6.63333 7.45 6.75 7.35 6.85ZM15.35 6.85C15.25 6.95 15.1333 7 15 7C14.8667 7 14.75 6.95 14.65 6.85C14.55 6.75 14.5 6.63333 14.5 6.5C14.5 6.36667 14.55 6.25 14.65 6.15C14.75 6.05 14.8667 6 15 6C15.1333 6 15.25 6.05 15.35 6.15C15.45 6.25 15.5 6.36667 15.5 6.5C15.5 6.63333 15.45 6.75 15.35 6.85ZM17.35 6.85C17.25 6.95 17.1333 7 17 7C16.8667 7 16.75 6.95 16.65 6.85C16.55 6.75 16.5 6.63333 16.5 6.5C16.5 6.36667 16.55 6.25 16.65 6.15C16.75 6.05 16.8667 6 17 6C17.1333 6 17.25 6.05 17.35 6.15C17.45 6.25 17.5 6.36667 17.5 6.5C17.5 6.63333 17.45 6.75 17.35 6.85ZM13.35 6.85C13.25 6.95 13.1333 7 13 7C12.8667 7 12.75 6.95 12.65 6.85C12.55 6.75 12.5 6.63333 12.5 6.5C12.5 6.36667 12.55 6.25 12.65 6.15C12.75 6.05 12.8667 6 13 6C13.1333 6 13.25 6.05 13.35 6.15C13.45 6.25 13.5 6.36667 13.5 6.5C13.5 6.63333 13.45 6.75 13.35 6.85ZM11.35 6.85C11.25 6.95 11.1333 7 11 7C10.8667 7 10.75 6.95 10.65 6.85C10.55 6.75 10.5 6.63333 10.5 6.5C10.5 6.36667 10.55 6.25 10.65 6.15C10.75 6.05 10.8667 6 11 6C11.1333 6 11.25 6.05 11.35 6.15C11.45 6.25 11.5 6.36667 11.5 6.5C11.5 6.63333 11.45 6.75 11.35 6.85ZM9.35 6.85C9.25 6.95 9.13333 7 9 7C8.86667 7 8.75 6.95 8.65 6.85C8.55 6.75 8.5 6.63333 8.5 6.5C8.5 6.36667 8.55 6.25 8.65 6.15C8.75 6.05 8.86667 6 9 6C9.13333 6 9.25 6.05 9.35 6.15C9.45 6.25 9.5 6.36667 9.5 6.5C9.5 6.63333 9.45 6.75 9.35 6.85ZM12.35 7.85C12.25 7.95 12.1333 8 12 8C11.8667 8 11.75 7.95 11.65 7.85C11.55 7.75 11.5 7.63333 11.5 7.5C11.5 7.36667 11.55 7.25 11.65 7.15C11.75 7.05 11.8667 7 12 7C12.1333 7 12.25 7.05 12.35 7.15C12.45 7.25 12.5 7.36667 12.5 7.5C12.5 7.63333 12.45 7.75 12.35 7.85ZM10.35 7.85C10.25 7.95 10.1333 8 10 8C9.86667 8 9.75 7.95 9.65 7.85C9.55 7.75 9.5 7.63333 9.5 7.5C9.5 7.36667 9.55 7.25 9.65 7.15C9.75 7.05 9.86667 7 10 7C10.1333 7 10.25 7.05 10.35 7.15C10.45 7.25 10.5 7.36667 10.5 7.5C10.5 7.63333 10.45 7.75 10.35 7.85ZM8.35 7.85C8.25 7.95 8.13333 8 8 8C7.86667 8 7.75 7.95 7.65 7.85C7.55 7.75 7.5 7.63333 7.5 7.5C7.5 7.36667 7.55 7.25 7.65 7.15C7.75 7.05 7.86667 7 8 7C8.13333 7 8.25 7.05 8.35 7.15C8.45 7.25 8.5 7.36667 8.5 7.5C8.5 7.63333 8.45 7.75 8.35 7.85ZM14.35 7.85C14.25 7.95 14.1333 8 14 8C13.8667 8 13.75 7.95 13.65 7.85C13.55 7.75 13.5 7.63333 13.5 7.5C13.5 7.36667 13.55 7.25 13.65 7.15C13.75 7.05 13.8667 7 14 7C14.1333 7 14.25 7.05 14.35 7.15C14.45 7.25 14.5 7.36667 14.5 7.5C14.5 7.63333 14.45 7.75 14.35 7.85ZM16.35 7.85C16.25 7.95 16.1333 8 16 8C15.8667 8 15.75 7.95 15.65 7.85C15.55 7.75 15.5 7.63333 15.5 7.5C15.5 7.36667 15.55 7.25 15.65 7.15C15.75 7.05 15.8667 7 16 7C16.1333 7 16.25 7.05 16.35 7.15C16.45 7.25 16.5 7.36667 16.5 7.5C16.5 7.63333 16.45 7.75 16.35 7.85ZM18.35 7.85C18.25 7.95 18.1333 8 18 8C17.8667 8 17.75 7.95 17.65 7.85C17.55 7.75 17.5 7.63333 17.5 7.5C17.5 7.36667 17.55 7.25 17.65 7.15C17.75 7.05 17.8667 7 18 7C18.1333 7 18.25 7.05 18.35 7.15C18.45 7.25 18.5 7.36667 18.5 7.5C18.5 7.63333 18.45 7.75 18.35 7.85ZM6.35 7.85C6.25 7.95 6.13333 8 6 8C5.86667 8 5.75 7.95 5.65 7.85C5.55 7.75 5.5 7.63333 5.5 7.5C5.5 7.36667 5.55 7.25 5.65 7.15C5.75 7.05 5.86667 7 6 7C6.13333 7 6.25 7.05 6.35 7.15C6.45 7.25 6.5 7.36667 6.5 7.5C6.5 7.63333 6.45 7.75 6.35 7.85Z" fill="inherit"/>
<path fill-rule="evenodd" clip-rule="evenodd" d="M12.35 5.85C12.25 5.95 12.1333 6 12 6C11.8667 6 11.75 5.95 11.65 5.85C11.55 5.75 11.5 5.63333 11.5 5.5C11.5 5.36667 11.55 5.25 11.65 5.15C11.75 5.05 11.8667 5 12 5C12.1333 5 12.25 5.05 12.35 5.15C12.45 5.25 12.5 5.36667 12.5 5.5C12.5 5.63333 12.45 5.75 12.35 5.85ZM10.35 5.85C10.25 5.95 10.1333 6 10 6C9.86667 6 9.75 5.95 9.65 5.85C9.55 5.75 9.5 5.63333 9.5 5.5C9.5 5.36667 9.55 5.25 9.65 5.15C9.75 5.05 9.86667 5 10 5C10.1333 5 10.25 5.05 10.35 5.15C10.45 5.25 10.5 5.36667 10.5 5.5C10.5 5.63333 10.45 5.75 10.35 5.85ZM14.35 5.85C14.25 5.95 14.1333 6 14 6C13.8667 6 13.75 5.95 13.65 5.85C13.55 5.75 13.5 5.63333 13.5 5.5C13.5 5.36667 13.55 5.25 13.65 5.15C13.75 5.05 13.8667 5 14 5C14.1333 5 14.25 5.05 14.35 5.15C14.45 5.25 14.5 5.36667 14.5 5.5C14.5 5.63333 14.45 5.75 14.35 5.85ZM7.35 6.85C7.25 6.95 7.13333 7 7 7C6.86667 7 6.75 6.95 6.65 6.85C6.55 6.75 6.5 6.63333 6.5 6.5C6.5 6.36667 6.55 6.25 6.65 6.15C6.75 6.05 6.86667 6 7 6C7.13333 6 7.25 6.05 7.35 6.15C7.45 6.25 7.5 6.36667 7.5 6.5C7.5 6.63333 7.45 6.75 7.35 6.85ZM15.35 6.85C15.25 6.95 15.1333 7 15 7C14.8667 7 14.75 6.95 14.65 6.85C14.55 6.75 14.5 6.63333 14.5 6.5C14.5 6.36667 14.55 6.25 14.65 6.15C14.75 6.05 14.8667 6 15 6C15.1333 6 15.25 6.05 15.35 6.15C15.45 6.25 15.5 6.36667 15.5 6.5C15.5 6.63333 15.45 6.75 15.35 6.85ZM17.35 6.85C17.25 6.95 17.1333 7 17 7C16.8667 7 16.75 6.95 16.65 6.85C16.55 6.75 16.5 6.63333 16.5 6.5C16.5 6.36667 16.55 6.25 16.65 6.15C16.75 6.05 16.8667 6 17 6C17.1333 6 17.25 6.05 17.35 6.15C17.45 6.25 17.5 6.36667 17.5 6.5C17.5 6.63333 17.45 6.75 17.35 6.85ZM13.35 6.85C13.25 6.95 13.1333 7 13 7C12.8667 7 12.75 6.95 12.65 6.85C12.55 6.75 12.5 6.63333 12.5 6.5C12.5 6.36667 12.55 6.25 12.65 6.15C12.75 6.05 12.8667 6 13 6C13.1333 6 13.25 6.05 13.35 6.15C13.45 6.25 13.5 6.36667 13.5 6.5C13.5 6.63333 13.45 6.75 13.35 6.85ZM11.35 6.85C11.25 6.95 11.1333 7 11 7C10.8667 7 10.75 6.95 10.65 6.85C10.55 6.75 10.5 6.63333 10.5 6.5C10.5 6.36667 10.55 6.25 10.65 6.15C10.75 6.05 10.8667 6 11 6C11.1333 6 11.25 6.05 11.35 6.15C11.45 6.25 11.5 6.36667 11.5 6.5C11.5 6.63333 11.45 6.75 11.35 6.85ZM9.35 6.85C9.25 6.95 9.13333 7 9 7C8.86667 7 8.75 6.95 8.65 6.85C8.55 6.75 8.5 6.63333 8.5 6.5C8.5 6.36667 8.55 6.25 8.65 6.15C8.75 6.05 8.86667 6 9 6C9.13333 6 9.25 6.05 9.35 6.15C9.45 6.25 9.5 6.36667 9.5 6.5C9.5 6.63333 9.45 6.75 9.35 6.85ZM12.35 7.85C12.25 7.95 12.1333 8 12 8C11.8667 8 11.75 7.95 11.65 7.85C11.55 7.75 11.5 7.63333 11.5 7.5C11.5 7.36667 11.55 7.25 11.65 7.15C11.75 7.05 11.8667 7 12 7C12.1333 7 12.25 7.05 12.35 7.15C12.45 7.25 12.5 7.36667 12.5 7.5C12.5 7.63333 12.45 7.75 12.35 7.85ZM10.35 7.85C10.25 7.95 10.1333 8 10 8C9.86667 8 9.75 7.95 9.65 7.85C9.55 7.75 9.5 7.63333 9.5 7.5C9.5 7.36667 9.55 7.25 9.65 7.15C9.75 7.05 9.86667 7 10 7C10.1333 7 10.25 7.05 10.35 7.15C10.45 7.25 10.5 7.36667 10.5 7.5C10.5 7.63333 10.45 7.75 10.35 7.85ZM8.35 7.85C8.25 7.95 8.13333 8 8 8C7.86667 8 7.75 7.95 7.65 7.85C7.55 7.75 7.5 7.63333 7.5 7.5C7.5 7.36667 7.55 7.25 7.65 7.15C7.75 7.05 7.86667 7 8 7C8.13333 7 8.25 7.05 8.35 7.15C8.45 7.25 8.5 7.36667 8.5 7.5C8.5 7.63333 8.45 7.75 8.35 7.85ZM14.35 7.85C14.25 7.95 14.1333 8 14 8C13.8667 8 13.75 7.95 13.65 7.85C13.55 7.75 13.5 7.63333 13.5 7.5C13.5 7.36667 13.55 7.25 13.65 7.15C13.75 7.05 13.8667 7 14 7C14.1333 7 14.25 7.05 14.35 7.15C14.45 7.25 14.5 7.36667 14.5 7.5C14.5 7.63333 14.45 7.75 14.35 7.85ZM16.35 7.85C16.25 7.95 16.1333 8 16 8C15.8667 8 15.75 7.95 15.65 7.85C15.55 7.75 15.5 7.63333 15.5 7.5C15.5 7.36667 15.55 7.25 15.65 7.15C15.75 7.05 15.8667 7 16 7C16.1333 7 16.25 7.05 16.35 7.15C16.45 7.25 16.5 7.36667 16.5 7.5C16.5 7.63333 16.45 7.75 16.35 7.85ZM15.35 8.85C15.25 8.95 15.1333 9 15 9C14.8667 9 14.75 8.95 14.65 8.85C14.55 8.75 14.5 8.63333 14.5 8.5C14.5 8.36667 14.55 8.25 14.65 8.15C14.75 8.05 14.8667 8 15 8C15.1333 8 15.25 8.05 15.35 8.15C15.45 8.25 15.5 8.36667 15.5 8.5C15.5 8.63333 15.45 8.75 15.35 8.85ZM17.35 8.85C17.25 8.95 17.1333 9 17 9C16.8667 9 16.75 8.95 16.65 8.85C16.55 8.75 16.5 8.63333 16.5 8.5C16.5 8.36667 16.55 8.25 16.65 8.15C16.75 8.05 16.8667 8 17 8C17.1333 8 17.25 8.05 17.35 8.15C17.45 8.25 17.5 8.36667 17.5 8.5C17.5 8.63333 17.45 8.75 17.35 8.85ZM13.35 8.85C13.25 8.95 13.1333 9 13 9C12.8667 9 12.75 8.95 12.65 8.85C12.55 8.75 12.5 8.63333 12.5 8.5C12.5 8.36667 12.55 8.25 12.65 8.15C12.75 8.05 12.8667 8 13 8C13.1333 8 13.25 8.05 13.35 8.15C13.45 8.25 13.5 8.36667 13.5 8.5C13.5 8.63333 13.45 8.75 13.35 8.85ZM11.35 8.85C11.25 8.95 11.1333 9 11 9C10.8667 9 10.75 8.95 10.65 8.85C10.55 8.75 10.5 8.63333 10.5 8.5C10.5 8.36667 10.55 8.25 10.65 8.15C10.75 8.05 10.8667 8 11 8C11.1333 8 11.25 8.05 11.35 8.15C11.45 8.25 11.5 8.36667 11.5 8.5C11.5 8.63333 11.45 8.75 11.35 8.85ZM9.35 8.85C9.25 8.95 9.13333 9 9 9C8.86667 9 8.75 8.95 8.65 8.85C8.55 8.75 8.5 8.63333 8.5 8.5C8.5 8.36667 8.55 8.25 8.65 8.15C8.75 8.05 8.86667 8 9 8C9.13333 8 9.25 8.05 9.35 8.15C9.45 8.25 9.5 8.36667 9.5 8.5C9.5 8.63333 9.45 8.75 9.35 8.85ZM7.35 8.85C7.25 8.95 7.13333 9 7 9C6.86667 9 6.75 8.95 6.65 8.85C6.55 8.75 6.5 8.63333 6.5 8.5C6.5 8.36667 6.55 8.25 6.65 8.15C6.75 8.05 6.86667 8 7 8C7.13333 8 7.25 8.05 7.35 8.15C7.45 8.25 7.5 8.36667 7.5 8.5C7.5 8.63333 7.45 8.75 7.35 8.85ZM19.35 8.85C19.25 8.95 19.1333 9 19 9C18.8667 9 18.75 8.95 18.65 8.85C18.55 8.75 18.5 8.63333 18.5 8.5C18.5 8.36667 18.55 8.25 18.65 8.15C18.742 8.05804 18.848 8.00837 18.9682 8.00097C18.6207 7.40383 18.1855 6.84518 17.6625 6.325C17.2848 5.94928 16.8877 5.61909 16.4712 5.33444C16.4904 5.38643 16.5 5.44162 16.5 5.5C16.5 5.63333 16.45 5.75 16.35 5.85C16.25 5.95 16.1333 6 16 6C15.8667 6 15.75 5.95 15.65 5.85C15.55 5.75 15.5 5.63333 15.5 5.5C15.5 5.36667 15.55 5.25 15.65 5.15C15.7353 5.06472 15.8327 5.0158 15.9422 5.00325C15.7764 4.90863 15.6078 4.82071 15.4363 4.73948C15.4136 4.77834 15.3848 4.81518 15.35 4.85C15.25 4.95 15.1333 5 15 5C14.8667 5 14.75 4.95 14.65 4.85C14.55 4.75 14.5 4.63333 14.5 4.5C14.5 4.45704 14.5052 4.41582 14.5156 4.37632C14.1181 4.24934 13.707 4.1545 13.2823 4.09179C13.3057 4.10882 13.3282 4.12822 13.35 4.15C13.45 4.25 13.5 4.36667 13.5 4.5C13.5 4.63333 13.45 4.75 13.35 4.85C13.25 4.95 13.1333 5 13 5C12.8667 5 12.75 4.95 12.65 4.85C12.55 4.75 12.5 4.63333 12.5 4.5C12.5 4.36667 12.55 4.25 12.65 4.15C12.7008 4.09918 12.7559 4.06128 12.8154 4.03629C12.5487 4.0121 12.2769 4 12 4C11.7226 4 11.4505 4.01196 11.1836 4.03587C11.2434 4.06086 11.2989 4.0989 11.35 4.15C11.45 4.25 11.5 4.36667 11.5 4.5C11.5 4.63333 11.45 4.75 11.35 4.85C11.25 4.95 11.1333 5 11 5C10.8667 5 10.75 4.95 10.65 4.85C10.55 4.75 10.5 4.63333 10.5 4.5C10.5 4.36667 10.55 4.25 10.65 4.15C10.6724 4.12756 10.6957 4.10764 10.7198 4.09024C10.2936 4.15226 9.8814 4.24625 9.48333 4.37221C9.49444 4.41296 9.5 4.45555 9.5 4.5C9.5 4.63333 9.45 4.75 9.35 4.85C9.25 4.95 9.13333 5 9 5C8.86667 5 8.75 4.95 8.65 4.85C8.61338 4.81338 8.58346 4.77453 8.56026 4.73344C8.38497 4.81594 8.21276 4.90541 8.04361 5.00183C8.15893 5.01167 8.26105 5.06106 8.35 5.15C8.45 5.25 8.5 5.36667 8.5 5.5C8.5 5.63333 8.45 5.75 8.35 5.85C8.25 5.95 8.13333 6 8 6C7.86667 6 7.75 5.95 7.65 5.85C7.55 5.75 7.5 5.63333 7.5 5.5C7.5 5.4359 7.51156 5.37565 7.53467 5.31926C7.11065 5.60733 6.70742 5.94258 6.325 6.325C5.80491 6.84509 5.37208 7.40364 5.0265 8.00067C5.14885 8.0069 5.25668 8.05668 5.35 8.15C5.45 8.25 5.5 8.36667 5.5 8.5C5.5 8.63333 5.45 8.75 5.35 8.85C5.25 8.95 5.13333 9 5 9C4.86667 9 4.75 8.95 4.65 8.85C4.63898 8.83898 4.62858 8.82777 4.61877 8.81635C4.20626 9.78663 4 10.8479 4 12C4 14.2167 4.775 16.1042 6.325 17.6625C7.875 19.2208 9.76667 20 12 20C14.2167 20 16.1042 19.2208 17.6625 17.6625C19.2208 16.1042 20 14.2167 20 12C20 10.8489 19.793 9.78851 19.379 8.81893C19.3699 8.82946 19.3602 8.83981 19.35 8.85ZM4.61877 8.81635C4.66407 8.7098 4.71186 8.60435 4.76213 8.5C4.8437 8.33067 4.93183 8.16423 5.0265 8.00067C5.01774 8.00022 5.00891 8 5 8C4.86667 8 4.75 8.05 4.65 8.15C4.55 8.25 4.5 8.36667 4.5 8.5C4.5 8.61667 4.53828 8.72057 4.61484 8.81172C4.61614 8.81327 4.61745 8.81481 4.61877 8.81635ZM18.35 7.85C18.25 7.95 18.1333 8 18 8C17.8667 8 17.75 7.95 17.65 7.85C17.55 7.75 17.5 7.63333 17.5 7.5C17.5 7.36667 17.55 7.25 17.65 7.15C17.75 7.05 17.8667 7 18 7C18.1333 7 18.25 7.05 18.35 7.15C18.45 7.25 18.5 7.36667 18.5 7.5C18.5 7.63333 18.45 7.75 18.35 7.85ZM6.35 7.85C6.25 7.95 6.13333 8 6 8C5.86667 8 5.75 7.95 5.65 7.85C5.55 7.75 5.5 7.63333 5.5 7.5C5.5 7.36667 5.55 7.25 5.65 7.15C5.75 7.05 5.86667 7 6 7C6.13333 7 6.25 7.05 6.35 7.15C6.45 7.25 6.5 7.36667 6.5 7.5C6.5 7.63333 6.45 7.75 6.35 7.85ZM15.8875 13.8875C15.6458 14.1292 15.35 14.25 15 14.25C14.65 14.25 14.3542 14.1292 14.1125 13.8875C13.8708 13.6458 13.75 13.35 13.75 13C13.75 12.65 13.8708 12.3542 14.1125 12.1125C14.3542 11.8708 14.65 11.75 15 11.75C15.35 11.75 15.6458 11.8708 15.8875 12.1125C16.1292 12.3542 16.25 12.65 16.25 13C16.25 13.35 16.1292 13.6458 15.8875 13.8875ZM9.8875 13.8875C9.64583 14.1292 9.35 14.25 9 14.25C8.65 14.25 8.35417 14.1292 8.1125 13.8875C7.87083 13.6458 7.75 13.35 7.75 13C7.75 12.65 7.87083 12.3542 8.1125 12.1125C8.35417 11.8708 8.65 11.75 9 11.75C9.35 11.75 9.64583 11.8708 9.8875 12.1125C10.1292 12.3542 10.25 12.65 10.25 13C10.25 13.35 10.1292 13.6458 9.8875 13.8875ZM15.875 21.2125C14.6583 21.7375 13.3667 22 12 22C10.6167 22 9.31667 21.7375 8.1 21.2125C6.88333 20.6875 5.825 19.9708 4.925 19.0625C4.025 18.1542 3.3125 17.0917 2.7875 15.875C2.2625 14.6583 2 13.3667 2 12C2 10.6167 2.2625 9.31667 2.7875 8.1C3.3125 6.88333 4.025 5.825 4.925 4.925C5.825 4.025 6.88333 3.3125 8.1 2.7875C9.31667 2.2625 10.6167 2 12 2C13.3667 2 14.6583 2.2625 15.875 2.7875C17.0917 3.3125 18.1542 4.025 19.0625 4.925C19.9708 5.825 20.6875 6.88333 21.2125 8.1C21.7375 9.31667 22 10.6167 22 12C22 13.3667 21.7375 14.6583 21.2125 15.875C20.6875 17.0917 19.9708 18.1542 19.0625 19.0625C18.1542 19.9708 17.0917 20.6875 15.875 21.2125Z" fill="#1C1B1F"/>
<path d="M4.65 8.15C4.75 8.05 4.86667 8 5 8C5.00891 8 5.01774 8.00022 5.0265 8.00067C4.93183 8.16423 4.8437 8.33067 4.76213 8.5C4.71186 8.60435 4.66407 8.7098 4.61877 8.81635L4.61484 8.81172C4.53828 8.72057 4.5 8.61667 4.5 8.5C4.5 8.36667 4.55 8.25 4.65 8.15Z" fill="inherit"/>
</g>
</svg>
