<svg width="17" height="17" viewBox="0 0 17 17" fill="none" xmlns="http://www.w3.org/2000/svg">
<mask id="mask0_5_133" style="mask-type:alpha" maskUnits="userSpaceOnUse" x="0" y="0" width="17" height="17">
<rect width="17" height="17" fill="#D9D9D9"/>
</mask>
<g mask="url(#mask0_5_133)">
<path d="M11.3333 7.79167C11.534 7.79167 11.7023 7.72379 11.838 7.58803C11.9738 7.45226 12.0417 7.28403 12.0417 7.08334C12.0417 6.88264 11.9738 6.71441 11.838 6.57865C11.7023 6.44289 11.534 6.375 11.3333 6.375C11.1326 6.375 10.9644 6.44289 10.8286 6.57865C10.6929 6.71441 10.625 6.88264 10.625 7.08334C10.625 7.28403 10.6929 7.45226 10.8286 7.58803C10.9644 7.72379 11.1326 7.79167 11.3333 7.79167ZM5.66667 6.375H9.20833V4.95834H5.66667V6.375ZM3.1875 14.875C2.78611 13.5292 2.39062 12.1863 2.00104 10.8464C1.61146 9.50643 1.41667 8.13403 1.41667 6.72917C1.41667 5.64306 1.79444 4.72223 2.55 3.96667C3.30556 3.21112 4.22639 2.83334 5.3125 2.83334H8.85417C9.19653 2.38473 9.61267 2.03646 10.1026 1.78855C10.5925 1.54063 11.1208 1.41667 11.6875 1.41667C11.9826 1.41667 12.2335 1.51997 12.4401 1.72657C12.6467 1.93316 12.75 2.18403 12.75 2.47917C12.75 2.55001 12.7411 2.62084 12.7234 2.69167C12.7057 2.76251 12.6851 2.82744 12.6615 2.88646C12.6142 3.01632 12.57 3.14914 12.5286 3.2849C12.4873 3.42066 12.4549 3.55938 12.4313 3.70105L14.0427 5.3125H15.5833V10.2531L13.5823 10.9083L12.3958 14.875H8.5V13.4583H7.08333V14.875H3.1875ZM4.25 13.4583H5.66667V12.0417H9.91667V13.4583H11.3333L12.4313 9.81042L14.1667 9.22605V6.72917H13.4583L10.9792 4.25001C10.9792 4.01389 10.9939 3.78664 11.0234 3.56823C11.053 3.34983 11.0972 3.12848 11.1563 2.90417C10.8139 2.99862 10.5128 3.16094 10.2531 3.39115C9.9934 3.62136 9.80451 3.90764 9.68646 4.25001H5.3125C4.62778 4.25001 4.0434 4.49202 3.55938 4.97605C3.07535 5.46007 2.83333 6.04445 2.83333 6.72917C2.83333 7.88612 2.99271 9.0165 3.31146 10.1203C3.63021 11.2241 3.94306 12.3368 4.25 13.4583Z"/>
</g>
</svg>
