<svg width="34" height="34" viewBox="0 0 34 34" fill="none" xmlns="http://www.w3.org/2000/svg">
<mask id="mask0_5_109" style="mask-type:alpha" maskUnits="userSpaceOnUse" x="0" y="0" width="34" height="34">
<rect width="34" height="34" fill="#D9D9D9"/>
</mask>
<g mask="url(#mask0_5_109)">
<path d="M15.6188 29.75V26.7042C14.3674 26.4208 13.2872 25.8778 12.3781 25.075C11.4691 24.2722 10.8021 23.1389 10.3771 21.675L12.9979 20.6125C13.3521 21.7458 13.8774 22.6076 14.574 23.1979C15.2705 23.7882 16.1854 24.0833 17.3188 24.0833C18.2868 24.0833 19.1073 23.8649 19.7802 23.4281C20.4531 22.9913 20.7896 22.3125 20.7896 21.3917C20.7896 20.5653 20.5299 19.9101 20.0104 19.426C19.491 18.942 18.2868 18.3931 16.3979 17.7792C14.3674 17.1417 12.9743 16.3802 12.2188 15.4948C11.4632 14.6094 11.0854 13.5292 11.0854 12.2542C11.0854 10.7194 11.5813 9.52708 12.5729 8.67708C13.5646 7.82708 14.5799 7.34306 15.6188 7.225V4.25H18.4521V7.225C19.6326 7.41389 20.6066 7.84479 21.374 8.51771C22.1413 9.19062 22.7021 10.0111 23.0563 10.9792L20.4354 12.1125C20.1521 11.3569 19.7507 10.7903 19.2313 10.4125C18.7118 10.0347 18.0035 9.84583 17.1063 9.84583C16.0674 9.84583 15.2764 10.076 14.7333 10.5365C14.1903 10.9969 13.9188 11.5694 13.9188 12.2542C13.9188 13.0333 14.2729 13.6472 14.9813 14.0958C15.6896 14.5444 16.9174 15.0167 18.6646 15.5125C20.2938 15.9847 21.5274 16.7344 22.3656 17.7615C23.2038 18.7885 23.6229 19.975 23.6229 21.3208C23.6229 22.9972 23.1271 24.2722 22.1354 25.1458C21.1438 26.0194 19.916 26.5625 18.4521 26.775V29.75H15.6188Z" />
</g>
</svg>
