<svg width="33" height="33" viewBox="0 0 33 33" fill="none" xmlns="http://www.w3.org/2000/svg">
<mask id="mask0_5_85" style="mask-type:alpha" maskUnits="userSpaceOnUse" x="0" y="0" width="33" height="33">
<rect width="33" height="33" fill="#D9D9D9"/>
</mask>
<g mask="url(#mask0_5_85)">
<path d="M9.625 28.875C8.86875 28.875 8.22135 28.6057 7.68281 28.0672C7.14427 27.5286 6.875 26.8813 6.875 26.125V11C6.875 10.2437 7.14427 9.59635 7.68281 9.05781C8.22135 8.51927 8.86875 8.25 9.625 8.25H12.375V4.125C12.375 3.66667 12.587 3.32292 13.0109 3.09375C13.4349 2.86458 13.9104 2.75 14.4375 2.75H18.5625C19.0896 2.75 19.5651 2.86458 19.9891 3.09375C20.413 3.32292 20.625 3.66667 20.625 4.125V8.25H23.375C24.1313 8.25 24.7786 8.51927 25.3172 9.05781C25.8557 9.59635 26.125 10.2437 26.125 11V26.125C26.125 26.8813 25.8557 27.5286 25.3172 28.0672C24.7786 28.6057 24.1313 28.875 23.375 28.875C23.375 29.2646 23.2432 29.5911 22.9797 29.8547C22.7161 30.1182 22.3896 30.25 22 30.25C21.6104 30.25 21.2839 30.1182 21.0203 29.8547C20.7568 29.5911 20.625 29.2646 20.625 28.875H12.375C12.375 29.2646 12.2432 29.5911 11.9797 29.8547C11.7161 30.1182 11.3896 30.25 11 30.25C10.6104 30.25 10.2839 30.1182 10.0203 29.8547C9.75677 29.5911 9.625 29.2646 9.625 28.875ZM14.4375 8.25H18.5625V4.8125H14.4375V8.25ZM9.625 26.125H23.375V11H9.625V26.125ZM11 24.75H13.0625V12.375H11V24.75ZM15.4688 24.75H17.5312V12.375H15.4688V24.75ZM19.9375 24.75H22V12.375H19.9375V24.75Z"/>
</g>
</svg>
