<svg width="21" height="21" viewBox="0 0 21 21" fill="none" xmlns="http://www.w3.org/2000/svg">
<mask id="mask0_5_127" style="mask-type:alpha" maskUnits="userSpaceOnUse" x="0" y="0" width="21" height="21">
<rect width="21" height="21" fill="#D9D9D9"/>
</mask>
<g mask="url(#mask0_5_127)">
<path d="M13.125 18.375C11.4042 18.375 9.87292 17.8865 8.53125 16.9094C7.18958 15.9323 6.24167 14.6708 5.6875 13.125H2.625V11.375H5.29375C5.25 11.025 5.23177 10.7005 5.23906 10.4016C5.24635 10.1026 5.26458 9.84375 5.29375 9.625H2.625V7.875H5.6875C6.24167 6.32917 7.18958 5.06771 8.53125 4.09063C9.87292 3.11354 11.4042 2.625 13.125 2.625C14.1312 2.625 15.0828 2.80365 15.9797 3.16094C16.8766 3.51823 17.675 4.01042 18.375 4.6375L17.1281 5.8625C16.5885 5.39583 15.9797 5.03125 15.3016 4.76875C14.6234 4.50625 13.8979 4.375 13.125 4.375C11.8854 4.375 10.7771 4.69948 9.8 5.34844C8.82292 5.9974 8.08646 6.83958 7.59063 7.875H13.125V9.625H7.06563C7.00729 10.0188 6.98542 10.3651 7 10.6641C7.01458 10.963 7.03646 11.2 7.06563 11.375H13.125V13.125H7.59063C8.08646 14.1604 8.82292 15.0026 9.8 15.6516C10.7771 16.3005 11.8854 16.625 13.125 16.625C13.8979 16.625 14.6234 16.4938 15.3016 16.2313C15.9797 15.9688 16.5885 15.6042 17.1281 15.1375L18.375 16.3625C17.675 16.9896 16.8766 17.4818 15.9797 17.8391C15.0828 18.1964 14.1312 18.375 13.125 18.375Z" />
</g>
</svg>
