<svg width="20" height="20" viewBox="0 0 20 20" fill="none" xmlns="http://www.w3.org/2000/svg">
<mask id="mask0_5_91" style="mask-type:alpha" maskUnits="userSpaceOnUse" x="0" y="0" width="20" height="20">
<rect width="20" height="20" fill="#D9D9D9"/>
</mask>
<g mask="url(#mask0_5_91)">
<path d="M18.3333 5V15C18.3333 15.4583 18.1701 15.8507 17.8438 16.1771C17.5174 16.5035 17.125 16.6667 16.6667 16.6667H3.33333C2.875 16.6667 2.48264 16.5035 2.15625 16.1771C1.82986 15.8507 1.66667 15.4583 1.66667 15V5C1.66667 4.54167 1.82986 4.14931 2.15625 3.82292C2.48264 3.49653 2.875 3.33334 3.33333 3.33334H16.6667C17.125 3.33334 17.5174 3.49653 17.8438 3.82292C18.1701 4.14931 18.3333 4.54167 18.3333 5ZM3.33333 6.66667H16.6667V5H3.33333V6.66667ZM3.33333 10V15H16.6667V10H3.33333Z"/>
</g>
</svg>
