<svg width="33" height="33" viewBox="0 0 33 33" fill="none" xmlns="http://www.w3.org/2000/svg">
<mask id="mask0_7_139" style="mask-type:alpha" maskUnits="userSpaceOnUse" x="0" y="0" width="33" height="33">
<rect width="33" height="33" fill="#D9D9D9"/>
</mask>
<g mask="url(#mask0_7_139)">
<path d="M28.1531 32.0375L24.9906 28.875H6.875C6.11875 28.875 5.47136 28.6057 4.93281 28.0672C4.39427 27.5287 4.125 26.8813 4.125 26.125V8.00939L0.962502 4.81251L2.8875 2.88751L30.1125 30.1125L28.1531 32.0375ZM6.875 26.125H22.2406L19.4906 23.375H8.25L12.375 17.875L15.125 21.6219L16.2938 20.1781L6.875 10.7594V26.125ZM28.875 24.9906L26.125 22.2406V6.87501H10.7594L8.00938 4.12501H26.125C26.8813 4.12501 27.5286 4.39428 28.0672 4.93282C28.6057 5.47137 28.875 6.11876 28.875 6.87501V24.9906Z" fill="#1C1B1F"/>
</g>
</svg>
